<?xml version="1.0" standalone="no"?>
<!DOCTYPE svg PUBLIC "-//W3C//DTD SVG 20010904//EN"
 "http://www.w3.org/TR/2001/REC-SVG-20010904/DTD/svg10.dtd">
<svg version="1.0" xmlns="http://www.w3.org/2000/svg"
 width="900.000000pt" height="900.000000pt" viewBox="0 0 900.000000 900.000000"
 preserveAspectRatio="xMidYMid meet">

<g transform="translate(0.000000,900.000000) scale(0.100000,-0.100000)"
fill="#000000" stroke="none">
<path d="M4060 6574 c0 -8 5 -12 10 -9 6 3 10 10 10 16 0 5 -4 9 -10 9 -5 0
-10 -7 -10 -16z"/>
<path d="M4808 6543 c-8 -10 92 -13 497 -13 280 0 505 3 501 8 -4 4 -228 9
-498 12 -384 4 -492 2 -500 -7z"/>
<path d="M2305 6540 c-4 -7 268 -10 833 -10 462 0 855 -3 873 -7 31 -6 33 -5
21 10 -13 15 -90 16 -867 17 -568 0 -856 -3 -860 -10z"/>
<path d="M2260 6524 c0 -14 3 -14 15 -4 8 7 15 14 15 16 0 2 -7 4 -15 4 -8 0
-15 -7 -15 -16z"/>
<path d="M4769 6505 c-9 -37 -2 -1670 7 -1672 11 -4 17 1619 6 1661 -7 25 -9
27 -13 11z"/>
<path d="M5855 6510 c3 -5 19 -10 36 -10 16 0 29 5 29 10 0 6 -16 10 -36 10
-21 0 -33 -4 -29 -10z"/>
<path d="M5950 6500 c-22 -6 -23 -8 -7 -15 11 -4 23 -3 30 4 15 15 7 19 -23
11z"/>
<path d="M2257 6494 c-9 -10 -7 -3297 3 -3319 8 -18 9 -18 9 5 3 88 1 3314 -2
3317 -2 1 -6 0 -10 -3z"/>
<path d="M4020 6464 c0 -8 5 -12 10 -9 6 3 10 10 10 16 0 5 -4 9 -10 9 -5 0
-10 -7 -10 -16z"/>
<path d="M6009 6466 c16 -19 44 -21 39 -3 -3 6 -15 14 -28 15 -21 3 -22 2 -11
-12z"/>
<path d="M6110 6470 c0 -5 5 -10 11 -10 5 0 7 5 4 10 -3 6 -8 10 -11 10 -2 0
-4 -4 -4 -10z"/>
<path d="M6094 6419 c21 -11 43 -18 49 -16 14 4 -50 37 -72 37 -9 0 2 -9 23
-21z"/>
<path d="M6160 6380 c20 -13 33 -13 25 0 -3 6 -14 10 -23 10 -15 0 -15 -2 -2
-10z"/>
<path d="M6210 6345 c7 -8 16 -15 21 -15 5 0 9 7 9 15 0 9 -9 15 -21 15 -18 0
-19 -2 -9 -15z"/>
<path d="M6285 6340 c-3 -5 1 -10 9 -10 9 0 16 5 16 10 0 6 -4 10 -9 10 -6 0
-13 -4 -16 -10z"/>
<path d="M6255 6310 c3 -5 11 -10 16 -10 6 0 7 5 4 10 -3 6 -11 10 -16 10 -6
0 -7 -4 -4 -10z"/>
<path d="M6300 6270 c0 -5 5 -10 11 -10 5 0 7 5 4 10 -3 6 -8 10 -11 10 -2 0
-4 -4 -4 -10z"/>
<path d="M6320 6240 c0 -5 5 -10 10 -10 6 0 10 5 10 10 0 6 -4 10 -10 10 -5 0
-10 -4 -10 -10z"/>
<path d="M6350 6206 c0 -9 5 -16 10 -16 6 0 10 4 10 9 0 6 -4 13 -10 16 -5 3
-10 -1 -10 -9z"/>
<path d="M6380 6171 c0 -5 5 -13 10 -16 6 -3 10 -2 10 4 0 5 -4 13 -10 16 -5
3 -10 2 -10 -4z"/>
<path d="M6430 6166 c0 -9 7 -16 16 -16 9 0 14 5 12 12 -6 18 -28 21 -28 4z"/>
<path d="M6411 6125 c0 -18 26 -58 32 -49 3 5 -3 21 -14 34 -10 14 -18 21 -18
15z"/>
<path d="M6457 6045 c-4 -8 -2 -17 3 -20 5 -3 11 -19 15 -35 4 -17 11 -30 16
-30 13 0 11 24 -5 56 -8 15 -13 31 -10 36 3 4 1 8 -4 8 -6 0 -12 -7 -15 -15z"/>
<path d="M6505 5908 c-4 -10 0 -26 8 -38 20 -29 28 -12 12 25 -10 25 -14 27
-20 13z"/>
<path d="M6527 5821 c-5 -21 6 -88 17 -98 9 -10 7 90 -3 105 -6 11 -10 9 -14
-7z"/>
<path d="M6530 5523 c0 -68 9 -65 17 6 3 34 2 51 -6 51 -7 0 -11 -22 -11 -57z"/>
<path d="M6508 5444 c-5 -4 -8 -20 -8 -36 0 -15 -4 -36 -9 -46 -19 -34 -41
-85 -41 -94 0 -4 5 -8 10 -8 6 0 10 7 10 16 0 9 12 38 26 64 16 30 24 58 22
79 -2 18 -6 29 -10 25z"/>
<path d="M6530 5306 c0 -9 5 -16 10 -16 6 0 10 4 10 9 0 6 -4 13 -10 16 -5 3
-10 -1 -10 -9z"/>
<path d="M6418 5220 c-10 -17 -13 -32 -7 -35 5 -4 9 0 9 9 0 8 5 16 11 18 6 2
10 11 8 21 -3 13 -8 10 -21 -13z"/>
<path d="M6475 5229 c-11 -17 1 -21 15 -4 8 9 8 15 2 15 -6 0 -14 -5 -17 -11z"/>
<path d="M6370 5147 c-31 -45 -31 -47 -16 -41 19 7 48 52 38 58 -4 3 -15 -5
-22 -17z"/>
<path d="M6262 5025 c-12 -14 -18 -25 -14 -25 5 0 19 11 32 25 13 14 19 25 14
25 -6 0 -20 -11 -32 -25z"/>
<path d="M6520 5040 c0 -5 5 -10 10 -10 6 0 10 5 10 10 0 6 -4 10 -10 10 -5 0
-10 -4 -10 -10z"/>
<path d="M6300 4985 c-10 -12 -10 -15 3 -15 19 0 31 16 18 24 -5 3 -14 -1 -21
-9z"/>
<path d="M6207 4974 c-11 -11 3 -24 18 -18 8 4 12 10 9 15 -6 11 -18 12 -27 3z"/>
<path d="M6144 4935 c-18 -14 -17 -14 14 -15 22 0 32 5 32 15 0 19 -21 19 -46
0z"/>
<path d="M6255 4930 c3 -5 8 -10 11 -10 2 0 4 5 4 10 0 6 -5 10 -11 10 -5 0
-7 -4 -4 -10z"/>
<path d="M6100 4899 c0 -5 5 -7 10 -4 6 3 10 8 10 11 0 2 -4 4 -10 4 -5 0 -10
-5 -10 -11z"/>
<path d="M6205 4890 c-3 -5 -1 -10 4 -10 6 0 11 5 11 10 0 6 -2 10 -4 10 -3 0
-8 -4 -11 -10z"/>
<path d="M6015 4866 c-22 -13 -52 -26 -67 -29 -16 -4 -28 -12 -28 -17 0 -14
33 -13 48 2 20 20 86 38 122 33 19 -2 26 -2 15 2 -11 3 -24 11 -28 19 -10 17
-13 17 -62 -10z"/>
<path d="M6135 4880 c-3 -5 -1 -10 4 -10 6 0 11 5 11 10 0 6 -2 10 -4 10 -3 0
-8 -4 -11 -10z"/>
<path d="M6275 4880 c-3 -5 -1 -10 4 -10 6 0 11 5 11 10 0 6 -2 10 -4 10 -3 0
-8 -4 -11 -10z"/>
<path d="M5810 4801 c0 -16 36 -19 61 -5 23 13 22 13 -18 14 -24 0 -43 -4 -43
-9z"/>
<path d="M4770 4785 c0 -8 5 -15 10 -15 6 0 10 7 10 15 0 8 -4 15 -10 15 -5 0
-10 -7 -10 -15z"/>
<path d="M5176 4780 c-280 -4 -340 -7 -344 -19 -4 -11 0 -12 14 -5 11 5 211 9
447 10 235 0 430 3 433 7 10 10 -192 12 -550 7z"/>
<path d="M4880 4709 c0 -5 5 -7 10 -4 6 3 10 8 10 11 0 2 -4 4 -10 4 -5 0 -10
-5 -10 -11z"/>
<path d="M4820 4178 c0 -4 24 -8 53 -8 28 0 287 0 575 -1 287 -1 526 1 529 5
3 3 -209 6 -473 7 -263 0 -525 1 -581 3 -57 1 -103 -1 -103 -6z"/>
<path d="M4768 4148 c-3 -17 -2 -1670 1 -1711 1 -5 6 -5 11 -2 7 4 10 297 9
871 0 756 -5 933 -21 842z"/>
<path d="M6045 4150 c3 -5 22 -10 41 -10 21 0 33 4 29 10 -3 6 -22 10 -41 10
-21 0 -33 -4 -29 -10z"/>
<path d="M6171 4130 c-10 -5 -9 -8 2 -13 7 -3 19 -2 26 3 10 5 9 8 -2 13 -7 3
-19 2 -26 -3z"/>
<path d="M6235 4100 c3 -5 13 -10 21 -10 8 0 12 5 9 10 -3 6 -13 10 -21 10 -8
0 -12 -4 -9 -10z"/>
<path d="M6295 4070 c3 -5 13 -10 21 -10 8 0 12 5 9 10 -3 6 -13 10 -21 10 -8
0 -12 -4 -9 -10z"/>
<path d="M6340 4054 c0 -10 44 -43 58 -44 23 0 12 16 -23 33 -19 9 -35 14 -35
11z"/>
<path d="M6500 4020 c0 -5 5 -10 10 -10 6 0 10 5 10 10 0 6 -4 10 -10 10 -5 0
-10 -4 -10 -10z"/>
<path d="M6462 3998 c-7 -7 -12 -16 -12 -20 0 -12 28 -10 36 3 10 17 -10 31
-24 17z"/>
<path d="M6498 3974 c-4 -3 2 -15 12 -27 11 -11 23 -17 27 -13 4 3 -2 16 -13
27 -11 11 -23 17 -26 13z"/>
<path d="M6544 3906 c-9 -10 -2 -24 32 -62 24 -27 43 -43 44 -35 0 7 -11 24
-25 37 -14 13 -25 28 -25 34 0 5 -5 10 -11 10 -8 0 -8 5 1 15 15 18 0 20 -16
1z"/>
<path d="M6700 3760 c-13 -8 -12 -10 3 -10 9 0 17 5 17 10 0 12 -1 12 -20 0z"/>
<path d="M6650 3753 c0 -6 5 -15 11 -18 6 -4 14 -17 19 -29 6 -15 9 -16 9 -5
1 9 -8 27 -19 40 -10 13 -19 19 -20 12z"/>
<path d="M6700 3671 c0 -26 16 -35 24 -15 10 25 7 34 -9 34 -8 0 -15 -9 -15
-19z"/>
<path d="M6724 3608 c3 -13 6 -27 6 -33 0 -5 4 -4 9 4 10 16 3 51 -11 51 -6 0
-8 -10 -4 -22z"/>
<path d="M6750 3511 c0 -17 5 -31 10 -31 6 0 10 11 10 24 0 14 -4 28 -10 31
-6 4 -10 -7 -10 -24z"/>
<path d="M6781 3289 c1 -132 3 -145 10 -89 9 70 6 226 -5 237 -3 3 -5 -63 -5
-148z"/>
<path d="M4021 3208 c-1 -56 3 -88 10 -88 11 0 10 109 -2 150 -4 15 -7 -9 -8
-62z"/>
<path d="M2279 3095 c-9 -8 2 -65 12 -65 5 0 9 10 9 23 0 24 -13 50 -21 42z"/>
<path d="M6757 3083 c-11 -10 -8 -53 3 -53 6 0 10 14 10 30 0 31 -2 35 -13 23z"/>
<path d="M3997 3073 c-11 -10 -8 -53 3 -53 6 0 10 14 10 30 0 31 -2 35 -13 23z"/>
<path d="M2255 3020 c-3 -5 -1 -10 4 -10 6 0 11 5 11 10 0 6 -2 10 -4 10 -3 0
-8 -4 -11 -10z"/>
<path d="M6730 2984 c0 -14 4 -23 10 -19 6 3 10 15 10 26 0 10 -4 19 -10 19
-5 0 -10 -12 -10 -26z"/>
<path d="M2296 2983 c-8 -19 7 -38 22 -29 11 7 4 46 -8 46 -4 0 -11 -8 -14
-17z"/>
<path d="M3977 2994 c-4 -4 -7 -14 -7 -23 0 -11 3 -12 11 -4 6 6 10 16 7 23
-2 6 -7 8 -11 4z"/>
<path d="M3933 2903 c-19 -40 -16 -49 7 -20 20 26 26 47 13 47 -5 0 -14 -12
-20 -27z"/>
<path d="M6701 2914 c0 -11 3 -14 6 -6 3 7 2 16 -1 19 -3 4 -6 -2 -5 -13z"/>
<path d="M2350 2888 c11 -18 23 -41 26 -50 6 -16 24 -26 24 -13 0 10 -55 95
-62 95 -4 0 1 -15 12 -32z"/>
<path d="M6681 2874 c0 -11 3 -14 6 -6 3 7 2 16 -1 19 -3 4 -6 -2 -5 -13z"/>
<path d="M2315 2860 c3 -5 8 -10 11 -10 2 0 4 5 4 10 0 6 -5 10 -11 10 -5 0
-7 -4 -4 -10z"/>
<path d="M6655 2840 c-3 -5 -1 -10 4 -10 6 0 11 5 11 10 0 6 -2 10 -4 10 -3 0
-8 -4 -11 -10z"/>
<path d="M3895 2829 c-10 -15 3 -25 16 -12 7 7 7 13 1 17 -6 3 -14 1 -17 -5z"/>
<path d="M2407 2804 c-13 -14 -7 -32 13 -37 23 -6 25 2 7 27 -7 9 -16 14 -20
10z"/>
<path d="M6640 2801 c0 -6 -50 -61 -110 -121 -61 -61 -103 -110 -95 -110 15 0
195 176 195 191 0 4 7 14 15 23 9 9 11 17 5 21 -5 3 -10 1 -10 -4z"/>
<path d="M3860 2779 c-10 -18 -9 -20 7 -17 10 2 19 11 21 21 5 24 -15 21 -28
-4z"/>
<path d="M3950 2790 c0 -5 5 -10 10 -10 6 0 10 5 10 10 0 6 -4 10 -10 10 -5 0
-10 -4 -10 -10z"/>
<path d="M3819 2723 c-8 -10 -21 -26 -28 -36 -24 -31 11 -9 37 24 25 31 16 42
-9 12z"/>
<path d="M2440 2722 c0 -5 9 -17 20 -27 14 -12 18 -25 14 -39 -6 -19 -6 -20
12 -2 17 18 17 19 -4 36 -12 10 -22 23 -22 29 0 6 -4 11 -10 11 -5 0 -10 -4
-10 -8z"/>
<path d="M3860 2694 c0 -8 5 -12 10 -9 6 3 10 10 10 16 0 5 -4 9 -10 9 -5 0
-10 -7 -10 -16z"/>
<path d="M3935 2697 c-4 -10 -5 -21 -1 -24 10 -10 18 4 13 24 -4 17 -4 17 -12
0z"/>
<path d="M6630 2679 c0 -5 5 -7 10 -4 6 3 10 8 10 11 0 2 -4 4 -10 4 -5 0 -10
-5 -10 -11z"/>
<path d="M6585 2650 c-3 -5 1 -10 10 -10 9 0 13 5 10 10 -3 6 -8 10 -10 10 -2
0 -7 -4 -10 -10z"/>
<path d="M3713 2621 c-34 -29 -41 -41 -22 -41 15 0 61 49 57 60 -2 5 -18 -4
-35 -19z"/>
<path d="M3890 2646 c0 -2 7 -7 16 -10 8 -3 12 -2 9 4 -6 10 -25 14 -25 6z"/>
<path d="M2588 2598 c12 -12 25 -19 28 -15 4 4 -1 14 -12 22 -29 22 -41 18
-16 -7z"/>
<path d="M2630 2555 c-7 -8 -8 -15 -2 -15 5 0 15 7 22 15 7 8 8 15 2 15 -5 0
-15 -7 -22 -15z"/>
<path d="M3635 2560 c-3 -5 1 -10 9 -10 9 0 16 5 16 10 0 6 -4 10 -9 10 -6 0
-13 -4 -16 -10z"/>
<path d="M6400 2550 c0 -5 5 -10 10 -10 6 0 10 5 10 10 0 6 -4 10 -10 10 -5 0
-10 -4 -10 -10z"/>
<path d="M2680 2542 c0 -13 83 -62 105 -62 13 1 3 10 -30 27 -27 14 -51 30
-53 34 -4 11 -22 12 -22 1z"/>
<path d="M6350 2540 c0 -5 5 -10 10 -10 6 0 10 5 10 10 0 6 -4 10 -10 10 -5 0
-10 -4 -10 -10z"/>
<path d="M3570 2525 c-14 -8 -36 -19 -50 -26 -14 -6 -20 -13 -13 -16 11 -4
113 43 113 52 0 10 -25 5 -50 -10z"/>
<path d="M6314 2515 c-10 -8 -27 -15 -36 -15 -18 0 -26 -20 -9 -20 14 0 71 34
71 43 0 10 -3 9 -26 -8z"/>
<path d="M2648 2513 c-24 -6 -23 -23 2 -23 11 0 20 7 20 15 0 8 -1 14 -2 14
-2 -1 -11 -3 -20 -6z"/>
<path d="M2820 2470 c0 -15 21 -23 32 -12 6 6 2 11 -11 15 -12 3 -21 1 -21 -3z"/>
<path d="M3436 2465 c-15 -8 -41 -15 -57 -15 -15 0 -31 -4 -34 -10 -9 -14 43
-12 90 4 21 8 41 19 43 25 5 15 -7 14 -42 -4z"/>
<path d="M6218 2473 c-24 -6 -23 -23 2 -23 11 0 20 7 20 15 0 8 -1 14 -2 14
-2 -1 -11 -3 -20 -6z"/>
<path d="M3570 2466 c0 -9 30 -14 35 -6 4 6 -3 10 -14 10 -12 0 -21 -2 -21 -4z"/>
<path d="M2625 2440 c4 -6 11 -8 16 -5 14 9 11 15 -7 15 -8 0 -12 -5 -9 -10z"/>
<path d="M2900 2440 c0 -5 12 -10 26 -10 14 0 23 4 19 10 -3 6 -15 10 -26 10
-10 0 -19 -4 -19 -10z"/>
<path d="M6110 2440 c-11 -7 -7 -10 17 -10 17 0 35 5 38 10 8 13 -35 13 -55 0z"/>
<path d="M3015 2410 c40 -10 243 -10 275 0 15 5 -44 8 -140 8 -96 0 -152 -4
-135 -8z"/>
<path d="M4790 2410 c0 -12 1197 -13 1255 -1 23 5 -233 9 -607 10 -413 1 -648
-3 -648 -9z"/>
</g>
</svg>
