<?xml version="1.0" ?><!DOCTYPE svg  PUBLIC '-//W3C//DTD SVG 1.1//EN'  'http://www.w3.org/Graphics/SVG/1.1/DTD/svg11.dtd'><svg enable-background="new 0 0 512 512" height="512px" id="Video_x5F_Conference" version="1.1" viewBox="0 0 512 512" width="512px" xml:space="preserve" xmlns="http://www.w3.org/2000/svg" xmlns:xlink="http://www.w3.org/1999/xlink"><path d="M474.916,330.333H37.083V74.667c0-5.431,4.402-9.834,9.833-9.834h418.167c5.43,0,9.832,4.403,9.832,9.834  V330.333z" fill="#3F5EAB"/><linearGradient gradientUnits="userSpaceOnUse" id="SVGID_1_" x1="252.2505" x2="252.2505" y1="436.084" y2="382.833"><stop offset="0" style="stop-color:#FFFFFF"/><stop offset="1" style="stop-color:#B3B3B3"/></linearGradient><rect fill="url(#SVGID_1_)" height="53.251" width="81.167" x="211.667" y="382.833"/><rect fill="#CCCCCC" height="11.083" width="234.5" x="135" y="436.084"/><linearGradient gradientUnits="userSpaceOnUse" id="SVGID_2_" x1="99.54" x2="412.4621" y1="354.0449" y2="41.1229"><stop offset="0" style="stop-color:#00FFFF"/><stop offset="1" style="stop-color:#FF7BAC"/></linearGradient><rect fill="url(#SVGID_2_)" height="229.5" width="396.344" x="57.828" y="82.833"/><path d="M450.084,382.833H61.917c-13.715,0-24.833-11.118-24.833-24.833v-27.667h437.833V358  C474.916,371.715,463.799,382.833,450.084,382.833z" fill="#E6E6E6"/><path d="M326.388,312.333H185.612v-35.22c0-26.878,21.789-48.667,48.667-48.667h43.442  c26.878,0,48.667,21.789,48.667,48.667V312.333z" fill="#FFFFFF"/><circle cx="256.625" cy="171.072" fill="#FFFFFF" r="47.346"/></svg>