<?xml version="1.0" ?><svg viewBox="0 0 512 512" xmlns="http://www.w3.org/2000/svg"><defs><style>.cls-1{fill:#f0a5a5;}.cls-2{fill:#cc8c8c;}.cls-3{fill:#7db6d6;}.cls-4{fill:#5ca4cc;}.cls-5{fill:#cbe2ef;}.cls-6{fill:#adc0cb;}.cls-7{fill:#d27676;}.cls-8{fill:#f9b7b7;}.cls-9{fill:#ea8383;}.cls-10{fill:#6e6e6e;}.cls-11{fill:#9bb1ba;}.cls-12{fill:#d49c9c;}.cls-13{fill:#c76f6f;}.cls-14{fill:#575757;}.cls-15{fill:#5e5e5e;}.cls-16{fill:#b6d0db;}.cls-17{fill:#a2c1cc;}.cls-18{fill:#4a4a4a;}</style></defs><g data-name="/ FLAT" id="_FLAT"><rect class="cls-1" height="96" width="112" x="200" y="264"/><path class="cls-2" d="M208,360H312V264h-.30322A104.00809,104.00809,0,0,1,208,360Z"/><path class="cls-3" d="M467.501,408.87891a80.00023,80.00023,0,0,0-60.51905-59.77173L312,328l-3.93677,3.37427a79.99944,79.99944,0,0,1-104.12646,0L200,328l-94.98193,21.10718a80.00023,80.00023,0,0,0-60.519,59.77173L24,496H488Z"/><path class="cls-4" d="M406.98193,349.10718A80.00022,80.00022,0,0,1,467.501,408.87891L488,496H328l23.87109-159.13965Z"/><path class="cls-5" d="M408,400l-33.16357-58.03638,32.1455,7.14356A80.00022,80.00022,0,0,1,467.501,408.87891L488,496H360l16-80Z"/><path class="cls-6" d="M466.35791,404.60742A175.95149,175.95149,0,0,1,312.00024,496H488l-20.499-87.12109C467.16187,407.4375,466.77271,406.0166,466.35791,404.60742Z"/><path class="cls-1" d="M363.37793,152A28.622,28.622,0,0,1,392,180.62207h0a28.622,28.622,0,0,1-17.99194,26.57471L312,232V152Z"/><path class="cls-1" d="M148.62207,152A28.622,28.622,0,0,0,120,180.62207h0a28.622,28.622,0,0,0,17.99194,26.57471L200,232V152Z"/><path class="cls-7" d="M345.20239,41.20215h-.00024A58.7315,58.7315,0,0,0,303.67236,24H208.32764a58.7315,58.7315,0,0,0-41.52979,17.20215h-.00024a58.73255,58.73255,0,0,0-15.80347,54.271L160,136H352l9.00586-40.52686A58.73255,58.73255,0,0,0,345.20239,41.20215Z"/><path class="cls-8" d="M226.65609,290.42409l-15.90752-6.2492A80,80,0,0,1,160,209.71447V134.03135a16,16,0,0,1,3.70846-10.243l0-.00005a121.03361,121.03361,0,0,1,92.98061-43.5498H320a32,32,0,0,1,32,32v97.36328a80,80,0,0,1-50.58848,74.39733L285.319,290.361A80,80,0,0,1,226.65609,290.42409Z"/><path class="cls-9" d="M264,232H252.12891a17.9677,17.9677,0,0,1-16.07129-26.00391l12.78711-25.57421,14.31054,7.15624-12.78711,25.57422A1.96883,1.96883,0,0,0,252.12891,216H264Z"/><rect class="cls-3" height="16" width="192" x="160" y="144"/><path class="cls-9" d="M256,272a33.7,33.7,0,0,1-30.31055-18.7334l-.84472-1.68848,14.31054-7.15624L240,246.11133a17.88883,17.88883,0,0,0,32,.001l.84473-1.69042,14.31054,7.15624-.84472,1.68946A33.70086,33.70086,0,0,1,256,272Z"/><circle class="cls-5" cx="216" cy="152" r="24"/><circle class="cls-5" cx="296" cy="152" r="24"/><path class="cls-4" d="M105.01807,349.10718a80.00023,80.00023,0,0,0-60.519,59.77173L24,496H184L160.12891,336.86035Z"/><path class="cls-5" d="M104,400l33.16357-58.03638-32.1455,7.14356a80.00023,80.00023,0,0,0-60.519,59.77173L24,496H152l-16-80Z"/><path class="cls-10" d="M264,440V427.77588L310.62988,389.375A244.51353,244.51353,0,0,0,400,200a24.0275,24.0275,0,0,0-24-24H352v16h24a8.00917,8.00917,0,0,1,8,8,228.56536,228.56536,0,0,1-83.542,177.02344L256,413.63574l-44.458-36.6123A228.56536,228.56536,0,0,1,128,200a8.00917,8.00917,0,0,1,8-8h24V176H136a24.0275,24.0275,0,0,0-24,24,244.51353,244.51353,0,0,0,89.37012,189.375L248,427.77588V440a56.0629,56.0629,0,0,0,56,56h48V480H304A40.04584,40.04584,0,0,1,264,440Z"/><path class="cls-11" d="M352,491.40918V496H456V421.167A176.12741,176.12741,0,0,1,352,491.40918Z"/><path class="cls-12" d="M213.13159,285.11108l13.52442,5.313a79.99916,79.99916,0,0,0,58.66308-.06323l16.09253-6.36182A79.99965,79.99965,0,0,0,352,209.60181V155.26758A224.60757,224.60757,0,0,1,213.13159,285.11108Z"/><path class="cls-13" d="M256,272a33.70086,33.70086,0,0,0,30.31055-18.73242l.84472-1.68946-5.5896-2.79516A224.2048,224.2048,0,0,1,247.21143,270.843,34.18792,34.18792,0,0,0,256,272Z"/><path class="cls-8" d="M473.57617,277.57617h0a14.41453,14.41453,0,0,0-17.61426,1.26929l5.61426-8.42163a14.422,14.422,0,0,0-4-20h0a14.42541,14.42541,0,0,0-17.13916.84277,14.40149,14.40149,0,0,0-19.63916-19.74682,14.40953,14.40953,0,0,0-6.374-13.09595h0a14.422,14.422,0,0,0-20,4L368,262.10962V256a16,16,0,0,0-32,0v26.74512a32.0001,32.0001,0,0,0,9.37256,22.62744l5.25488,5.25488A31.99925,31.99925,0,0,1,360,333.25488V368h88V327.90454a14.41117,14.41117,0,0,0,13.57617-6.32837l16-24A14.42205,14.42205,0,0,0,473.57617,277.57617Z"/><rect class="cls-1" height="15.99963" rx="7.99981" transform="translate(-24.66618 449.91082) rotate(-56.30993)" width="28.84441" x="393.57779" y="240.00018"/><rect class="cls-1" height="15.99963" rx="7.99981" transform="translate(-30.38786 476.06741) rotate(-56.30993)" width="28.84441" x="415.15397" y="258.42401"/><rect class="cls-1" height="15.99963" rx="7.99981" transform="translate(-45.85518 501.47114) rotate(-56.30993)" width="28.84441" x="431.15397" y="285.57635"/><path class="cls-14" d="M356.28116,240.00023A32.00391,32.00391,0,1,1,384,256a31.85281,31.85281,0,0,1-27.71884-15.99977"/><path class="cls-15" d="M312.00024,496H352v-4.59082A176.42327,176.42327,0,0,1,312.00024,496Z"/><rect class="cls-16" height="128" width="104" x="352" y="368"/><rect class="cls-17" height="48" width="104" x="352" y="368"/><path class="cls-11" d="M352,491.40918V496H456V421.167A176.12741,176.12741,0,0,1,352,491.40918Z"/><path class="cls-18" d="M397.14624,194.82666a31.98773,31.98773,0,0,0-42.31665,42.30957A64.14063,64.14063,0,0,1,397.14624,194.82666Z"/><path class="cls-12" d="M461.57617,321.57617l16-24A14.424,14.424,0,0,0,470.33154,275.96,144.19394,144.19394,0,0,1,360,365.9978V368h88V327.90454A14.41117,14.41117,0,0,0,461.57617,321.57617Z"/></g></svg>