<?xml version="1.0" ?><svg id="Layer_13" style="enable-background:new 0 0 128 128;" version="1.1" viewBox="0 0 128 128" xml:space="preserve" xmlns="http://www.w3.org/2000/svg" xmlns:xlink="http://www.w3.org/1999/xlink"><style type="text/css">
	.st0{fill:#E0A9CF;}
	.st1{fill:#FFCCED;}
	.st2{fill:#E5AC38;}
	.st3{fill:#AA7B26;}
	.st4{fill:#231F20;}
	.st5{fill:#008050;}
	.st6{fill:#F26830;}
	.st7{fill:#B9C033;}
</style><path class="st0" d="M107.9,53c-3.6,2.8-7.1,5.6-7.8,6.3C98.4,61,67.5,69,44.8,66c-11.1-1.5-19.1-5.4-24.4-8.9  c-1.7,4.6-2.4,11.4-0.2,14c0.3,2.6,3.2,3.1,5.7,4.4c4.7,2.4,10.2-3.3,13.7-0.1c10.8,9.8,16.7,5.6,18.5,5.2c0.8-0.2,7.4-2.5,8.8-2.2  c1.6,0.4,11,2.2,12.7,1.9c4.5-0.8,27.9-9.5,29-19.4C108.8,59,108.6,54.7,107.9,53z"/><path class="st1" d="M94.4,41.1c-4.3-2.6-19.6-7.8-22.4-7.6C61.2,33,39.1,30.9,29.1,44.8c-2.3,2.5-6.5,8.7-8.8,14.7  c5.3,3.6,13.4,7.5,24.4,8.9c22.8,3,53.7-5,55.3-6.7c0.8-0.8,4.3-3.5,7.8-6.3C105.8,49.3,99.4,44.1,94.4,41.1z M71.5,57  c-6.9,3.5-15.9,2.2-23.4,0.7c-2.8-0.5-4.2-4.3-2.7-6.6c1.4-2.2,6.3-4,6.5-4.1c6-3.1,10.6-0.9,16.8-0.5C72.7,46.9,75.8,54.8,71.5,57z  "/><path class="st2" d="M94.8,82.1c-11.8,5.1-31,3.8-45.1,4c-8.9,0.1-20.9-3.1-28.4-5.5c2,2.8,6.2,6.9,8.3,8.1c5.7,3.4,12.1,5.2,18.6,6  c7.6,0.9,15.4,0.4,23-0.3c7.6-0.7,15.7-1.5,23-3.7c5.3-1.6,9.8-5.1,12.4-10c0.5-0.9,1.1-4,1.5-5.4C104.4,77.5,99.7,80,94.8,82.1z"/><path class="st3" d="M108.1,77.1c-3.7,2.2-8.3,4.7-13.2,6.8c-11.8,5.1-31,3.8-45.1,4c-8.9,0.1-20.9-3.1-28.4-5.5l0,0  c-0.8-1.1-1.2-2.3-1-3.5c1-6,8-1.1,10.8-1.1c2.1,0,11.8,0.2,13.7,1.4c4,2.6,6.8,5.1,11.8,2.8c3.4-1.6,8.7-5.8,12.1-2.8  c3.1,0.2,4.7,1.9,7.8,3c5.8,2,8.5-1.6,12.8-4.8c2.6-2,14.4-8,16.9-7.1C109.1,71.3,108.9,74.4,108.1,77.1z"/><path class="st4" d="M104.3,44.5c-0.1-0.2-0.3-0.3-0.5-0.5c-7.5-5.9-15.3-11.2-24.7-13.3c-9-2.1-18.3-1.9-27.4-0.6  c-7.9,1.1-15.8,2.9-21.8,8.4C23,45,18.7,52.7,17.3,62.1C16.5,67,15.2,73,15.9,78c0.6,4.5,3.5,8.5,6.9,11.3c7,5.9,15.4,8.2,24.3,8.9  c17.5,1.3,35,1.2,51.3-6c9.2-4.1,13-10.2,13.7-20.1C112.8,62.3,111.8,51.7,104.3,44.5z M31.7,44.6c5.2-5.5,11.3-7.4,18.6-8.7  c8.2-1.4,17-1.8,25.2-0.3c9.4,1.7,17.1,6.5,24.5,12.4c3.7,3.4,5.6,7.8,6.4,12.5c-1,1.8-1.9,3.7-2.9,5.5c-1.8,3.4-6.1,2.8-9.6,3.7  c-3.5,0.9-5.5,3-8,5.6c-2.1,2.1-4.3,4.4-7.6,3.7c-2.3-0.5-4.5-2.2-6.6-3.2c-3-1.3-6-1.8-9.1-0.6c-2,0.8-3.6,2.3-5.4,3.4  c-3.3,2.1-6.3,1.4-9.4-0.5c-3.8-2.3-6.9-5.5-11.7-5.2c-2.2,0.2-4.1,1.5-6.3,1.6c-3,0.1-5.8-2.1-7.8-4.2c0.1-0.8,0.2-1.5,0.3-2.3  C23.1,58.9,25.3,51.4,31.7,44.6z M104.7,80.9c-1.7,2.8-4.9,4.7-7.8,6c-13.3,6.3-28.1,7-42.5,6.2c-7.2-0.4-14.7-0.5-21.3-3.7  c-3.7-1.9-7.6-4.3-9.9-7.8c-0.9-1.4-1.4-2.9-1.6-4.3c2.4,1.7,5.2,2.8,8.2,2.8c3-0.1,5.4-2,8.5-1.2c3,0.8,5.4,3.4,8.2,4.9  c4.3,2.2,8.7,2.6,12.9,0.1c2.7-1.6,4.6-4.2,8.1-3.7c2.6,0.4,5,2.4,7.5,3.4c4.1,1.7,8.1,1.2,11.6-1.5c1.8-1.3,3.2-3,4.7-4.6  c2.1-2.1,4-2.5,6.9-3c3.1-0.6,6.5-1.1,8.6-3.4C106.6,74.4,106.4,78,104.7,80.9z"/><path class="st4" d="M45.3,60.2c7.6,3.7,20.3,3.4,27.8-0.5c7.2-3.7,5.3-10.7,0-14.7c-0.2-0.2-0.5-0.4-0.8-0.6  c-0.3-0.2-0.6-0.3-0.9-0.4c-6.7-2.8-16.1-3.6-22.6-0.4C42.5,46.7,37,56.1,45.3,60.2z M57.9,47.3c3.8-0.1,8.1,0.2,11.6,1.9  c2.3,1.5,4.1,3.3,0.2,6.1c-1.7,1.2-5.5,1.4-7.4,1.6c-2.3,0.2-4.6,0.3-6.9,0.1c-1.4-0.1-6.8-0.4-7.8-1.7  C43.4,49.9,54.9,47.3,57.9,47.3z"/><rect class="st5" height="8.2" transform="matrix(0.8204 -0.5717 0.5717 0.8204 -25.6965 28.3728)" width="2.5" x="31.1" y="51"/><rect class="st5" height="2.5" transform="matrix(0.7772 -0.6293 0.6293 0.7772 -32.332 49.1201)" width="8.2" x="49.1" y="69"/><rect class="st5" height="6.3" transform="matrix(0.1865 -0.9825 0.9825 0.1865 11.7302 90.3342)" width="1.9" x="59.5" y="34.9"/><rect class="st5" height="8.2" transform="matrix(0.4341 -0.9009 0.9009 0.4341 3.7737 106.1194)" width="2.5" x="85.1" y="46"/><rect class="st6" height="8.2" transform="matrix(0.4341 -0.9009 0.9009 0.4341 -9.2423 110.8399)" width="2.5" x="82.4" y="58.7"/><rect class="st6" height="8.2" transform="matrix(0.4341 -0.9009 0.9009 0.4341 -40.6253 69.2189)" width="2.5" x="33.5" y="62.8"/><rect class="st7" height="2.5" transform="matrix(0.7364 -0.6766 0.6766 0.7364 -14.2089 78.3675)" width="8.2" x="89.4" y="56.2"/><rect class="st7" height="2.5" transform="matrix(0.7364 -0.6766 0.6766 0.7364 -27.4912 65.0178)" width="8.2" x="65.6" y="66.5"/><rect class="st7" height="1.8" transform="matrix(0.7364 -0.6766 0.6766 0.7364 -7.6679 62.4765)" width="6" x="73.3" y="40.2"/><rect class="st6" height="2.2" transform="matrix(0.9086 -0.4177 0.4177 0.9086 -15.0286 20.8901)" width="7.3" x="36.6" y="43.7"/></svg>