<?xml version="1.0" ?><svg enable-background="new 0 0 386.2 521.8" version="1.1" viewBox="0 0 386.2 521.8" xml:space="preserve" xmlns="http://www.w3.org/2000/svg" xmlns:xlink="http://www.w3.org/1999/xlink"><g id="Layer_20"><path d="M311.2,249.2c-3.1-5.4-8.6-10.2-14.7-12.6c-0.9-0.6-1.8-1.1-2.7-1.5c-1.9-0.9-4-1.5-6.2-1.8   c0.5-3,1.3-6.2,1.8-9.4c-3.6,1.9-7.7,2.9-11.9,2.7c-2.2-0.1-4.1-0.6-5.7-1.4c-1.8-0.6-3.5-1.6-5-3.1c-1.8-1.8-3-4.4-3.5-7   c-4.3,4.1-10.1,5.8-15.8,2.5c-2.6-1.5-4.7-4.2-5.8-7.3c-1.5,1.4-3.4,2.5-5.5,3.1c-5.7,1.6-12.8-1.3-15.3-6.9c0-0.1-0.1-0.1-0.1-0.2   c-0.5-1.1-0.9-2.1-1.2-3.1c0,0-0.1,0-0.1,0c-0.1-0.5-0.3-0.9-0.4-1.4c-0.1-0.4-0.2-0.8-0.4-1.2c-0.4-1.3-0.5-2.6-0.5-3.9   c-1.2,0.8-2.4,1.6-3.5,2.5c-5.8,4.1-14.5,1-17.8-4.7c-1-1.6-1.5-3.3-1.7-5c-0.8-0.3-1.6-0.6-2.4-1c-0.1,0-0.1-0.1-0.2-0.1   c-3.5,4.3-8,7.6-13.7,9.1c-5.7,1.5-10.3-0.7-13.1-4.3c-0.2,0.5-0.4,1-0.5,1.5c-2.6,6.7-8.6,11-16,9.1c-4.1-1-7.8-1.9-11.5-3.9   c-2.8-1.5-4.6-3.5-5.5-5.7c-0.2,0.4-0.3,0.8-0.5,1.1c-2.5,5.1-7.2,9.4-13.2,9.6c-9.9,0.2-17.5-6.7-16.2-15.8   c-3.1,2.5-6.6,3.9-10.7,2.7c-0.9,2.3-1.6,4.6-2.2,7c-1.9,7.7-1.7,16.3-0.1,24.1c0.7,3.7,3.3,10.8,7.3,14c0,0-0.1,0.1-0.1,0.1   c0.1,0.2,0.4,0.5,0.6,0.7c0.1,0.1,0.1,0.2,0.1,0.2c0.1,0.1,0.2,0.2,0.3,0.2c0.5,0.4-0.2,1.1-0.7,0.7c-0.2-0.1-0.3-0.2-0.5-0.3   c-0.1,0-0.1,0-0.2,0c-0.6-0.2-1.2-0.2-1.8-0.3c-0.3,0-0.7-0.1-1-0.1c-4.8-0.6-10.4,1-12.7,5.4c-0.3,0.1-0.6,0.2-0.8,0.4   c-6.6,5-10,13.3-11.6,21.3c-1.6,8.4,1.9,16,7.7,22c6.2,6.4,16.4,7.9,24.9,6.8c5-0.7,11.3-2.4,15.6-5.9c4.2,6.8,14.9,6.9,22.5,6.1   c0.5-0.1,1-0.1,1.5-0.1c0-0.2,0.1-0.4,0.1-0.5c5.1-13.7,31.7-22.8,42.3-10.8c1,1.1,0.8,3.4-1,3.7c-7,1.1-14.3-0.9-21.1,0.8   c-4.7,1.2-8.9,3.1-12.5,6.1c3.4-0.4,6.7-1,9.7-2.4c0.5-0.2,0.9-0.5,1.4-0.8c5.2,5.3,12.3,6.7,19.6,6.9c5.1,0.1,11.3,0.1,16.6-1.6   c7.4,0.2,15.6-4.3,21.3-8.6c0.3-0.2,0.6-0.5,0.8-0.7c-6.7-0.9-13.7-0.7-19-0.8c-0.7,0-1.3-0.3-1.6-0.8c-1.1-0.8-1.5-2.8-0.1-3.9   c12-9.2,32.6-1.3,41.2,10.5c7,1.1,14.5-0.3,20.7-3.9c3-1.7,6-4.3,8.5-7.3c3.7,2.5,8.8,4.1,12.2,4.8c10.2,2.1,20.1,0.7,27.6-7.1   C313.9,270.2,316.4,258.2,311.2,249.2z M223.4,279.1c0.3-0.5,0.6-1,0.8-1.6c0.3,0.3,0.6,0.5,0.9,0.8   C224.4,278.4,223.8,278.7,223.4,279.1z" fill="#FF8AD5"/></g><g id="shad"><path d="M283.4,226.4c-1.1,0.3-2.3,0.5-3.5,0.4c-0.4,1.3-0.9,2.6-1.4,3.8c-0.9,2.3-1.9,4.8-3.2,6.9   c-1.3,2.2-2.6,2.6-3.1,5.5c-0.1,0.6,0.2,1.1,0.8,1.1c3,0.1,4.5,0.1,7-1.8c2.2-1.8,3.8-4.8,4.6-7.5c0.8-3.1,1.3-6.3,1.4-9.4   C285.2,225.8,284.3,226.1,283.4,226.4z" fill="#231F20" opacity="0.6"/><path d="M205.3,285.2c-5.3,1.7-10.6,2.3-16,3.5c-2.6-1.3-6.1-1.2-8.9-1.3c-2-0.1-3.7-0.3-5.2-0.9   c-4.9-0.1-9.9-0.7-14.7,0.5c-4.8,1.2-9.1,3.3-12.7,6.4c2.9-0.5,5.6-1.6,7.6-3.8c0.2-0.2,0.4-0.5,0.5-0.8c1.4,2.2,3.8,3.8,6.5,3.1   c3,2.3,6.7,3.8,10.4,4.6c2.1,0.4,4.3,0.3,6.4,0.2c1.2-0.1,2.4-0.1,3.5-0.1c0.6,0,3.1,0.4,2.5-0.2c1.1,1.1,2.7,1.5,4.2,1.1   c8-2.3,16.2-5.8,23.6-9.5c1.1-0.6,2.5-1.3,3.9-2.1C213.1,285.4,209,285.2,205.3,285.2z" fill="#231F20" opacity="0.6"/><path d="M312.6,265.6c-0.1-0.6-0.8-0.7-1.2-0.3c-4,3.5-7.9,5.8-13.2,7.1c-2.7,0.7-12.1,0.9-13.9-1.8   c-0.5-0.8-1.3-1.4-2.2-1.7c0.2-2.8,0-5.6-0.7-8.3c-0.4-1.6-2.3-2.8-3.8-2.2c-0.1,0-0.1,0.1-0.2,0.1c0-0.2-0.1-0.3-0.1-0.5   c-0.2-1-1.2-0.9-1.6-1.6c-1-1.5-2.8-2-3.6-3.4c-0.2-0.4-0.9-0.2-0.9,0.2c0.1,1.1,0,2.6,1.2,3.2c0.4,0.2,0.8,1.5,1.3,2.4   c-0.2,1-0.3,2-0.2,3c0.1,1,0.6,1.8,1.4,2.2c-0.2,1.5-0.2,3-0.1,4.5c0-0.1,0-0.2-0.1-0.3c-0.4-1.3-1.9-2.1-3.2-1.3   c-2.1,1.3-3.4,3.4-5.5,4.8c-2.7,1.8-5.8,2.6-8.9,3.5c-5.2,1.4-9-0.6-14.1-0.5c-0.8-0.1-1.2,0-1.1,0.1c-0.3-0.2-0.7-0.3-1-0.5   c-0.7-0.3-1.3-0.5-2-0.7c-1.2-1.2-2.6-2-4.3-2.3c-0.1-0.2-0.2-0.3-0.3-0.5c0.6,0.7-0.5-2.8-0.7-3.4c-1-3.4-3.8-6.1-6.4-8.3   c-0.7-0.6-1.9,0.2-1.4,1c1.8,3.1,0.2,6.4-0.2,9.6c0,0.2,0,0.5,0,0.7c-0.1,0-0.1,0.1-0.2,0.1c-2,2-3.6,4.5-5.6,6.6   c-0.1,0.1-0.2,0.2-0.3,0.3c7.6,2.3,14.6,7.2,18.9,13c2.2,0.4,4.4,0.5,6.7,0.1c4-0.7,7.6-2.2,11.3-4c2.9-1.4,6.4-2.7,7.5-5.9   c1.9-0.9,4.1-2.1,6-3.4c-0.8,1.9,1.5,3.6,3.3,3.3c0.2,0,0.4-0.1,0.6-0.1c3.8,4.2,10.4,5.4,15.8,4.1c6-1.5,14.9-4.2,18.3-9.7   c0.4-0.6,0.3-1.3,0-1.8C310.9,271.5,313.3,269,312.6,265.6z" fill="#231F20" opacity="0.6"/><path d="M261.8,237.9c-3.7,0.3-7.1,1.6-10.7,2.1c-4.3,0.5-8.7,0.2-13-0.1c-3.7-0.3-7.5-0.7-11.2-1   c-4.1-0.3-7.9-1.3-12-1.8c-7.9-0.9-15.2,3.3-22.9,4.3c-4.2,0.5-7.1-0.6-11.1-1c-1.7-0.2-3.2,0.1-4.7,0.6c-1.9-2.3-5.8-3.5-8.3-4.7   c-1.6-0.8-3.8-0.4-4.6,1.3c-0.5,0.3-0.9,0.9-1.1,1.6c-0.1,0.3-0.1,0.6-0.1,0.9c-3.1,0.2-6.3,0.7-9.4,0.8c-1.2,0-2.4,0-3.6-0.2   c-1.3-0.5-2.6-1-3.8-1.3c-3.3-0.9-6.4-2.5-9.3-4.3c0,0,0,0,0,0c-0.2-0.1-0.4-0.2-0.6-0.3c-1.9-0.8-3.1,0.7-3.3,2.3   c-0.4-0.1-0.9-0.2-1.3-0.2c-2.6-0.4-4.3-2.5-6.8-3.3c-2.4-0.9-5.4-1.5-7.9-1.6c-2.5-0.1-5.5-0.1-8.2,0.5c-0.3-0.4-0.6-0.9-0.9-1.3   c0,0,0,0,0,0c1.9-1.6,1-4.3-0.7-5.5c-2.2-1.6-2.6-6.3-3.2-8.8c-0.5-1.9-0.8-3.8-1.3-5.6c0.4-0.6,0.6-1.3,0.6-2.1   c0-2.4-0.1-4.8-0.1-7.2c1.4-0.5,2.4-1.6,2.3-3.3c-1.9-2.6-2.8-5.9-2.2-9.6c-3.1,2.5-6.7,4-10.8,2.7c0,0,0,0-0.1,0   c-2.8,7.9-4.3,16.3-3.3,24.7c1.1,9.6,5.9,17.1,11.9,24.1c-5.1-1.7-9.4-3.8-15.2-1.1c-5.4,2.5-9.3,7.2-11.4,12.7   c-0.4,1-0.6,1.9-0.9,2.9c-0.2,0.3-0.3,0.5-0.5,0.8c-0.1,0.1-0.1,0.2-0.1,0.4c-1,0.1-1.9,0.7-2.2,1.9c-3.6,10.2-0.9,23.4,7.3,30.7   c9.8,8.6,25.8,7.8,35.9,0.4c0.8-0.6,1.8-1.8,2.4-3.1c3.6,3.3,8.9,4.7,14.6,5.2c2.8,1.1,5.9,1.7,9.4,2.2c0.3,0,0.6,0.1,1,0.1   c0-0.1,0-0.1,0-0.2c3-8,13.2-14.4,23.4-16c-0.1-0.3-0.2-0.7-0.2-1c-0.3-2.8-2.1-4.9-4.7-5.2c-0.7-4,0.9-9.1,2.4-12.3   c0-0.1,0-0.1-0.1-0.1c-2.3,1.3-4.1,2.8-5.6,5c-2.2,3.1-2.2,7-3.8,10.2c-1,1.9-0.7,4.4,0.8,5.8c-1.6,0.1-3.2,0.3-4.8,0.8   c-2.8,0.8-6-0.3-8.7-1.1c-2.2-0.7-4.6-2.1-7-2.1c-0.4,0-0.8,0.1-1.2,0.2c-1.8-2.9-4.5-5.4-6.8-7.7c-1.8-1.8-1.5-4.2-4.2-5.2   c-0.5-0.2-1-0.3-1.4-0.4c0.2-2.5,2.1-5.7,3.4-8.4c2.4-2.2,5.4-3.7,7.8-6c0.1-0.1,0.1-0.2,0.2-0.2c3.1,0.6,6.2,1,9.3,1.8   c7.1,1.9,13.6,2.5,20.9,1.7c1.6-0.2,3.3-0.4,4.9-0.5c0.8-0.1,1.6,1.2,2.8,1.8c3.4,1.6,6.6,1.9,10.1,0.5c1.8-0.7,0.6-1,2.5-0.4   c2,0.7,3.7,1.3,5.9,1.5c3.4,0.4,6.8,0.2,10.2-0.1c4.2-0.3,7.9-1.2,11.8-2.6c3.9-1.3,7-0.6,11.1-0.6c3.6,0,7.1-0.7,10.7-0.9   c4.3-0.2,8.6-0.2,12.9-0.6c7-0.5,16.5-1.7,21.2-7.5C265.8,241.5,265,237.6,261.8,237.9z M87.9,269.8c-0.4-0.9-0.5-1.9-0.2-2.9   c0.2,0.8,0.5,1.7,0.5,2.4C88,269.4,88,269.6,87.9,269.8z M110.5,252.6c-0.7,0.4-1.4,1-1.9,1.9c-0.8,1.6-1.5,3.2-2,4.9   c-0.6,1.3-0.6,1.7,0.2,1c-0.7,0.7-1.1,1.6-1.5,2.5c-1.2,2.6-1.5,5.2-0.8,7.8c-0.5,1.6-0.7,3.2-0.5,4.7c-0.1,0-0.2,0-0.3,0.1   c-0.4,0.2-0.7,0.5-1,0.9c-0.1-1.3-0.5-2.6-1.5-3c-0.1-0.1-0.2-0.2-0.3-0.3c-0.9-0.5-1.8-0.8-2.9-1c-1.9-0.4-1.4-2.1-1.4-3.9   c0-1.5-1.7-2.1-2.8-1.2c-0.6,0.5-1.1,0.9-1.7,1.4c-0.5-1.3-1-2.6-1.5-3.9c-0.6-1.6,1-5.2,1.5-6.9c0.3-0.9-0.2-1.6-0.9-2   c0.2-0.2,0.4-0.3,0.6-0.5c1.5,0.4,3.1,0.1,4.3-1.4c0.5-0.6,1.1-1.2,1.6-1.7c1.8-0.4,3.5-1.1,4.8-2c0.9-0.3,1.6-0.7,2.4-1.1   c1.1,0.5,2.3,0.5,3.4,0.1c1.2,1,2.8,1.5,4.2,1c0.3-0.1,0.5-0.2,0.8-0.3C112.5,250.7,111.5,251.6,110.5,252.6z" fill="#231F20" opacity="0.6"/><path d="M122.3,226.3c-1.6-3.3-4-5.8-5.3-9.3c-0.5-1.4-1.6-2.1-2.8-2.1c0-0.6-0.1-1.1,0-1.7   c0-0.9-0.5-1.6-1.3-1.9c-0.1-1.2-0.3-2.4-0.7-3.6c0-0.1-0.2-0.1-0.2-0.1c-1.4,1.7-1.8,3.9-2.8,5.8c-0.4,0.8-0.2,1.7,0.3,2.2   c-0.1,0.7-0.2,1.5-0.4,2.2c-0.6,2.1,1.3,3.7,3.2,3.4c1.7,4.1,4.3,8.2,9.3,6.9C122.4,228,122.6,227.1,122.3,226.3z" fill="#231F20" opacity="0.6"/><path d="M155.7,226.2c-2.7-1.7-5.8-1.7-8.9-2.2c-1.5-0.3-6.7-0.3-7.2-2.2c-0.7-2.6-3.3-3.3-5.4-2.5   c-0.2-0.3-0.4-0.6-0.6-1c-0.9-1.6-3-2-4.4-1.2c-0.9-1-1.5-2.3-2.1-3.5c-0.4-0.9-1.6-0.5-1.8,0.2c-1.6,4.3-0.5,7.7,3.2,10.4   c0.4,0.3,0.8,0.4,1.2,0.5c0.6,0.8,1.2,1.6,1.8,2.4c0.6,0.7,1.6,1.1,2.7,1.1c4.8,5.7,15.6,7.9,21.6,4.5   C158.3,231.3,158.1,227.7,155.7,226.2z" fill="#231F20" opacity="0.6"/><path d="M118.5,204.8c0.4,0.4,0.9,0.8,1.4,1.1c1.4,0.9,2.7-0.6,2.4-1.9   C121.2,204.5,119.9,204.7,118.5,204.8z" fill="#231F20" opacity="0.6"/><path d="M142.1,206.2c-0.5-1.4-1.9-2.3-3.3-3c-0.1-0.5-0.3-0.9-0.5-1.3c-0.4-0.8-1.2-1-1.9-0.9   c-0.2-0.5-0.9-0.7-1.2-0.1c-0.5,0.9-1,1.7-1.3,2.6c-0.1,0.2-0.2,0.5-0.3,0.8c-0.3,1.2,0.2,2.3,1.2,3c0.8,0.5,1.6,1.1,2.3,1.7   c1.1,0.9,2.7,0.9,3.9,0.2C142.4,208.7,143.3,207.1,142.1,206.2z" fill="#231F20" opacity="0.6"/><path d="M260.6,218.4c-3,1.4-3,1.3-5.4,1.6c-0.7,1.9-1.4,3.6-3.6,4.3c-1.3,0.4-2,2-3,2.8   c-1.4,1-3.1,1.2-4.7,1.1c-1,0-1.9,1.1-1.5,2c-0.4-0.1-0.7-0.3-1.1-0.5c-0.7-0.4-1.2,0.6-0.6,1c0.8,0.6,1.5,1.1,2.3,1.5   c0.4,0.2,0.8,0.1,1.1-0.1c0.4-0.3,0.6-0.4,0.7-0.6c1.1,0.1,2.2,0,3.4-0.2c2.2-0.4,3.6-2.3,5.7-2.5c3.9-0.3,6.8-4.7,7.7-8.2   c0.3-1.1,0.1-2-0.4-2.7C261,218.2,260.8,218.3,260.6,218.4z" fill="#231F20" opacity="0.6"/><path d="M271.1,227.8c-2.3,0.2-3.4,1.8-5.3,2.8c-0.6,0.3-2.9,1.2-2.6,2.3c0.4,1.8,2.8,1.7,4.2,1.4   c2.3-0.5,5.1-1.5,5.7-4C273.3,229.1,272.5,227.6,271.1,227.8z" fill="#231F20" opacity="0.6"/><path d="M179.3,224.5c-1.1-2.1-4-2.9-6.5-3c-0.4-0.9-1.4-1.6-2.4-1.2c-0.2,0.1-0.4,0.2-0.5,0.2   c-0.2-0.3-0.5-0.7-0.8-1c-0.5-0.6-1.6-0.1-1.6,0.7c0,0.8-0.1,1.7,0,2.5c0.1,0.7,0.4,1.3,1.1,1.6c0,0.1,0,0.2,0,0.3   c0.2,0.8,0.9,1.5,1.7,1.7c1.1,0.2,2.2,0.3,3.3,0.5c1.1,0.3,1.8,1,2.9,1.3C178.6,228.7,180.4,226.5,179.3,224.5z" fill="#231F20" opacity="0.6"/><path d="M226.7,216.3c-1.1,0.8-2.1,2-3.3,2.7c-1.4,0.8-2.7,0.9-4.2,1.2c-0.6,0.1-1.2,0.7-1.3,1.3   c-0.2,1.1-0.9,0.8-1.4,0.7c-0.2,0-0.4,0.3-0.2,0.4c0.5,0.2,0.9,0.6,1.1,1.1c0.2,0.3,0.6,0.5,0.9,0.4c1-0.4,2.3,0.3,3.4,0.5   c1.4,0.2,2.7,0.3,4.2,0.1c3.1-0.5,5.2-2.6,5.4-5.7C231.2,216.7,228.5,214.9,226.7,216.3z" fill="#231F20" opacity="0.6"/><path d="M188.9,276.3c-1.5-0.4-3-0.9-4.6-1c-1.4-0.1-1.9-1.7-3.5-1.7c-4.1,0-7.1-1.1-7.6-5.9   c0-0.1-0.1-0.2-0.2-0.1c-2.4,2.2-2.1,5.4,0.6,7.2c1.1,0.8,2,1.7,3.4,1.8c0.8,0.1,1.6,0.2,2.4,0.3c0.2,1.6,1.4,3.1,2.9,3.8   c2.7,1.3,5.5,0.3,7.4-1.8C190.3,278,190.1,276.6,188.9,276.3z" fill="#231F20" opacity="0.6"/><path d="M212.5,265c-0.2-0.1-0.5-0.1-0.7,0c-1.5,1.1-1.8,2.3-3.8,2.9c-1.8,0.5-3.5,0.9-4.9,2.1   c-0.3-0.2-0.5-0.3-0.9-0.5c-1-0.3-1.9-0.1-2.9,0c-1.1,0.1-2.2,0.4-2.8,1.3c-0.1,0.1,0,0.3,0.2,0.3c2.4-0.2,4.3,0.9,6.4,1.6   c0.8,0.3,1.5-0.6,2.2-0.9c1-0.4,2.1-0.4,3.2-0.5c1.8-0.2,3.4-0.5,4.6-2C214.2,268,214.1,266,212.5,265z" fill="#231F20" opacity="0.6"/><path d="M185.4,265.5c-1.2-0.9-2-1-2.2-2.7c-0.1-0.7-0.5-1.3-1.1-1.4c0-0.1,0.1-0.2,0.1-0.3   c0.1-0.4-0.3-0.8-0.7-0.7c-0.6,0.2-1.4,0.4-1.9,0.9c-0.6,0.6-0.9,1.4-1.2,2.2c-0.5,1.1,0.8,1.9,1.7,1.7c0.1,0,0.2-0.1,0.3-0.1   c0.2,0.8,0.6,1.5,1.3,2.1c0.8,0.8,2.8,2.1,4,1.8c0.8-0.2,1-0.8,1.1-1.5C187,266.5,186,265.9,185.4,265.5z" fill="#231F20" opacity="0.6"/><path d="M140.5,267.6c-1.1,0.3-0.9,0.4-1.6-0.6c-0.5-0.7-1.1-1.3-1.7-1.8c-0.9-0.7-1.9-1.2-3-1.5   c0-0.2,0-0.3-0.1-0.5c-0.1-0.3-0.3-0.6-0.5-0.9c0.8-1.3,1.7-2.9,0-3.8c-2.5-1.5-4.2,1.8-4.7,3.7c-0.3,0.9,0.2,1.8,1,2.3   c0.1,0.1,0.2,0.1,0.3,0.2c-0.3,1.2,0.6,2.2,1.7,2.3c2.3,0.1,4.2,0.9,5.7,2.7c0.5,0.7,1.3,0.8,2,0.3c0.6-0.5,0.9-1,1.4-1.5   C141.4,268.1,141,267.4,140.5,267.6z" fill="#231F20" opacity="0.6"/><path d="M149.6,261.5c-0.7-0.7-1.4-0.8-2.3-0.6c-0.2-0.1-0.5-0.3-0.6-0.4c-0.6-0.3-1.4-0.3-1.8,0.2   c-0.3,0.4-1.4,0.2-1.9,0.3c-0.2,0-0.2,0.2-0.2,0.4c0.4,0.9,0.9,1.3,1.7,1.5c0.2,0.7,0.7,1.2,1.4,1.5c1.4,0.6,3,0.6,4-0.8   C150.3,263,150.1,262.1,149.6,261.5z" fill="#231F20" opacity="0.6"/><path d="M245.2,263.5c-0.8-1.6-2.3-2-3.8-2.7c-0.3-0.6-0.7-1-1-1.6c-0.2-0.4-0.7-0.7-1.2-0.7   c0,0-0.2-0.4-0.4-0.7c-0.1-0.1-0.2-0.1-0.2,0c-0.5,0.8-0.9,1.2-0.8,2c-0.2,0.7-0.3,1.3-0.2,2.1c0.2,1.4,0.5,1.8,1.6,2.6   c1.6,1.2,3.6,2.1,5.5,0.8C245.4,264.9,245.6,264.2,245.2,263.5z" fill="#231F20" opacity="0.6"/><path d="M263.2,265c-0.1-0.3-0.4-0.6-0.8-0.6c-1.5,0.1-2.5,1.5-3.8,2.2c-1.3,0.7-2.7,1.2-3.9,2   c-0.6-0.4-1.2-0.8-2-0.6c-0.1,0-0.1,0.2-0.1,0.2c0.5,0.5,1,1.3,1.4,1.9c0.2,0.3,0.7,0.3,1,0.1c1.8-0.8,3.7-0.8,5.5-1.4   C262.1,268.3,263.9,266.7,263.2,265z" fill="#231F20" opacity="0.6"/><path d="M299.3,267.2c-1-2.4-3.8-2.2-6-2.1c-0.9,0-1.8-0.2-2.5,0.5c-0.5,0.5-1.6,0.3-2.3,0.3   c-0.3,0-0.5,0.4-0.2,0.6c0.5,0.4,0.9,0.9,1.4,1.3c0.7,0.5,1.9,0.6,2.6,0.9c1.9,0.8,4.9,1.7,6.5,0.1   C299.2,268.4,299.5,267.7,299.3,267.2z" fill="#231F20" opacity="0.6"/><path d="M304.3,256.3c-0.2-0.6-0.6-1-1.2-1.2c-0.3-0.1-0.6-0.1-0.9,0c-0.4,0.2-0.5,0.2-0.3,0.1   c-0.2,0.1-0.4,0.1-0.6,0.2c-0.3,0.1-0.6,0.2-0.8,0.4c-0.1-0.1-0.1-0.2-0.2-0.3c-0.6-0.8-1.8-0.3-1.6,0.7c0.2,1,0.1,2,0.4,3.1   c0.3,1.2,2.1,1.5,2.7,0.3c0.1-0.3,0.3-0.5,0.4-0.6c0,0,0,0,0,0c0.1,0,0.2-0.1,0.3-0.1c0.4-0.3,0.9-0.6,1.3-1   C304.3,257.6,304.5,256.9,304.3,256.3z" fill="#231F20" opacity="0.6"/></g><g id="light"/><g id="a"/><g id="a_shad"/><g id="a_light"/><g id="b"><path d="M231.1,157.9c-0.1-2.2-3.2-4-5-1.9c-0.3-0.1-0.6-0.2-1-0.2c-2.8-0.2-5.5,0.3-8.3,0.2   c-2.8-0.2-5.1-2.5-6.8-4.4c-0.3-0.3-0.6-0.5-0.8-0.7c-0.1-1.2-0.9-2.3-2.2-2.2c-2.7,0.3-4.5,2.2-7.1,2.9c-2.9,0.9-6.1,0.3-8.9-0.5   c-3.3-0.8-6.2-2.6-9.2-4c-1.2-3.4-2.9-6.6-5.2-9.4c-1.5-1.7-4-0.6-4.7,1.2c-0.3,0.9-0.8,1.7-1.4,2.5c-2.5,0-5,0.7-7.6,0.6   c-1.3-0.1-2.5-0.4-3.7-0.9c-2.5-1.9-4.9-3.8-7.2-5.9c-0.7-0.7-1.5-1-2.3-1.1c-0.9-2.7-1.4-5.6-1-8.8c0.2-1.9-1.5-3.9-3.3-4.3   c-2-0.5-4-0.8-6-1.2c-1.1-2.9-2.5-5.7-3.8-8.6c-1.1-2.7-1.2-5.5-1.8-8.2c0.9-2,2.2-3.8,3.8-5.5c0.7-0.7,1.1-1.5,1.3-2.3   c0.3-0.1,0.5-0.3,0.8-0.4c3.3-1.8,6.6-4,10.4-4.2c3.5-0.2,4.6-5.6,0.9-6.4c-8.1-1.6-18,2.7-25.2,6c-5.1,2.3-9.6,5.7-13.5,9.7   c-1,1-2.2,2.4-3.2,4c-0.7,0.1-1.5,0.3-2.2,0.8c-5.6,3.6-11.5,7.2-13.2,14c-0.2,0.8-0.2,1.6,0,2.4c-5.5,8.3-4.8,17.1-2.5,25.9   c-1.5,1.4-2.2,3.7-0.9,6.1c0.8,1.5,1.7,3.1,2.6,4.6c0.2,0.4,0.4,0.9,0.6,1.3c-3.3,2-5.8,4.5-8.3,8.5c-2.6,4.2-3.7,9.5-0.8,13.3   c0.1,0.5,0.2,1,0.3,1.5c-0.3,0.7-0.3,1.4-0.2,2.1c1.8,7.9,8.7,8.9,15.3,6c0.7-0.3,1.5-0.7,2.3-1.2c0,10.6,11.4,20,22,14.4   c3.5-1.8,6.1-5,7.7-8.8c0.6,1.4,1.6,2.6,2.9,3.6c2.1,1.7,5.4,3.3,8.4,3.1c4.5,2.1,9.8,2.4,15.1-0.7c3.6-2,6-4.9,7.4-8.1   c5.7,9.9,19,4.8,25.5-2.7c0.5-0.5,0.9-1.1,1.2-1.7c7.2,7.3,20.3,2.3,27.2-3.6c4.4-3.7,5.4-9.1,3.7-14.3c1.6,0.4,3.5-0.3,4.4-1.8   c1.9-3.1,3.2-6.9,3.4-10.5C231.1,158.2,231.1,158.1,231.1,157.9C231.1,157.9,231.1,157.9,231.1,157.9L231.1,157.9z" fill="#F7EFA4"/></g><g id="b_shad"><path d="M230.5,157.3c0-0.1,0.1-0.3,0.1-0.4c0.1-0.5-0.1-1.1-0.7-1.2c-1.8-0.3-3,0.4-4.7,1   c-2.7,0.9-4.9,0.3-7.6,0.1c-3.1-0.2-5.2-2-7.3-3.9c-0.3-1.5-1.6-2.5-3-2.6c-0.1,0-0.1-0.1-0.2-0.1c-0.4-0.3-0.8,0-1,0.3   c-0.5,0.1-0.9,0.4-1.3,0.8c-3.7,3.5-9.7,2.3-14.2,1.3c-6.6-1.5-10.6-7.3-14.3-12.5c0-0.5-0.4-1-0.8-1.2c0,0-0.1-0.1-0.1-0.1   c-0.8-1.1-2.5-1-2.9,0.4c-0.1,0.2-0.1,0.3-0.1,0.5c-2,1.1-3.7,2.4-6.4,2.5c-3.8,0.1-7.4-2.1-10.7-3.9c-3-1.7-5.1-3.2-7-6.1   c-1.1-1.6-1.6-3.6-2.1-5.6c0.9-1.2,0.8-2.6,0.1-3.8c-0.5-1.2-1.4-2.2-2.8-2.5c-1.8-0.4-3.2-1-4.3-2.6c-0.7-0.9-1.1-2-1.7-3   c-0.6-1.1-1.6-2-2.1-3.2c-0.4-1-1.9-0.6-2.1,0.3c-0.4,1.5-1.2,2.8-1.2,4.4c0,1.8,0.3,3.6,0.9,5.3c1.2,3.3,3.8,6.2,7.3,7.1   c-0.8,6.7,4.7,13.2,10.9,16.7c4.4,2.5,10.6,4.3,15.6,3.3c1.8-0.4,3.8-1.1,5.4-2.2c1.7,7.3,8.9,13.7,15.9,15.4   c5.6,1.4,14.9,1.8,19.5-2.6c1.8,2.1,4.4,3.7,7,4.4c0.2,0.1,0.5,0.1,0.8,0.2c-1,2.7-0.1,5,0.9,7.8c1.6,4.2,0,7.9-3.8,9.7   c-3.5,1.6-7.2,2.9-10.9,3.7c-1.6,0.4-3.3,0.8-5,0.5c-1.9-0.3-4.1-2.4-5.8-3.3c-0.3-0.1-0.6-0.2-0.8-0.1c-1-0.1-2.1,0.1-2.8,0.8   c-3.7,3.4-5.8,8-11.4,8.7c-4.5,0.6-8.2-3-10.2-6.7c-0.3-0.5-1-0.4-1.2,0.2c-0.3,1.3-0.5,2.6-0.5,3.7c-0.6,0.1-1.1,0.4-1.5,1   c-3.8,5.7-10,6.6-16.5,5.6c-6-0.9-11.6-4.6-11.9-11.2c0-1-1.2-1.2-1.7-0.5c-2.4,3.1-2.6,6.1-1.6,8.8c-0.1,0-0.2,0-0.4,0   c-3,1.7-4.6,4.4-8.1,5.4c-3.1,0.8-6,0.6-8.9-0.8c-2.4-1.3-4.3-3.3-4.9-6c-0.9-3.4,0.8-6.8,1.3-10.1c0-0.3-0.2-0.6-0.5-0.5   c-3.1,0.5-5.3,2.4-6.6,5c-0.7-0.5-1.6-0.8-2.7-0.6c-5.8,1.3-11.5-5-10.7-10.6c0.5-3.3,2.2-6.1,3.3-9.2c0.4-1.1,1.3-2.7,0.3-3.7   c-3.3-3.4-8.8,7.6-9.4,9c-1.9,4.1-2.1,8-0.4,12.2c3,7.2,11,11.9,18.3,8.9c0.1,4.8,4.1,9,7.9,11.4c3.9,2.5,9.8,3.6,14.2,1.9   c4.1-1.6,8.6-6.4,7.9-11c2.1,4.2,7.1,7.5,11.8,8.8c7.9,2.3,18.7-0.4,22.5-8.2c5.2,7.2,21.6,4.6,26.1-5c1.6,1.6,3.8,2.6,6.3,2.7   c1.7,0.1,3.2-0.2,4.6-0.7c0.3,0.2,0.8,0.3,1.3,0.3c2.4-0.3,6.1-0.5,8.2-2c1.4-1.1,2.6-2.2,3.5-3.6c4.7-0.9,7.1-3.6,8.4-8.5   c0.5-2.2,0.5-4.6-0.1-7c1,0.1,2.2-0.2,2.9-0.9c2.3-2.3,3.9-5.8,4.4-9C231.4,159,231.1,158,230.5,157.3z" fill="#E8D982"/><path d="M127.9,171.8c-2.8-2.3-6.1-2.5-9.5-3.3c-3.4-0.9-7.4-2.9-9.6-5.7c-2.2-2.7-2.9-6.1-4.3-9.2   c-1.5-3.5-3.2-6.8-4.2-10.5c-0.9-3.5,0.3-7.2,0.1-10.8c-0.3-4.3-1-7.2,0.9-11.4c1.5-3.3,3.5-6.4,4.9-9.8c1.9-4.5,5.9-8.3,9.1-12   c0.4-0.5-0.1-1.3-0.7-0.9c-7.8,4.4-15.2,11.3-20.6,18.5c-3,3.9-4.1,8.2-4.2,13c-0.1,4.8-0.8,10.1,0.1,14.8c0.8,4.7,3,8.9,4.8,13.3   c1.8,4.3,2.8,8.1,6.3,11.4c2.7,2.5,7,3.6,10.5,3.9c5,0.5,11,2.1,15.8,1C128.2,173.8,128.6,172.4,127.9,171.8z" fill="#E8D982"/><path d="M131,164.1c-0.6-0.4-1.1-0.6-1.4-1.3c-0.3-0.7-0.8-1.1-1.5-1.1c-3.2-0.2-6.8,0.3-9.5-1.7   c-1.2-0.9-3.1,0.6-2.5,1.9c1.8,4.5,7.3,3.4,11.3,2.9c0.9,1.1,1.9,1,3.5,0.5C131.5,165.2,131.5,164.4,131,164.1z" fill="#E8D982"/><path d="M119.1,153.2c-1-1.9-4.1-1.7-6.2-2c0.1-0.5,0.3-1,0.4-1.5c0.1-0.2-0.2-0.4-0.4-0.2c-0.5,0.6-1,1.2-1.5,1.8   c-0.3,0.4-0.3,0.9,0.2,1.2c1.1,0.8,2.1,1.8,3.4,2.3c0.7,0.3,1.3,0.5,2,0.7c0.8,0.2,1.4-0.3,1.9-0.5   C119.7,154.7,119.7,153.8,119.1,153.2z" fill="#E8D982"/><path d="M141.2,170.2c-0.1,0-0.1,0-0.2,0c-0.7-0.4-1.5-0.2-2.4-0.3c-0.5-0.1-1-0.3-1.5-0.5c-0.6-0.3-1-0.2-1.4-0.4   c-0.4-0.2-0.9,0.1-0.8,0.6c0,0,0.1,0.8,0.2,0.4c-0.1,0.4,0,0.9,0.3,1.1c1.4,1.1,3,1.7,4.8,1.7c0.5,0,1-0.3,1.3-0.7c0,0,0,0.1,0,0.1   C142.2,171.8,142.1,170.4,141.2,170.2z" fill="#E8D982"/><path d="M117.3,177.7c-0.4-0.4-0.9-0.8-1.6-0.8c-0.6,0-1.3,0.4-1.8,0.8c-0.5,0.3-1,0.7-1.3,1.2   c-0.2,0.3-0.3,0.8-0.2,1.2c0.1,0.2,0.2,0.4,0.3,0.6c-0.2-0.1,0,0.1,0,0.2c0,0.1,0.1,0.1,0.2,0.1c0.1,0,0.1,0,0.2,0   c0.9,0.3,1.5-0.4,2.1-0.6c0.5-0.2,1.1-0.2,1.4-0.6c0.3-0.4,0.5-0.8,0.7-1.2C117.6,178.2,117.5,177.8,117.3,177.7z" fill="#E8D982"/><path d="M120.9,190.5c-0.3-0.6-0.6-1.1-1.3-1.4c-0.5-0.2-0.9-0.6-1.1-1c-0.2-0.4-0.4-0.7-0.4-1.2   c0-0.6-0.2-1.1-0.2-1.7c0-0.3-0.2-0.4-0.5-0.4c-2.2,0.3-2.7,2.6-2.2,4.5c0.2,1,1.2,1.9,2,2.5c1.1,0.8,2.3,1,3.4,0.2   C121,191.7,121.2,191.1,120.9,190.5z" fill="#E8D982"/><path d="M145.4,184.1c-0.6-0.4-1.2-0.8-1.8-1.1c-0.3-0.2-0.4-0.6-0.5-1.1c-0.1-0.8-1-1.1-1.7-1.1   c-0.2-0.2-0.4-0.3-0.7-0.3c-1,0.4-1.5,1-1.6,2.1c-0.1,0.6,0.5,1.2,1,1.3c0,0,0.1,0,0.1,0c0.2,0.6,0.4,1.1,0.8,1.6   c0.8,0.9,1.8,1.4,2.9,1.8c0.7,0.3,1.6-0.2,2-0.8C146.5,185.7,146.1,184.7,145.4,184.1z" fill="#E8D982"/><path d="M97.1,174.4c-0.1-0.3-0.2-0.6-0.4-0.8c-0.3-0.4-0.7-0.4-1,0c-0.3,0.4-0.5,0.5-0.8,0.8c-0.6,0.5-0.5,1.5,0,2   c0.7,0.7,1.3,1.5,2.2,2c0.9,0.5,2.1,1,2.9,0C101.3,176.7,98.7,175.1,97.1,174.4z" fill="#E8D982"/><path d="M154.2,157c-0.5,0.1-1.2,0.1-1.8,0.2c-0.8,0.2-1.6,0.8-2.3,1.1c-1.4,0.6-3.6,1.3-4.8,0.2   c-0.8-0.7-2.1,0.2-1.5,1.1c1.1,1.8,3.2,2.4,5.2,2.2c1.3-0.1,2.7-0.4,3.9-0.9c1.4-0.5,1.7-1.3,2.5-2.4   C156,157.8,155.1,156.8,154.2,157z" fill="#E8D982"/></g><g id="c"><path d="M276.5,121.7c2.8-3.7,4.6-8,5.2-12.6c0.5-0.8,1-1.7,1.5-2.8c1.5-3.6,1.6-7.2,0.4-10.4   c-1.7-10.6-5-20.8-10.8-29.8c-3.3-5.1-8.3-10-14.1-12.7c-2.9-4.1-6.8-7.5-10.8-10.2c-10.2-6.7-24.5-6.5-36.2-5.6   c-12.9,0.9-25.6,2.8-37.4,8.2c-7.9,3.6-18,13.1-17.6,22.6c-1.6,3.9-2.8,7.9-3.4,11.8c-0.4,2.6-0.4,6.6,0.4,10.5   c-0.2-0.1-0.5-0.2-0.7-0.2c-5.1-1-9.4,2.1-12.6,5.7c-3.4,3.8-7.1,9.2-5.7,14.5c1.7,6,6.1,9.4,12.2,10c1,0.1,2.1,0,3.3-0.2   c0,0.1,0,0.2,0,0.3c-0.1,0.2-0.2,0.4-0.2,0.5c-0.7,1.4-1.2,2.9-1.2,4.5c-0.1,3.2,1,5.7,2.8,8.3c3.4,4.9,7.8,8.3,13.9,8.4   c5.2,0.1,9.2-2.8,12.1-6.8c0.6,13.5,18.6,21.6,29.3,12.8c0.1-0.1,0.2-0.2,0.3-0.3c0.1,0.3,0.3,0.5,0.5,0.8c2.4,3.4,5.4,5.6,8.7,6.7   c0.1,0,0.1,0,0.2,0.1c0.2,0,0.3,0.1,0.5,0.1c0.1,0,0.3,0.1,0.4,0.1c0,0,0.1,0,0.1,0c5.7,1.4,12-0.4,17.3-4.3c3.7,11.6,21,11,29.7,6   c4.3-2.5,7-6.4,7.9-10.9c0.4,0,0.9,0,1.3,0c5.2-0.7,10.2-6.9,10.1-12.1C283.6,128.7,280.6,124.8,276.5,121.7z" fill="#8A5D3B"/></g><g id="c_shad"><path d="M282.6,135.2c-0.9-2.1-4-2.1-5.4-0.7c-1.5,1.4-1.9,3.3-4.1,3.5c-1.6,0.2-2.5-0.4-3.9-0.9   c-4-1.6-7,6.1-7.8,8.5c-1.7,5.1-9.4,5-13.8,4.3c-2.4-0.4-4.9-1.2-6.4-3.3c-1.1-1.6-1.6-2.7-2.7-3.9c0-0.1,0-0.1,0-0.2   c0.2-2.3-2.8-4-4.7-2.7c-4.2,2.9-5.8,7.9-11.7,7.9c-4.6,0-9-2.6-8.2-7.4c0.4-2.7-1.1-4.7-3.8-5c-2.9-0.3-5.2,1-7.5,2.7   c-2,1.5-4.9,4.7-7.6,3.2c-2.8-1.5-4.9-4-7.8-5.5c-2.7-1.5-5.5-1.5-4.6-5.3c0.8-3.1-2.4-5.2-5.1-3.9c-3.4,1.6-6.5,3.6-10.1,4.7   c-2.4,0.7-5.6-2.3-7-3.7c-0.9-0.9-1.8-2-2.5-3.2c-0.7-1.3-0.4-0.7-0.3-0.7c1.3-1.6,2.9-3.1,3.3-5.2c1.5-6.9-6.5-8.2-11.4-8.5   c-0.8-0.1-3,0.3-3.7-0.2c-2.1-1.7-1.6-4.5-0.6-6.6c1.7-3.6,5.3-5.8,8-8.5c2.1-2.1,0-5.4-2.8-4.8c-9.3,2.1-15.8,11.2-14.2,20.6   c0.8,4.5,4.4,8.1,8.5,9.4c1.1,0.4,2.4,0.4,3.6,0.4c-1.6,2.3-2.8,4.9-1.8,7.9c1.6,4.6,4.4,7.7,8.7,9.9c3.8,2,8.4,3.3,12.7,2.6   c3-0.5,5.3-2.1,7.5-3.9c0.2,0.9,0.5,1.9,0.9,2.8c2.2,4.5,5.5,6.3,9.6,8.8c4.4,2.6,8.1,4.3,13.3,2.8c3.1-0.9,5.1-3.2,7.4-5.2   c1.3,4.6,4.8,8,10.3,10c5.1,1.9,9,0.6,13.3-2.5c1.3-1,2.7-2,3.9-3.2c3.8,9.9,22.6,13.3,30.6,6.5c3.2-2.7,4.4-5.9,4.9-10   c0-0.7,0.1-1.4,0.2-2c0.4,0.1,0.7,0.2,1.1,0.3C277.5,146.7,285.8,142.6,282.6,135.2z" fill="#7C5135"/><path d="M192.8,42.5c0.6-0.6,0.4-1.8-0.5-2c-4.5-0.7-8.3,0.3-12.4,2.1c-4.9,2.2-10.6,5.1-14.7,8.6   c-7.4,6.5-8.5,16.8-11.4,25.6c-0.6,1.9,0.1,4,1.4,5.5c-0.2,0.8-0.3,1.5-0.4,2.3c-0.3,2.7,0.5,5.2,0.8,7.8c0.7,5.4,0.7,9,4.7,13.2   c3.3,3.6,8.6,6.7,12.7,9.2c3.9,2.4,8.5,3.8,13.1,3.9c0.5,0,0.8-0.8,0.3-1c-5-2.2-8.4-6.4-11.7-10.7c-2.5-3.2-8-8.1-7.4-12.2   c0.5-4.1-1.2-7.9-0.5-11.9c0.4-2.6,0.1-5-1.1-6.9c1.4-5.7,2.5-11.5,5.5-16.6C176,51.3,186.1,48.9,192.8,42.5z" fill="#7C5135"/><path d="M188.3,98.6c-1.2-1.2-3-2.2-4.3-3.2c-0.8-0.6-1.5-1-2.5-1.4c-0.1-0.1-0.3-0.1-0.4-0.1   c0-0.1-0.1-0.2-0.2-0.3c-0.5-0.7-0.3-1.3,0-2c0.7-1.6-1.3-3.5-2.6-2c-1,1.3-1.6,2.4-1.7,4.1c-0.1,1.3,0.6,4,1.6,4.9   c1,0.9,2.1,1.7,3.1,2.7c1.3,1.3,2.9,2.6,4.9,2.5C188.7,103.6,190.1,100.6,188.3,98.6z" fill="#7C5135"/><path d="M205.4,114.8c-1-1.5-1.9-2.4-3.7-2.6c-1.9-0.3-3.5-1.2-5.5-0.9c-2.1,0.3-3.8,2.8-1.9,4.6   c2,1.9,4.6,2.2,7.3,2.4c1.1,0.1,2.3-0.5,3-1.3C204.9,116.4,205.8,115.3,205.4,114.8z" fill="#7C5135"/><path d="M178.7,73.1c-0.7-0.9-1.4-1.8-2.3-2.4c0,0,0,0,0,0c0-0.2,0.1-0.5,0.2-0.7c0.1-0.5-0.4-1.1-0.9-0.9   c-1.3,0.5-2.5,1.1-3,2.4c-0.3,0.6,0.1,1.5,0.5,1.9c1.9,1.8,2.9,6.3,6.4,4.9c0.6-0.3,1.1-0.7,1.1-1.4   C180.7,75.2,179.6,74.4,178.7,73.1z" fill="#7C5135"/><g><path d="M200,92.5c-1-1.6-2.6-2.7-4.3-3.4c-0.9-0.4-1.1-0.4-0.5-0.2c-0.1-0.1-0.3-0.1-0.4-0.2c0,0-0.1,0-0.1-0.1    c-0.1-0.1-0.1-0.1-0.2-0.2c-0.2-0.2-0.4-0.4-0.7-0.6c-0.3-1.1-1.8-1.9-2.6-0.8c-0.1,0.1-0.1,0.2-0.2,0.2c-0.3,0.2-0.6,0.5-0.8,0.9    c-0.1,0.1-0.1,0.2-0.2,0.3c-0.1,0.2-0.2,0.3-0.2,0.4c0,0.1-0.1,0.3-0.2,0.6c-0.6,1.6,0.5,3,1.4,4.2c0.7,0.8,1.6,1.4,2.5,1.9    c0.4,0.2,0.8,0.4,1.3,0.6c0.7,0.3,1.1,0.5,1.9,0.5c0.1,0,0.9,0.1,0.2,0c1,0.1,1.9,0.1,2.7-0.7C200.4,95,200.6,93.6,200,92.5z" fill="#7C5135"/><path d="M189.8,88.8C190,88.2,189.4,89.5,189.8,88.8L189.8,88.8z" fill="#7C5135"/></g><path d="M252.3,117.7c-2,0.3-4.4,0.4-6.2-0.7c-2.1-1.2-4.3,1.6-2.6,3.3c2.7,2.6,9.8,5.7,12.3,1.4   C257,119.5,254.4,117.5,252.3,117.7z" fill="#7C5135"/><path d="M272.7,108.3c-0.3-0.4-0.6-0.5-1.1-0.5c-1.8,0.3-2.4,1.8-3.5,3c-0.3,0.3-0.4,0.6-0.5,0.9   c-0.5,0.6-0.9,1.2-1.4,1.8c-0.6,0.8,0.5,1.5,1.2,1.2c0.6-0.3,1.2-0.5,1.8-0.8c0.4,0,0.8-0.1,1-0.2   C272,112.6,274.3,110.5,272.7,108.3z" fill="#7C5135"/><path d="M228.3,111.1c-0.4-0.1-1.2-0.5-1.8-0.7c-0.9-0.3-2,0-3,0.2c-1.7,0.4-3.4,0.6-5.1,0.7   c-0.5,0-0.8,0.4-0.7,0.9c0.5,2.2,2.6,3.3,4.7,3.4c1.2,0,2.3-0.2,3.5-0.3c1.2-0.2,1.8-1.4,2.6-1.8   C229.6,113,229.4,111.3,228.3,111.1z" fill="#7C5135"/><g><path d="M244,132.8c0,0,0.1,0,0.2,0.1C244.1,132.9,244.1,132.8,244,132.8z" fill="#7C5135"/><path d="M274.8,124.2c-2.9,0.4-5.9,0.6-8.8,1.2c-3.1,0.7-6,2.7-9.1,3.7c-1.6,0.5-3.6,0.7-5.3,0.9    c-1.5,0.2-2.5-0.5-3.8-0.5c-0.6,0-1.4,0.3-1.8,0.8c-0.5,0.5-5.8-0.2-6.6-0.2c-0.4,0-0.5,0.5-0.2,0.7c1.6,0.9,3.1,1.6,4.8,2.2    c-0.3-0.1,3.1,0.7,2.9,0.5c2.4,2.7,6.1,2.1,9.3,1.9c7.6-0.4,15.5-2.4,19.4-9.6C275.9,125,275.5,124.1,274.8,124.2z" fill="#7C5135"/></g></g><g id="c_lght"><path d="M250.5,57.9c-4.6-3.5-11.8-8.9-17.8-6.1c-1.9,0.9-1.2,3.6,0.5,4.2c4.6,1.6,8.9,4.8,12.7,7.8   c2.5,2,4.9,4.1,7.1,6.3c1.8,1.9,3.2,4,5.6,5.2c0.9,0.5,1.8,0,2.2-0.9C263,67.9,255,61.2,250.5,57.9z" fill="#9B6A49"/><path d="M272.2,85.5c-0.1-1.1-0.4-2-1.2-2.8c-0.7-0.7-1.8-1.2-2.8-1.2c-1.1,0-2.1,0.4-2.8,1.2   c-0.8,0.8-1,1.7-1.2,2.8c-0.2,2.2,0.5,4.7,2.4,6c0.8,0.5,1.8,0.6,2.7,0.4c1-0.3,1.5-0.8,2.1-1.6c0.5-0.6,0.5-1.2,0.6-2   c-0.2,1.2,0,0.1,0.1-0.1C272.3,87.2,272.3,86.4,272.2,85.5z" fill="#9B6A49"/></g><g id="d"><path d="M303.3,136.1c-3-5.1-6.3-9-10.8-12.9c-3.3-2.8-6.5-6.3-11.2-5.5c-1.3,0.2-2.4,1.8-2.3,3.2   c-1.2-0.2-2.4,0.6-2.4,1.9c0.1,3.3,2.6,6.1,4.4,8.6c0.6,0.9,1.7,2.5,3,3.8c-0.6,2.9-1,5.7-3.8,7.7c-1.8,1.3-4.3,3.7-6.6,3.7   c-1.2,0-2.4,0.8-2.7,2.1c-0.3,1.2-1.8,4.2-2.4,6.7c-2.3,0.8-4.4,1.7-5.6,2c-4.4,1.1-9,1.1-13.5,1.9c-1.8,0.3-4.7,1.3-7.1,1.5   c0,0-0.1,0-0.1-0.1c-2.7-2.1-4.3-5.4-6.9-7.5c-2.1-1.7-4.6,0.2-4,2.4h-0.1c0.4,2,0.9,4.1,1.8,6c-0.8,0.3-1.6,1-1.8,1.8   c-0.7,3-3.3,4.4-5,6.7c-0.7,0-1.4,0.5-1.6,1.2c-0.5,2.7-1.1,5.2-1.8,7.9c-0.8,2.7-2.2,4.9-3.5,7.1c-2.9,1.1-5.8,2.3-8.9,3.1   c-3.1,0.8-7.3,1.1-9.7,3.3c0,0,0.1,0,0.1,0c0,0-0.1,0-0.1,0.1c-0.3-0.2-0.7-0.3-1-0.6c-1.4-1.2-3.5,0.7-2.5,2.3   c2.6,4.5,6.4,7.4,11.8,6.5c2.6-0.5,5.3-2.6,7.6-3.9c0.5-0.3,1-0.6,1.5-0.9c-0.5,2.8-0.4,5.5,0.9,7.5c0.4,0.7,1,1.2,1.6,1.5   c2,5.6,8.7,9.9,14.2,8.9c2.4-0.4,5.1-1.9,7.6-4.1c-1.1,6.6,6.7,9,12.7,9c2.9,0,6-0.9,8.8-2.3c-0.1,3.2,2.4,5.9,5.2,7.8   c4.5,3,12.3,2.2,17.1,0.4c4-1.6,7.4-5.2,9-9.3c0.2,0.1,0.4,0.2,0.6,0.3c5,1.2,9.5-3.5,10.6-8.2c0.9-4-1.6-8.4-4.8-11.5   c1.1-0.9,2-1.9,3-2.7c3.3-2.9,5.4-8.4,6.5-12.5c0.3-1.1,0.4-2.1,0.5-3.1c0.2-0.1,0.4-0.2,0.5-0.4c1.1-1,1.9-2.7,1.9-4.2   c0-1.4-0.5-2.4-1.2-3.6C317.6,158.6,308.7,145.6,303.3,136.1z" fill="#8043B5"/></g><g id="d_shad"><path d="M305.3,208.4c-1.4-0.4-3.1,1.1-4.1,1.8c-0.7,0.5-3.4,2-4,1c-0.7-1.1-1.5-2.1-2.5-2.9   c-0.2-0.1-0.4,0-0.5,0.1c-1.6,2.5-1.1,6.1,1.9,7.3c3.5,1.3,7.8-1.4,9.6-4.3C306.2,210.7,306.6,208.8,305.3,208.4z" fill="#6A37A0"/><path d="M310.1,181c-0.2-0.4-0.7-0.7-1.1-0.5c-2.3,1.3-3.7,4.1-5.5,6.1c-2.2,2.6-6.4,5.2-9.6,5.8   c-3.1,0.6-6.4,1.2-8.4,3.9c-0.6,0.8-3,1.3-4,1.8c-1.7,0.8-2.4,2-4.6,0.1c-0.8-0.7-2.3,0.2-1.6,1.2c1.4,1.9,4,4.2,6.5,3.9   c2.3-0.2,4.8-0.1,7-0.8c2.1-0.6,4.2,0,6.3-0.7c2.2-0.7,4.3-1.9,5.6-3.9c0.8-1.2,1.3-2.4,1.8-3.6c0.6-0.7,1.2-1.3,1.6-1.9   c0.5-0.7,0.8-1.4,1.2-2.2c0.2-0.2,0.4-0.3,0.6-0.5C309.1,188,311.8,184.9,310.1,181z" fill="#6A37A0"/><path d="M293,215.8c-2-1.5-4.6,1.7-6,2.6c-2.9,2-7.4,2-10.7,1c-1.9-0.6-3.7-1.4-5.4-2.3c-2.6-1.5-2.7-3.9-2.8-6.6   c0.3-0.7,0.4-1.4,0.4-2.1c-0.1-0.6-0.4-1-0.9-1.2c-2.8-1.2-4.7,1.6-6.5,3.4c-2.5,2.6-7.1,3.2-10.5,2.3c-2.8-0.7-1.8-6.5-2.3-8.7   c-0.1-0.5-0.7-2-1.4-2c-0.3-0.3-0.8-0.5-1.3-0.5c-2.8,0.2-4.8,1-7.2,2.6c-3.7,2.4-6.7,1.5-9.3-2c-1.3-1.7-5-4.5-4-6.8   c0.6-1.3,1.3-2.5,1.7-3.8c0.8,1.1,1.8,1.9,3.2,2.9c2,1.3,3.5,0.9,5.6,1.2c3,0.3,5.9,1.9,8.9,1.7c0.5,0,0.7-0.8,0.1-0.9   c-3.1-0.6-7.3-3.3-9.2-5.5c-1-1.1-2.2-1.9-3.2-2.9c-0.9-0.9,0.3-3.6,0.4-4.8c0.1-0.8-0.4-1.7-1.1-2.1c0.1-0.5,0.3-1.1,0.4-1.6   c0.2-0.7,0.4-1.7,0.2-2.4c-0.7-2.3,0.7-4.5,0.2-6.8c1-0.8,2-1.8,2.8-3c0.7-1,1.5-2.9,1.9-4.9c0.9,0.9,1.8,1.7,2.7,2.3   c4.6,3,10.8,3.4,16.2,2.8c8.6-0.9,17.4-6.5,20.1-14.8c0.1,0,0.1,0,0.2,0c6.4,0.4,7.9-4.8,9.8-9.7c1.8-4.6,1.2-8.6-2.1-12.3   c-0.7-0.8-1.9,0-1.7,1c0.8,2.9,0.3,6.4-0.6,9.3c-0.5,1.7-2.2,2.3-3.5,3.2c-1.1,0.7-2,1.4-2.9,2.2c-1.2-0.8-2.9-0.8-3.7,1   c-3.8,7.6-7.7,13.2-17.1,12.8c-4-0.2-8.1-0.6-12.1-0.8c-4-0.2-4.7-5.6-8.6-5.9c-0.4,0-0.7,0.3-0.7,0.7c0,0.8,0.1,1.6,0.3,2.5   c-1.6,1.6-1.6,4.9-2.3,6.9c-0.8,2.2-1.8,4.8-3.7,6.3c-0.1-0.1-0.3-0.3-0.4-0.4c-0.9-0.7-1.9,0.1-1.5,1.1c1.3,3-0.4,8.2-2.5,10.7   c-1.7,2.1-4.8,2.4-6.1,5c0,0.1,0,0.1-0.1,0.2c-2.9,0.5-5.4,2.6-8.1,3.9c-3,1.4-6.2,1.3-9.1,2.8c0,0-0.1,0-0.1,0.1   c-0.1,0-0.1,0-0.2,0c-0.5,0-0.8,0.5-0.6,1c0.2,0.3,0.3,0.5,0.5,0.8c-0.2,0.5-0.1,1.1,0.3,1.4c1.8,1.6,3.3,3.2,5.5,4.2   c2.3,1,5.8,1.4,7.1-1.2c0.1-0.2,0.1-0.3,0.2-0.5c1.1-0.3,2.2-0.7,3.2-1.2c0.4-0.2,0.7-0.4,1-0.6c-0.1,0.4-0.1,0.9-0.2,1.4   c-0.2,3.4,2.4,6.1,4.6,8.3c3,3.1,5.4,5.5,9.6,7c4.1,1.5,9-0.1,12.5-3c0,3.7,2,7.2,5.8,8.5c4.2,1.4,8.4,0.9,12.4-1.1   c0.8-0.4,1.7-1,2.6-1.8c-0.1,0.8-0.1,1.6,0.2,2.3c1,3.8,5.4,5.4,8.7,6.6c6.3,2.4,14.9,2.1,19.9-2.9   C294.2,220.5,295.2,217.5,293,215.8z" fill="#6A37A0"/><path d="M248.5,190.1c-1-1.1-2.4-1.9-3.3-3.1c-0.5-0.7-0.9-1.4-1.6-2.1c-0.4-0.4-0.8-1.2-0.5-1.8   c0.4-0.7-0.6-1.5-1.2-0.9c-1.3,1.4-0.7,4.3,0.1,5.7c1,1.7,3.2,4.7,5.4,4.7C248.8,192.5,249.3,191,248.5,190.1z" fill="#6A37A0"/><path d="M239.2,174.3c0,0,0-0.1,0-0.1c-0.1-0.3-0.2-0.6-0.4-0.9c-0.2-0.3,0-0.9,0.1-1.3c0.2-0.7-0.7-1.3-1.3-0.7   c-0.9,1-1.9,2.3-2,3.7c-0.6,0.6-1.1,1.4-1.3,2.3c-0.2,1.2,0.1,2.4,1.2,3.1c0.5,0.3,1.3,0.2,1.8-0.2c0.9-1,1.3-2.4,2.1-3.5   C239.8,175.8,239.7,174.8,239.2,174.3z" fill="#6A37A0"/><path d="M248.2,177.2C248.2,177,248.2,177,248.2,177.2c0-0.5,0-0.9-0.3-1.3c-0.2-0.3-0.3-0.5-0.4-0.7   c-0.2-0.5-0.3-1.1,0-1.6c0.6-0.8-0.5-1.5-1.2-1.2c-0.9,0.4-1.3,1.4-1.7,2.2c-0.7,1.6-0.9,3.1,0.4,4.5c0.6,0.6,1.6,0.7,2.3,0.3   C248.2,178.9,248.4,178.1,248.2,177.2z" fill="#6A37A0"/><path d="M260.7,193.4c-0.3-0.6-0.3-1.1-0.8-1.6c-0.5-0.5-1.2-0.8-1.8-1.2c-0.5-0.3-1-0.6-1.6-0.9   c-0.3-0.2-0.9-0.3-1.2-0.6c-0.2-0.2-0.6-0.3-0.7,0c-0.6,1.1,0,2.5,0.6,3.4c0.4,0.7,1.1,1.4,1.7,2c0.7,0.7,1.8,0.8,2.7,0.8   C260.6,195.4,261.1,194.2,260.7,193.4z" fill="#6A37A0"/><path d="M278.4,191.8c-1.1-0.2-2.2,0.4-3.4,0.2c-0.4-0.1-0.8,0-1,0.4c-0.2,0.5-0.3,0.4-0.8,0.2   c-0.5-0.2-0.9,0.5-0.5,0.9c0.6,0.5,1.2,0.7,1.8,0.5c0.5,0.5,1.2,0.6,1.9,0.7c1,0.1,2.6,0.3,3.3-0.6   C280.6,193.1,279.5,192,278.4,191.8z" fill="#6A37A0"/><path d="M288.1,189.6c-0.8-0.1-1.3,0.2-1.9,0.7c-0.4,0.4-1.1,0.7-1.7,0.7c-0.2,0-0.3,0.3-0.2,0.4   c1.1,0.9,4,1,4.4-0.7C288.9,190.3,288.6,189.7,288.1,189.6z" fill="#6A37A0"/></g><g id="d_lght"><path d="M296.8,140.9c-3.2,0-3.2,5,0,5C300.1,145.9,300.1,140.9,296.8,140.9z" fill="#8D58C6"/><path d="M301.7,149c-1.2-0.9-3.3,0-3.5,1.4c-0.6,3.2,0.7,6.8,0.9,10c0.3,4.2,0,8.2-0.5,12.3   c-0.1,0.7,0.9,0.9,1.3,0.5C305.2,168.5,308.1,153.9,301.7,149z" fill="#8D58C6"/></g><g id="Layer_28_copy"><g><g id="XMLID_1_"><g><path d="M289.3,231.5c9,0.8,18.8,7.7,22.9,15.4c3.8,7.2,4,15.5,0.5,22.9c-3.5,7.5-10,13.6-18.2,15.7      c-3.7,0.9-7.2,1.1-10.6,0.7c-0.1,0.2-0.1,0.4-0.2,0.5l-71.5,181.8c-1.9,4.6-4.9,8.3-8.4,10.9c-3.6,2.6-7.8,4-12.2,4      c-8.7,0-16.1-5.3-19.8-14.2l-69.1-175.1c-14,2.8-29.7-1.6-35.4-15.6c-4.1-10.1-1.7-21.3,4.4-30.1c5.4-7.8,13.4-15.4,23.1-12.6      l-0.2,1.4c-9.3-1-17.4,9.5-21,16.7c-3.8,7.5-5.5,17-1,24.7c4.3,7.4,12.3,11.3,20.6,12.2c4.4,0.4,8.7,0.2,13-0.8      c2.9-0.7,5.5-2,8.1-3.2l2.1,1.8c-2.9,1.9-6.1,3.4-9.5,4.5l68.9,174.6c1.5,3.6,3.8,6.5,6.5,8.5c2.7,2,5.9,3.1,9.4,3.1      c7.1,0,13.5-4.7,16.7-12.3l71.5-181.7c-3.6-1.1-7.1-2.9-10.4-5.3l1.7-2.2c13.6,5.8,30.9,4.8,38-10.2c2.9-6.1,3.3-13.7-0.1-19.7      c-4.6-8.2-12.5-10.4-20.1-14.3L289.3,231.5z" fill="#231F20"/><path d="M304.2,192.1c3.9-4.1,5.7-11.2,6.7-16.7c1.8-10.7,0.6-20.8-3.2-29.7c-5.3-12.5-14.7-21.6-25.7-26.8      c-0.8,1.4-1.7,2.6-2.8,3.8c-0.5,0.5-1,1-1.4,1.4c4,3,8.1,7.4,7,13.1c-1.1,5.8-7.3,11.8-12.4,10.3l0-1.7c4.8-0.9,11.2-7,8.4-12.5      c-1.3-2.6-3.2-5-5.2-7.2c-2.3,2.1-4.8,4-7.4,5.4c-1,0.6-2.2-0.7-1.3-1.8c3.3-3.9,7.6-6.5,10.8-10.6c3.8-5,4.6-12.9,4.6-19      c0.1-11.9-3.3-22.7-9.4-31.9C261.7,51.6,243.4,42,224.7,40c-8.4-0.9-17.1-0.4-25.6,0.9c-9.1,1.4-18.9,3.6-27.1,9      c-16.5,10.7-22.3,36.6-12.8,53.7c0.2,0.4-0.2,0.9-0.6,0.7c-4.4-2.7-6.7-8.2-7.5-14c-0.1,0-0.2,0.1-0.2,0.1l-0.8-2.5      c0.3,0,0.5-0.1,0.8-0.1c0-0.5,0-1-0.1-1.4c-2.8,0.4-5.6,0.9-8.4,1.7c-8.2,2.2-16.1,5.8-23.6,10c-8,4.6-16.3,10.2-22.1,18.1      c-11.6,15.9-7.6,42,7.4,54.4c0.3,0.3,0.1,0.9-0.3,0.8c-5.1-0.9-9.2-5.2-12-10.3c-0.1,0.1-0.3,0.2-0.4,0.3l-2.5-1.6      c0.5-0.4,1.1-0.7,1.7-1c-0.4-0.9-0.8-1.7-1.1-2.6c-3.8-9.7-5-20.7-2.4-30.7c2.4-9.4,8.6-16.7,15.5-22.2      c13.9-11.1,31-19.5,48.2-21.7c0.5-9.4,3.4-18.8,8.8-26.4c5.6-8,14.1-12.5,22.4-15.2c17.7-5.7,37.7-7.3,55.1-2.2      c18.3,5.3,35.7,17.6,44.2,37.2c4.5,10.3,6.2,21.6,3.9,33.4c-0.5,2.3-1,4.6-1.7,6.8c14,6.8,26.1,19.4,30.2,37.4      c2.2,9.8,2,20.1-1.6,30.5c-1.7,4.8-3.5,9.2-7.3,12.4c-0.5,0.4-0.9,0.8-1.4,1.1c2.9,3.1,5.6,7.5,3.9,12.6      c-1.7,4.9-7.4,9.5-11.4,8.2l-0.2-1.7c4.2-0.3,10.4-5.2,8.9-10.4c-0.7-2.5-2-4.8-3.3-7c-2.2,1.6-4.6,3.1-7,4.1      c-0.9,0.4-1.7-0.9-0.8-1.7C297,197.4,301,195.5,304.2,192.1z" fill="#231F20"/><path d="M295.6,217.2c-0.7,2.8-2.5,5.2-4.8,7c-0.4,2.4-0.8,4.9-1.4,7.4l-0.6,2.1c-1.2,3.9-3,7.6-5.8,10.3      c-1,1-2.5-0.5-1.5-1.5c3.4-3.8,4.8-10,5.4-15.9c-2,0.9-4,1.4-5.9,1.5c-4.9,0.3-17.8-1.1-17.8-9.2l1.5-0.8      c2.3,5.8,10.5,7,15.4,6.9c3.1-0.1,7.1-0.6,9.9-3.1c3.3-3,3.2-6.8,3.3-11c0-1,1.1-1.5,1.5-0.6c0.9,2,1.1,3.8,1,5.5c0,0,0,0,0,0      l0.2,1.7C295.9,217.3,295.7,217.2,295.6,217.2z" fill="#231F20"/><path d="M266.5,211.9c-0.1,2.2-0.8,4-2,5.5c0.1,0.2,0.1,0.4,0.2,0.5l-1.5,0.8c-7.1,5.7-22.9,2.6-21.5-6.6      l1.6-0.3c0.9,4.7,5.5,6.4,9.5,6.4c5,0.1,8.9-1.5,12.4-6.6C265.6,211,266.6,211.1,266.5,211.9z" fill="#231F20"/><path d="M237.7,297.9c-5-5.9-10.4-9.7-17.5-12.2c-2-0.7-4.3-1-7-1c-1.5,0-3,0.1-4.4,0.2      c-1.4,0.1-2.8,0.2-4.2,0.2c-2.9,0-5.1-0.4-7-1.3c0,0-0.1,0-0.2-0.2c0-0.2,0-0.5,0.2-0.6c4-4.2,9.7-5,13.7-5c2,0,4.1,0.2,6.1,0.6      c2.1,0.4,4.1,1,6.1,1.8c5.3,2,13.1,7.2,15,13.6c0.3,1.1,0.5,2.3,0.4,3.4c0,0.4-0.5,0.8-0.8,0.8C238,298.1,237.9,298,237.7,297.9      z" fill="#A87C4F"/><path d="M236.1,152.5c3.7,6.1,13.7,6.4,19.6,5.5c3.7-0.5,8.2-1.6,11.1-4.7c3.3-3.8,2.4-7.8,1.8-12.4      c-0.2-1.1,1-1.7,1.6-0.9c1.4,2,2.1,4,2.3,5.9l0,1.7c-0.5,7.1-8.6,12.5-15.2,13.7c-5.8,1-21.1,1.1-22.7-7.7L236.1,152.5z" fill="#231F20"/><path d="M221.1,277.3c1.9-2.7,3.2-5.7,3.8-9.1c1-5.7-0.7-10.8-1.9-16.3c-0.1-0.6,0.7-1,1-0.4      c5.2,8.5,5.8,18.8,0.9,27.1c4.2,1.7,9.2,5,12.5,9.2c7.3,0.9,15.3-1.1,21.3-4.8c5.2-3.2,10.2-7.9,12-13.9      c2.1-6.9-0.1-12.9-2.7-19.3c-0.4-0.9,0.9-1.4,1.5-0.9c9.1,8.5,7.7,20.2,1.4,29l-1.7,2.2c-2.5,3-5.6,5.6-9,7.4      c-6.2,3.4-13.5,5.3-20.3,4.8c0.1,0.4,0.3,0.7,0.4,1.1l-1.9,0.5c-1.9-6.4-9.7-11.6-15-13.6c-2-0.8-4-1.4-6.1-1.8l0.4-2      C218.9,276.7,220,276.9,221.1,277.3z" fill="#231F20"/><path d="M214.6,306.9c6.2,0,11.3,5.1,11.3,11.3c0,6.2-5.1,11.3-11.3,11.3c-6.2,0-11.3-5.1-11.3-11.3      C203.3,312,208.3,306.9,214.6,306.9z M216.6,320.2c5.9,0,5.9-9.1,0-9.1C210.7,311.1,210.7,320.2,216.6,320.2z" fill="#231F20"/><path d="M222.6,178.1c1.8-4.7-0.5-8.2-2.8-12.1c-0.6-1,0.3-2,1.2-1.4c2,1.4,3.4,3,4.2,4.7l0.6,1.6      c2.1,6.8-3.5,14.8-9.3,18.1c-3.6,2.1-11.9,5.6-18.1,4.7c0.2,0.3,0.4,0.7,0.6,0.9c4.2,5.8,10.9,7,17.4,2.2c0.4-2.3,1.8-4.4,4.5-6      c0.4-0.2,0.6,0.3,0.3,0.6c-6.2,6.4,0.1,15.3,4.3,18.5c2.7,2.1,6.3,4,10,3c4.1-1.1,6.6-5.1,8.9-9.2c0.4-0.7,1.4-0.3,1.2,0.5      c-0.6,2.5-1.4,4.5-2.5,6.1c0,0.5,0.1,1.1,0.2,1.5l-1.6,0.3c-5.1,5.5-13.2,4.8-18.4,0.2c-2.9-2.5-6.9-8.5-6.9-13.8      c-3.4,3.7-7.1,5.7-11.4,4.7c-4-0.9-7.5-3.8-9.5-7.9c-0.6-1.1-1-2.4-1.4-3.7c-0.5-0.5-1-1-1.4-1.6l1.1-1.7      c5.7,4.3,15.1,1,20.3-1.9C217.2,184.7,221.1,182,222.6,178.1z" fill="#231F20"/><path d="M216.6,311.1c5.9,0,5.9,9.1,0,9.1C210.7,320.2,210.7,311.1,216.6,311.1z" fill="#FFFFFF"/><path d="M195.6,319.9c3.3-4.8,6.7-9.3,12.4-12.6c8.8-5.1,18.6-2.8,25.8,3c10.5,8.5,13.4,21,10.9,32.8      c-2.5,12-12.8,22.7-28.4,20.2c-12.5-2-18.8-13.2-22-23.3c-0.2-1.7-0.5-3.3-0.6-5c-0.2-2-0.1-4-0.3-6c0.2-1.5,0.3-2.9,0.6-4.3      C194.4,323,194.9,321.4,195.6,319.9z M214.6,306.9c-6.2,0-11.3,5.1-11.3,11.3c0,6.2,5.1,11.3,11.3,11.3      c6.2,0,11.3-5.1,11.3-11.3C225.9,312,220.8,306.9,214.6,306.9z" fill="#FFFFFF"/><path d="M209.7,148.6c1.9,5.1,7.7,6.4,12.5,5.9c5.9-0.6,10.2-2.9,13.3-8.9c0.4-0.7,1.5-0.8,1.6,0.1      c0.4,2.4-0.2,4.5-1.3,6.2c0.1,0.2,0.2,0.3,0.3,0.5l-1.6,1.2c-0.4,0.4-0.8,0.8-1.3,1.1c0.3,0.6,0.5,1.3,0.6,2      c1.1,5.8-2.6,13.6-7.9,14.1l-0.6-1.6c3.6-2.2,6.9-8.4,4.8-12.7c-8.7,3.7-22.1,1.4-22.2-7.2L209.7,148.6z" fill="#231F20"/><path d="M191.2,330.2c0-1.1,0-2.1,0-3.2c-0.2-0.9-0.4-1.8-0.6-2.8c-0.2-0.8-0.5-1.6-0.8-2.4l1.7-0.4      c0.3,0.7,0.5,1.3,0.7,2c4.4-15.1,24.2-28.9,41-17.3c13.2,9.1,17.9,23.5,14.6,37.5c-3,12.6-14.3,24.7-31,22      c-7.6-1.2-13.2-5.2-17.2-10.3c-4-5.1-6.4-11.5-7.5-17.5l-1.6-0.2c0.3-1.1,0.6-2.2,0.8-3.2C191.1,333.1,191.2,331.6,191.2,330.2z       M216.4,363.3c15.6,2.5,25.9-8.2,28.4-20.2c2.5-11.8-0.4-24.3-10.9-32.8c-7.3-5.8-17-8.1-25.8-3c-5.7,3.3-9.1,7.9-12.4,12.6      c-0.7,1.6-1.2,3.2-1.6,4.8c-0.3,1.4-0.5,2.9-0.6,4.3c0.2,2,0.1,4,0.3,6c0.1,1.7,0.4,3.3,0.6,5      C197.6,350.1,203.9,361.3,216.4,363.3z" fill="#231F20"/><path d="M152.3,386.3c0.1-0.2,0.2-0.3,0.3-0.4c5.9,12,21.8,10.5,33.2,10.6c9.4,0,18.3,0.1,27.6-1.2      c5.7-0.8,9.4-4.6,12-9.3c0.4,1.4,0.3,3,0.4,4.4c0,0.8,1.1,1.1,1.5,0.4c2.6-4.5-0.7-10.8-6.1-10.2c-0.6,0.1-0.8,0.9-0.2,1.1      c1.3,0.5,2.5,1.3,3.4,2.3c-1.6,1.7-2.9,3.6-4.5,5.3c-2.3,2.5-5.4,2.9-8.7,3.4c-8.1,1.2-16.1,0.7-24.3,0.6c-0.6,0-1.3,0-2,0      c-3.6-2.1-4.5-5.5-6.2-9.6c-1.6-3.8-4-6.5-8.3-7.1c-9.8-1.4-11.6,7.8-8.7,14.8c-3.3-1.3-6.2-3.3-8.3-6.4      c0.1-0.1,0.1-0.1,0.2-0.2c0.5-0.5,1.1-1.1,1.6-1.5c0.8-0.6,0.4-1.8-0.7-1.6c-1,0.2-1.7,0.3-2.5,1c-0.7,0.6-1.3,1.3-1.8,2.1      c-0.9,1.3-1.7,3.5-0.9,5.1c0.2,0.3,0.6,0.3,0.8,0.1C151.2,388.9,151.6,387.4,152.3,386.3z M166.2,365.8      c15.8-1.9,23.4-15.6,25.8-27.9c1.1,6,3.5,12.4,7.5,17.5c4,5.2,9.6,9.1,17.2,10.3c16.7,2.7,28-9.4,31-22      c3.3-14-1.4-28.4-14.6-37.5c-16.8-11.6-36.6,2.2-41,17.3c-0.2-0.7-0.4-1.4-0.7-2c-0.5-1.1-1-2.1-1.8-3      c-2.8-5.2-7.3-10-12.3-13.2c-8.1-5.3-18.4-4.2-26.1,0.8c-13.6,8.6-17.6,23.2-15.1,36.9C138.5,355.6,149.7,367.8,166.2,365.8z       M279.7,285.3L208.3,467c-3.2,7.6-9.6,12.3-16.7,12.3c-3.4,0-6.7-1.1-9.4-3.1c-2.7-2-5-4.9-6.5-8.5L106.8,293      c3.4-1.1,6.7-2.6,9.5-4.5c5.3,4.1,12.3,5.8,18.9,6.2c1.3,0.1,2.9,0.1,4.5,0.1c-0.2,0.9-0.2,1.9-0.2,2.9c0.1,1.4,1.4,2.7,2.8,2.7      c0,0,0.1,0,0.1,0c0.7,0,1.3-0.4,1.7-0.9c1.9-2.3,3.9-4.2,6-5.9c2.8-0.6,5.4-1.6,7.5-3c8.4,8.1,21.8,8.3,32.7,6.8      c9.5-1.3,19.2-4.6,26.9-10.6c0.8,0.2,1.6,0.3,2.3,0.6c6.8,2.4,11.9,6,16.6,11.6c0.5,0.6,1.1,0.9,1.9,0.9c1.4,0,2.7-1.2,2.8-2.7      c0.1-1.4-0.1-2.8-0.5-4.1c-0.1-0.4-0.2-0.7-0.4-1.1c6.8,0.5,14.1-1.3,20.3-4.8c3.4-1.9,6.5-4.4,9-7.4      C272.6,282.4,276.1,284.2,279.7,285.3z M202.7,410.7c0.8-0.2,0.7-1.5-0.2-1.5c-8.1-0.1-16.1,0.5-24.2,0.3      c-0.6,0-0.6,0.7-0.1,0.9C185.7,413.4,195,413.1,202.7,410.7z" fill="#F2DB91"/><path d="M178.3,409.5c8.1,0.2,16.1-0.4,24.2-0.3c0.9,0,1,1.2,0.2,1.5c-7.6,2.4-17,2.7-24.5-0.3      C177.7,410.2,177.7,409.5,178.3,409.5z" fill="#231F20"/><path d="M180.9,393.3c-2.3,0-4.8,0.1-7.2,0c-0.6-0.3-1.2-0.6-1.7-1.1c-1.5-1.3-2.5-3-3-4.9      c-0.1-0.4-0.7-0.3-0.7,0.1c0,2.1,0.7,4.1,1.9,5.7c-2.2-0.2-4.3-0.6-6.4-1.1c-0.8-3.4-1.7-7.3-0.1-10.4c1.4-2.7,5.3-2.6,7.8-2      c2.3,0.6,3.6,2.8,4.5,4.7C177.6,387.1,178.7,390.9,180.9,393.3z" fill="#D66976"/><path d="M179.9,318.3c0-6.2-5.1-11.3-11.3-11.3c-6.2,0-11.3,5.1-11.3,11.3c0,6.2,5.1,11.3,11.3,11.3      C174.8,329.6,179.9,324.5,179.9,318.3z M149.3,311c7-6.4,16.4-8.6,25.7-4.4c7.2,3.3,10.9,9.4,14.8,15.2c0.3,0.8,0.6,1.6,0.8,2.4      c0.2,0.9,0.4,1.8,0.6,2.8c-0.1,1,0,2.1,0,3.2c0,1.4,0,2.8,0.1,4.2c-0.2,1-0.5,2.1-0.8,3.2c-3,10.5-8.9,22.2-21.7,25.4      c-15.5,3.8-26.2-7.7-29.2-19.2C136.4,332.1,139.6,319.9,149.3,311z" fill="#FFFFFF"/><path d="M168.6,306.9c6.2,0,11.3,5.1,11.3,11.3c0,6.2-5.1,11.3-11.3,11.3c-6.2,0-11.3-5.1-11.3-11.3      C157.3,312,162.3,306.9,168.6,306.9z M170.6,320.2c5.9,0,5.9-9.1,0-9.1C164.8,311.1,164.8,320.2,170.6,320.2z" fill="#231F20"/><path d="M170.6,311.1c5.9,0,5.9,9.1,0,9.1C164.8,320.2,164.8,311.1,170.6,311.1z" fill="#FFFFFF"/><path d="M166.2,195.5l1.2-1.5c3.6,4.3,9.6,3.4,14,1.2c5.3-2.6,8.5-6.3,9.2-13c0.1-0.8,1.1-1.3,1.6-0.5      c1.2,2.1,1.4,4.3,1,6.3c0.1,0.1,0.3,0.2,0.4,0.3l-1.1,1.7C188.4,199.2,170,205,166.2,195.5z" fill="#231F20"/><path d="M207.9,149.3c-4.9,6.7-14.6,7-21.6,2.7c-3.9-2.4-9.7-8.3-10.8-14.1c-3.3,4.5-7.2,7.1-12.5,6.6      c-4.9-0.4-9.6-3.1-12.7-7.3c-2.5-3.4-4.8-7.8-3.9-12.6c0.1-0.7,0.3-1.3,0.5-1.9l-0.1-2.9c0.7,0,1.3-0.1,2-0.3      c1.5-1.6,3.5-2.5,5.7-2.7c0.5-0.1,0.7,0.8,0.3,1.1c-2.9,2.1-6,4.9-5.2,9.1c0.7,3.5,2.4,6.6,4.9,8.9c6.1,5.8,14.2,6.2,20.9,0      c0.1-2.6,1.2-5,4.1-7.1c0.4-0.3,0.7,0.3,0.5,0.6c-6.1,7.8,3,16.6,8.6,19.6c3.6,1.9,8.2,3.5,12.3,1.9c4.7-1.8,6.8-6.4,8.7-11.2      c0.3-0.8,1.6-0.5,1.5,0.3c-0.2,2.8-0.8,5.1-1.8,7c0.1,0.5,0.2,1,0.4,1.5L207.9,149.3z" fill="#231F20"/><path d="M170.5,376.5c4.2,0.6,6.6,3.3,8.3,7.1c1.8,4.1,2.7,7.5,6.2,9.6c0.7,0,1.3,0,2,0      c8.1,0.1,16.2,0.6,24.3-0.6c3.2-0.5,6.3-0.9,8.7-3.4c1.6-1.7,2.9-3.6,4.5-5.3c-0.9-1.1-2.1-1.8-3.4-2.3      c-0.6-0.2-0.5-1.1,0.2-1.1c5.4-0.6,8.8,5.6,6.1,10.2c-0.4,0.7-1.5,0.4-1.5-0.4c-0.1-1.4,0-3-0.4-4.4c-2.6,4.7-6.3,8.5-12,9.3      c-9.3,1.3-18.2,1.2-27.6,1.2c-11.4,0-27.3,1.4-33.2-10.6c-0.1,0.1-0.2,0.3-0.3,0.4c-0.7,1.1-1.1,2.6-2.1,3.5      c-0.2,0.2-0.6,0.2-0.8-0.1c-0.8-1.5,0.1-3.7,0.9-5.1c0.5-0.8,1.1-1.5,1.8-2.1c0.8-0.7,1.5-0.8,2.5-1c1-0.2,1.4,1,0.7,1.6      c-0.5,0.4-1.1,1-1.6,1.5c-0.1,0.1-0.1,0.1-0.2,0.2c2.1,3.1,5,5.1,8.3,6.4C158.9,384.3,160.7,375.1,170.5,376.5z M176.1,384.3      c-1-1.9-2.3-4.1-4.5-4.7c-2.4-0.6-6.4-0.7-7.8,2c-1.6,3.1-0.7,7,0.1,10.4c2,0.6,4.2,0.9,6.4,1.1c-1.2-1.6-1.9-3.6-1.9-5.7      c0-0.4,0.6-0.5,0.7-0.1c0.5,1.9,1.5,3.7,3,4.9c0.5,0.5,1.1,0.8,1.7,1.1c2.4,0.1,4.9,0.1,7.2,0      C178.7,390.9,177.6,387.1,176.1,384.3z" fill="#231F20"/><path d="M137,104.4c-1.4,7.7,3,15.4,9.8,15.3l0.1,2.9c-7,3.3-14.4-8.4-13.7-15.9c1-10.2,8.5-17.8,17-19l0.8,2.5      v0C144.9,92.2,138.3,97.4,137,104.4z" fill="#231F20"/><path d="M171.6,285.1c1.4,0.1,2.8,0.2,4.2,0.2c2.9,0,5.1-0.4,7-1.3c0,0,0.1-0.1,0.1-0.2c0-0.2,0-0.5-0.1-0.6      c-4-4.2-9.7-5-13.7-5c-4,0-8.3,0.8-12.3,2.3c-4.4,1.7-10.4,5.5-13.4,10.3l-2-0.6c2.4-4,6.5-7.3,10.4-9.5      c-2.3-8.9,1.2-19,8.5-24.8c0.8-0.6,1.9,0.4,1.1,1.1c-5.7,5.1-7.8,14.2-5.7,21.8c0.1,0,0.2-0.1,0.3-0.1c4.2-1.6,8.8-2.5,13-2.5      c6.4,0,11.6,1.9,15.2,5.6c0.6,0.6,0.8,1.5,0.7,2.3c-0.1,0.8-0.6,1.4-1.3,1.7c-2.2,1-4.7,1.5-7.9,1.5c-1.4,0-2.9-0.1-4.3-0.2      c-1.4-0.1-2.9-0.2-4.3-0.2c-2.3,0-4.2,0.3-5.9,0.8c0.9,0.8,2,1.6,3.2,2.2c8.8,4.5,20.2,4.1,29.7,2.3c5.4-1.1,11.1-2.8,16.2-5.5      c-0.4,0-0.9,0.1-1.3,0.1c-1.4,0.1-2.9,0.2-4.3,0.2c-3.2,0-5.6-0.5-7.9-1.5c-0.7-0.3-1.1-0.9-1.3-1.7c-0.2-0.9,0.1-1.8,0.7-2.3      c3.6-3.7,8.8-5.6,15.2-5.6c2.1,0,4.3,0.2,6.5,0.7l-0.4,2c-2.1-0.4-4.2-0.6-6.1-0.6c-4,0-9.7,0.9-13.7,5      c-0.1,0.1-0.2,0.4-0.2,0.6c0,0.2,0.1,0.2,0.2,0.2c2,0.9,4.1,1.3,7,1.3c1.4,0,2.8-0.1,4.2-0.2c1.4-0.1,2.9-0.2,4.4-0.2      c2.8,0,5,0.3,7,1c7.1,2.5,12.5,6.3,17.5,12.2c0.1,0.2,0.2,0.2,0.3,0.2c0.3,0,0.8-0.4,0.8-0.8c0.1-1.2-0.1-2.3-0.4-3.4l1.9-0.5      c0.4,1.3,0.6,2.7,0.5,4.1c-0.1,1.4-1.4,2.7-2.8,2.7c-0.7,0-1.4-0.3-1.9-0.9c-4.8-5.6-9.9-9.2-16.6-11.6      c-0.7-0.2-1.5-0.4-2.3-0.6c-7.6,6-17.3,9.2-26.9,10.6c-11,1.5-24.4,1.3-32.7-6.8c-2.1,1.4-4.7,2.3-7.5,3c-2.1,1.7-4.1,3.6-6,5.9      c-0.5,0.5-1.1,0.8-1.7,0.9l-0.1-2c0.1,0,0.2-0.1,0.3-0.2c5-5.9,10.4-9.7,17.5-12.2c2-0.7,4.2-1,7-1      C168.6,284.9,170.1,285,171.6,285.1z" fill="#231F20"/><path d="M182.8,284c-2,0.9-4.1,1.3-7,1.3c-1.4,0-2.8-0.1-4.2-0.2c-1.4-0.1-2.9-0.2-4.4-0.2c-2.8,0-5,0.3-7,1      c-7.1,2.5-12.5,6.3-17.5,12.2c-0.1,0.1-0.2,0.2-0.3,0.2c0,0,0,0-0.1,0c-0.3,0-0.8-0.4-0.8-0.8c-0.2-2.4,0.6-4.7,1.9-6.8      c3.1-4.8,9.1-8.6,13.4-10.3c3.9-1.5,8.3-2.3,12.3-2.3c4,0,9.7,0.9,13.7,5c0.1,0.1,0.2,0.4,0.1,0.6      C182.9,283.9,182.8,284,182.8,284z" fill="#A87C4F"/><path d="M142.4,298.4l0.1,2c-0.1,0-0.1,0-0.1,0c-1.4,0-2.7-1.2-2.8-2.7c-0.1-1,0-1.9,0.2-2.9      c-1.6,0-3.1,0-4.5-0.1c-6.6-0.4-13.6-2.2-18.9-6.2l-2.1-1.8c-0.6-0.6-1.1-1.2-1.6-1.8c-8.5-10.7-4.1-33.5,10.9-35.3      c0.5-0.1,0.7,0.7,0.2,0.9c-11.7,5-15.4,26.8-4.5,34.3c6.1,4.2,13.7,5.4,21,5.4c0.4,0,0.7,0,1.1,0l2,0.6      c-1.3,2.1-2.1,4.4-1.9,6.8C141.5,298,142,298.4,142.4,298.4C142.3,298.4,142.3,298.4,142.4,298.4z" fill="#231F20"/><path d="M151.2,306c7.8-4.9,18.1-6,26.1-0.8c5,3.2,9.5,8,12.3,13.2c0.7,0.9,1.3,2,1.8,3l-1.7,0.4      c-3.9-5.8-7.6-11.9-14.8-15.2c-9.3-4.2-18.6-2.1-25.7,4.4c-9.7,8.9-12.9,21-9.8,32.8c3,11.5,13.7,23,29.2,19.2      c12.8-3.2,18.8-14.9,21.7-25.4l1.6,0.2c-2.4,12.3-10,26.1-25.8,27.9c-16.6,2-27.7-10.2-30.1-22.9      C133.6,329.2,137.7,314.7,151.2,306z" fill="#231F20"/><path d="M160.2,199.6c3.7-3.3,4-8.4,4.1-13.5c0-0.9,1.3-1.1,1.5-0.2c0.8,2.6,1.1,5,0.9,7.2      c0.2,0.4,0.5,0.7,0.8,1l-1.2,1.5c-2.2,8-11.1,11.8-19.2,10.3c-4.5-0.8-12-4.2-15.1-9.2l-1.4-0.7c0.2-0.3,0.4-0.7,0.6-1.1      c-0.9-2.4-0.7-5.1,1.3-8.1c0.3-0.4,0.8,0,0.7,0.4c-2.9,9.4,8.8,14.3,15.1,15.1C152.1,202.7,156.9,202.5,160.2,199.6z" fill="#231F20"/><path d="M105.2,185.4c-2,3-3.9,6.7-1.6,10.3c2,3,4.7,5.2,7.7,6.5c7.4,3,14.8,0.9,19-6.4l1.4,0.7      c-1.5,5.3-4.2,9.2-9.3,10.7c-4.7,1.4-10.1,0.5-14.5-2.2c-3.6-2.2-7.3-5.5-8.2-10.3c-0.1-0.7-0.2-1.3-0.2-1.9      c-1.9,2-4.5,2.2-7.3,1.3c-1.6,5.2-2.4,10.6-2.2,16.2c0.4,10.9,3.4,23.1,11.9,30.6c0.5,0.4-0.1,1.3-0.7,0.9      c-2-1.2-3.8-2.7-5.3-4.4c-0.1,0-0.2,0-0.3,0c-0.4-0.1-0.8-0.1-1.2-0.2l0.2-1.4c-7.2-9.1-9.4-23.3-8.1-33.9      c0.4-3.2,1.1-6.4,2-9.5c-3.6-2.3-6.7-6-7.6-9.5c-2.6-9.4,1.2-18.7,8-23.1l2.5,1.6c-4.9,4-9.1,11.1-7.8,18      c1.6,8.4,9.8,14.3,16.5,9.7c0.8-2,2.3-3.6,4.3-4.6C105.1,184.3,105.6,184.9,105.2,185.4z" fill="#231F20"/></g><g/></g></g></g><g id="red_light"/><g id="Layer_19_copy"><path d="M141.6,318.6c-6.4-6.9-12.4-14.3-19-21c-3.1-3.1-6.4-6.1-9.7-8.9c-0.1,0-0.2,0.1-0.2,0.1   c-3.1,1.2-6.1,2.3-9.3,3c3.1,3.6,6.3,7,9.4,10.5c6.9,7.6,13.2,15.7,20.1,23.2c0.8,0.9,1.6,1.7,2.5,2.6c-3.1,2.8-6.2,5.6-9.4,8.4   c-1.2,1-2.3,2.1-3.5,3.1c0.9,1.8,1.6,3.8,2.2,5.4c0.7,2.1,1.4,4.2,2,6.3c1.4-0.8,2.6-1.5,3.6-2.2c2.7-1.6,5.3-3.5,7.8-5.6   C135.4,335.9,138.5,325.8,141.6,318.6z" fill="#E5C36E"/><path d="M179.6,309c3.4-3.1,6.8-6.3,9.7-9.8c1.5,1.2,3,2.3,4.5,3.5c3,2.3,5.9,4.7,8.8,7.1c2.4-2.3,5.2-4.1,8.2-5.4   c-3-2.3-6.1-4.7-9.2-7c-1.4-1.1-2.9-2.2-4.3-3.2c-7.1,2.6-15.8,3.3-22.8,1.1c-1.7,1.7-3.5,3.3-5.3,4.9c-1.1,1-2.3,2-3.4,3   c0.1,0,0.2,0,0.3,0C171.2,304,176.5,305.4,179.6,309z" fill="#E5C36E"/><path d="M232.4,392.4c-10.5-7.3-20.9-14.7-31.2-22.3c3.1-2.5,6.2-5,9.3-7.6c-0.9-0.4-2-0.7-2.8-1.3   c-0.7-0.5-1.4-1-2-1.6c-2.3-1.5-4.2-3.4-5.6-5.9c-3.3,2.7-6.5,5.4-9.8,8.1c-1.7-1.3-3.4-2.7-5.1-4c-0.8-0.7-1.7-1.3-2.5-2   c-0.8,1.3-2,2.4-3.6,3.2c-1.9,1-4.5,1.9-5.7,3.2c-0.1,0.1-0.1,0.1-0.2,0.2c1.4,1.1,2.8,2.2,4.2,3.3c1.4,1.1,2.8,2.2,4.2,3.3   c-3.6,3-7.2,5.9-10.8,8.8c4.3,0.7,6.3,5.8,8.2,9.8c4.5-3.4,8.9-6.9,13.3-10.4c10.8,8.1,21.9,16,33,23.7c2.2,1.5,4.4,3.1,6.7,4.7   c-9.2,7.5-18.6,14.6-28.4,21.3c-2.7,1.9-5.4,3.7-8.2,5.5c-6.8-4.8-13.5-9.7-20.1-14.7c-6.3-4.8-12.5-9.8-18.6-14.8   c4.5-2.7,8.9-5.7,13.3-8.7c-2.7-0.1-5.7-1.3-6.9-3.9c-0.8-1.9-1-3.7-0.9-5.7c-4.8,3.6-9.6,7.1-14.5,10.6c-1.5-1.3-3-2.6-4.4-3.9   c2.7,6.2,5.4,12.3,7.7,18.7c6.6,5.5,13.4,10.9,20.3,16.1c5.2,3.9,10.5,7.9,15.9,11.8c-7,4.4-14,8.5-21.1,12.6   c1.4,3.1,2.5,6.3,3.7,9.4c2.1-1,4.2-2,6.3-3.1c7.3-3.6,14.3-7.6,21.2-11.9c5.9,4,12,7.9,18.1,11.5c0.8-3.1,1.7-6.2,2.8-9.2   c-1.9-1.2-3.8-2.3-5.7-3.5c-2.2-1.4-4.4-2.8-6.6-4.3c1.7-1.1,3.5-2.2,5.2-3.3c5.3-3.4,10.5-6.9,15.7-10.5c1.1-4.2,3.8-7.6,5.7-11.4   c0.7-1.7,1.3-3.5,2-5.3c1.2-4.4,2.7-8.4,4.4-12.4C236.7,395.3,234.5,393.9,232.4,392.4z" fill="#E5C36E"/><path d="M266.9,295.7c-6.5,5.9-13,11.6-19.3,17.6c-1.7,1.6-3.4,3.2-5.2,4.7c2.3,3.3,3.7,7.8,4.3,11.3   c0.8,4.2,0.9,8.4,0.1,12.4c3.6,2.2,7.2,4.4,10.8,6.5c1.1-3.2,2.3-6.4,3.6-9.4c-4.3-2.6-8.5-5.2-12.8-7.9c2.5-2.2,5.1-4.5,7.6-6.8   c6.4-5.9,12.5-12,18.4-18.3c1.3-3.4,2.7-6.7,4.1-10.1c1.1-2.7,2.5-5.6,2.9-8.5c0.2-1.3,0.3-2.7,0.4-4.1   C276.4,286.9,271.5,291.5,266.9,295.7z" fill="#E5C36E"/></g><g id="shadcone"><path d="M279.6,285.2c-1.3-1-3-1.1-4.6-1.4c-0.2,0-0.4-0.1-0.6-0.1c-0.5-0.4-1-0.8-1.5-1.1   c-0.4-1.1-1.4-1.9-2.8-1.9c-4.2,0.1-7.8,4-11.5,6c-4.1,2.2-8.8,3.6-13.5,4c-2.5,0.2-4.9,0.1-7.3-0.2c0.3,0.4,0.6,0.8,0.8,1.2   c0.7,1,1.4,2.1,1.9,3.4c1.1,2.6-2.6,4.9-3.8,2.2c-0.4-0.9-0.9-1.8-1.5-2.6c-4-5.9-11.5-8-19.2-8.9c-3.1,1.9-6.1,3.9-9.5,5.5   c-5.5,2.6-11.4,4.2-17.4,5.3c-5.7,1-11.6,0.9-17.3,0.1c-4.2-0.6-7.9-2.7-12-3.7c-0.7-2-2.7-3.7-5.1-2.8c-1.6,0.6-3.2,1-4.7,1.5   c-2,1.4-3.8,3-5.4,4.9c-0.1,0.1-0.1,0.1-0.2,0.2c0,0.1,0,0.1-0.1,0.2c-0.7,2.8-5,1.6-4.3-1.2c0.1-0.3,0.2-0.7,0.3-1   c-0.2-0.4-0.2-0.8-0.1-1.3c-1.6,0.2-3.1,0.3-4.8,0.4c-3.5,0.1-6.9-0.1-10.2-1c-1.9-0.5-3.8-1.4-5.6-2.1c-0.3-0.8-0.8-1.4-1.7-2   c-1.1-0.8-3-0.7-4.1,0c-1.5,0.9-2.9,1.8-4.4,2.6c-1.6,0.9-2.7,1.4-3.8,2.9c-0.3,0.4-0.3,1.1,0,1.6c0.2,0.3,0.4,0.6,0.6,0.8   c-0.8,1.2-0.8,2.8,0.6,4.3c0,0,0.1,0.1,0.1,0.1c0.5,0.7,1,1.3,1.6,2c2.2,3.3,3.2,7.5,4.3,11.3c1.4,4.9,3,9.5,4.7,14.3   c2.5,6.8,3.9,17.8,10.3,22c0.3,0.2,0.6,0.2,0.9,0.1c6.2,16.8,12,33.7,18.2,50.5c6.3,17.1,13.8,34,19.2,51.4   c2.1,6.7,4.2,13.1,7.9,19.1c3.6,5.8,7.6,8.7,13.4,11.8c1.5,0.8,3.1-0.3,3.3-1.7c4.1,1.7,9.2,2.4,10.4-1.9c0,0,0-0.1,0-0.1   c-1.7-1.7-4.4-1.4-6.5-1.9c-3-0.7-5.6-3.1-7.6-5.4c-2.1-2.3-3.6-4.8-5.1-7.4c-2.1-6-3.8-12.2-5.7-18.2   c-5.3-16.6-12.8-32.4-19.1-48.6c-6.7-17.2-12.5-34.9-19-52.2c-3.1-8.3-6-16.6-9-24.9c-1.5-4.1-2.7-8.3-4.1-12.4   c-0.9-2.7-1.9-5.1-2.5-7.7c3.2,1.1,6.7,1.6,9.4,1.9c8.1,0.8,18-0.8,25.4-4.5c1.3,2,3.4,3.4,5.7,4.6c5.1-0.7,10,0.1,14.5,3   c0.3,0.2,0.5,0.4,0.7,0.6c3.6,0,7.3-0.4,10.8-1c6.7-1.1,13.3-3.3,19.6-6c4.3-1.8,9.2-4,13.1-6.9c4.4,5.9,15.7,7.8,22,7.4   c5.9-0.4,11.4-2.3,16.7-4.8c2.7-1.3,7-3.5,9.8-6.2c1.8,1.4,3.9,2.1,6.3,2.1c1.4,0,2.9-0.4,3.9-1.4c1-0.9,1.1-2.4,1.2-3.7   C281.7,285.1,280.4,284.6,279.6,285.2z" fill="#231F20"/></g><g id="lightcone"><path d="M262.6,316.7c-8.7,9.9-12.3,23.1-17,35.2c-5.1,13.3-11,26.6-14,40.6c-0.1,0.6,0.6,0.9,1,0.4   c8.3-11.2,12.9-24.8,17.8-37.7c4.7-12.5,10.9-25,12.3-38.4C262.8,316.7,262.7,316.7,262.6,316.7z" fill="#FFFFFF"/><path d="M264.1,301.3c-5.4,0-5.4,8.3,0,8.3C269.5,309.6,269.5,301.3,264.1,301.3z" fill="#FFFFFF"/></g><g id="Layer_23"/><g id="Layer_28_copy_2"><g><path d="M102.7,294.1l69.1,175.1c3.7,8.9,11.1,14.2,19.8,14.2c0,0,0,0,0,0c8.9,0,16.7-5.7,20.6-14.9l71.5-181.8    c0.1-0.2,0.1-0.4,0.2-0.5c3.4,0.4,6.9,0.3,10.6-0.7c8.2-2.1,14.7-8.2,18.2-15.7c3.5-7.4,3.3-15.7-0.5-22.9    c-4.1-7.7-13.9-14.6-22.9-15.4c0.6-2.5,1.1-5,1.4-7.4c2.3-1.8,4.2-4.1,4.8-7c4.1,1.8,10.1-2.9,11.9-8c1.7-5-1-9.5-3.9-12.5    c0.5-0.4,0.9-0.8,1.4-1.1c3.7-3.1,5.6-7.6,7.3-12.4c3.7-10.4,3.8-20.7,1.6-30.5c-4-18-16.2-30.6-30.2-37.4    c0.7-2.2,1.3-4.5,1.7-6.8c2.3-11.8,0.5-23.1-3.9-33.4c-8.4-19.6-25.9-31.8-44.2-37.2c-17.4-5.1-37.4-3.4-55.1,2.2    c-8.4,2.7-16.8,7.3-22.4,15.2c-5.4,7.6-8.2,17-8.7,26.4c-17.2,2.1-34.3,10.5-48.2,21.6c-6.8,5.5-13.1,12.8-15.5,22.2    c-2.6,10-1.4,21,2.4,30.7c0.3,0.9,0.7,1.7,1.1,2.6c-7.9,3.9-12.5,14-9.7,24.1c1,3.5,4.1,7.2,7.6,9.5c-0.9,3.1-1.6,6.3-2,9.5    c-1.3,10.6,0.9,24.8,8.1,33.9c-9.7-2.8-17.7,4.9-23.1,12.6c-6.1,8.8-8.5,19.9-4.4,30.1C73,292.5,88.7,296.9,102.7,294.1z     M208.3,467c-3.2,7.6-9.6,12.3-16.7,12.3c0,0,0,0,0,0c-6.9,0-12.8-4.3-15.9-11.6L106.8,293c3.4-1.1,6.7-2.6,9.5-4.5    c5.3,4.1,12.3,5.8,18.9,6.2c1.3,0.1,2.9,0.1,4.5,0.1c-0.2,0.9-0.2,1.9-0.2,2.8c0.1,1.5,1.4,2.7,2.8,2.7c0.7,0,1.4-0.3,1.9-0.9    c1.9-2.3,3.9-4.2,6-5.8c2.8-0.7,5.4-1.6,7.5-3c8.4,8.1,21.8,8.3,32.7,6.8c9.5-1.3,19.2-4.6,26.9-10.5c0.8,0.1,1.6,0.3,2.3,0.6    c6.8,2.4,11.9,6,16.7,11.6c0.5,0.6,1.1,0.9,1.9,0.9c1.4,0,2.7-1.2,2.8-2.7c0.1-1.8-0.2-3.5-0.8-5.2c6.8,0.5,14.1-1.3,20.3-4.8    c3.4-1.9,6.5-4.4,9-7.4c3.3,2.4,6.7,4.2,10.4,5.3L208.3,467z M156.8,280.5c3.9-1.5,8.3-2.3,12.3-2.3c4,0,9.7,0.9,13.7,5    c0.1,0.1,0.2,0.4,0.1,0.6c0,0.2-0.1,0.2-0.2,0.2c-2,0.9-4.1,1.3-7,1.3c-1.4,0-2.8-0.1-4.2-0.2c-1.4-0.1-2.9-0.2-4.4-0.2    c-2.8,0-5,0.3-7,1.1c-7.1,2.5-12.5,6.3-17.5,12.2c-0.1,0.2-0.3,0.2-0.3,0.2c-0.3,0-0.8-0.4-0.8-0.8    C140.9,289.6,150.6,282.9,156.8,280.5z M223.5,280.2c6.2,2.4,15.9,9.1,15.4,17.1c0,0.4-0.5,0.8-0.8,0.8c-0.1,0-0.2,0-0.3-0.2    c-5-5.9-10.4-9.7-17.5-12.2c-2-0.7-4.3-1.1-7-1.1c-1.5,0-3,0.1-4.4,0.2c-1.4,0.1-2.8,0.2-4.2,0.2c-2.9,0-5.1-0.4-7-1.3    c0,0-0.1-0.1-0.2-0.2c0-0.2,0-0.5,0.1-0.6c4-4.2,9.7-5,13.7-5C215.2,277.8,219.6,278.6,223.5,280.2z M307.7,145.8    c3.8,8.9,5,19,3.2,29.7c-0.9,5.5-2.8,12.6-6.7,16.7c-3.2,3.4-7.2,5.3-10.5,8.4c-0.9,0.9-0.1,2.1,0.8,1.7c2.4-1.1,4.7-2.5,7-4.1    c1.3,2.2,2.5,4.5,3.3,7c1.5,5.3-4.7,10.1-8.9,10.4c0.1-1.7-0.2-3.6-1-5.5c-0.4-0.8-1.4-0.4-1.4,0.6c-0.1,4.2,0,7.9-3.3,11    c-2.8,2.6-6.8,3.1-9.9,3.1c-5.1,0.1-13.7-1.2-15.6-7.4c1.2-1.4,2-3.3,2-5.5c0-0.8-0.9-0.9-1.3-0.3c-3.5,5.1-7.4,6.7-12.4,6.6    c-4.4-0.1-9.6-2.1-9.7-8c1.1-1.7,2-3.7,2.5-6.1c0.2-0.8-0.8-1.2-1.2-0.5c-2.3,4.1-4.7,8.1-8.9,9.2c-3.7,1-7.2-0.9-10-3    c-4.2-3.2-10.5-12.1-4.3-18.5c0.3-0.3,0.1-0.8-0.3-0.6c-2.7,1.6-4.1,3.7-4.5,6c-6.5,4.9-13.2,3.6-17.4-2.2    c-0.2-0.3-0.4-0.6-0.6-0.9c6.2,1,14.5-2.5,18.1-4.7c5.7-3.4,11.3-11.3,9.3-18.1c5.3-0.5,9-8.3,7.9-14.1c-0.1-0.7-0.3-1.4-0.6-2    c0.5-0.3,0.9-0.7,1.3-1.1c1.6,8.8,16.9,8.6,22.7,7.7c6.6-1.1,14.6-6.5,15.2-13.6c5.1,1.4,11.4-4.5,12.4-10.3c1-5.7-3-10.2-7-13.1    c0.5-0.5,1-1,1.4-1.4c1.1-1.2,2.1-2.5,2.8-3.8C293,124.2,302.4,133.3,307.7,145.8z M172,49.8c8.2-5.3,18-7.6,27.1-9    c8.5-1.3,17.1-1.8,25.6-0.9c18.7,2,37,11.6,48.2,28.4c6.1,9.2,9.5,20,9.4,31.9c-0.1,6.1-0.9,14.1-4.7,19    c-3.1,4.1-7.4,6.7-10.8,10.6c-0.9,1.1,0.2,2.4,1.3,1.8c2.6-1.5,5.1-3.4,7.4-5.4c1.9,2.2,3.9,4.5,5.2,7.2    c2.8,5.5-3.6,11.6-8.4,12.5c-0.2-1.9-0.9-3.9-2.3-5.9c-0.6-0.9-1.7-0.2-1.6,0.9c0.7,4.5,1.6,8.6-1.8,12.4    c-2.8,3.2-7.4,4.2-11.1,4.7c-6,0.8-16.3,0.6-19.8-6c1.1-1.7,1.7-3.8,1.3-6.2c-0.1-0.9-1.3-0.8-1.6-0.1c-3.1,6-7.4,8.3-13.3,8.8    c-5.2,0.5-11.7-1-13-7.4c1-1.9,1.6-4.3,1.8-7c0.1-0.9-1.2-1.2-1.5-0.3c-1.9,4.8-4,9.4-8.7,11.2c-4.1,1.5-8.7,0-12.3-1.9    c-5.5-2.9-14.7-11.8-8.6-19.6c0.3-0.4-0.1-0.9-0.5-0.6c-2.9,2-4.1,4.5-4.1,7.1c-6.7,6.1-14.8,5.7-20.9,0c-2.4-2.3-4.1-5.3-4.9-8.9    c-0.9-4.2,2.3-7.1,5.2-9.1c0.5-0.3,0.3-1.1-0.3-1.1c-2.2,0.2-4.2,1.1-5.7,2.7c-7.9,1.9-13.4-6.6-11.8-15    c1.3-7.1,8.1-12.3,14.2-14.2c0.8,5.7,3.1,11.3,7.5,14c0.3,0.2,0.8-0.3,0.6-0.7C149.8,86.5,155.5,60.5,172,49.8z M83.8,179.4    c-1.4-7,3.1-14.4,8.2-18.3c2.8,5,6.9,9.4,12,10.3c0.4,0.1,0.6-0.5,0.3-0.8c-15-12.4-19-38.5-7.4-54.4c5.8-7.9,14.1-13.5,22.1-18.1    c7.5-4.3,15.4-7.8,23.6-10c2.8-0.7,5.6-1.3,8.4-1.7c0,0.5,0,1,0.1,1.5c-8.8,0.8-16.7,8.6-17.8,19.1c-0.7,7.5,6.7,19.1,13.7,15.9    c-0.2,0.6-0.4,1.2-0.5,1.9c-0.9,4.8,1.4,9.3,3.9,12.6c3.1,4.2,7.8,6.9,12.7,7.3c5.3,0.5,9.2-2.1,12.5-6.6    c1.1,5.8,6.9,11.7,10.8,14.1c7,4.4,16.7,4,21.6-2.7c0.1,8.5,13.5,10.8,22.2,7.2c2,4.3-1.2,10.5-4.8,12.7c-0.8-1.7-2.2-3.3-4.2-4.6    c-0.9-0.6-1.7,0.4-1.2,1.4c2.2,4,4.6,7.4,2.8,12.1c-1.5,4-5.4,6.6-8.6,8.4c-5.3,2.9-15.1,6.4-20.7,1.6c0.4-2,0.2-4.1-1-6.3    c-0.5-0.8-1.5-0.3-1.6,0.5c-0.8,6.7-3.9,10.4-9.2,13c-4.7,2.4-11.3,3.2-14.8-2.2c0.2-2.2,0-4.5-0.9-7.2c-0.3-0.9-1.5-0.7-1.5,0.2    c-0.1,5.1-0.4,10.2-4.1,13.5c-3.3,2.9-8.1,3.1-12.2,2.6c-6.2-0.7-17.9-5.6-15.1-15.1c0.1-0.5-0.4-0.8-0.7-0.4    c-2,2.9-2.2,5.7-1.3,8.1c-4.1,8.1-11.8,10.7-19.5,7.5c-3.1-1.3-5.8-3.5-7.7-6.5c-2.3-3.6-0.4-7.4,1.5-10.3    c0.3-0.5-0.2-1.1-0.6-0.9c-2,1-3.5,2.6-4.3,4.6C93.6,193.7,85.4,187.8,83.8,179.4z M73.5,253.9c3.8-7.5,12.4-18.6,22.2-16.5    c0.1,0,0.2,0,0.3,0c1.6,1.7,3.3,3.2,5.3,4.4c0.6,0.3,1.2-0.5,0.7-0.9c-8.5-7.5-11.5-19.7-11.9-30.6c-0.2-5.5,0.6-11,2.2-16.2    c2.7,0.8,5.4,0.6,7.3-1.4c0,0.6,0.1,1.3,0.2,1.9c0.9,4.8,4.7,8.1,8.2,10.3c4.4,2.8,9.8,3.6,14.5,2.2c5.1-1.5,7.9-5.3,9.3-10.7    c3.1,5,10.7,8.4,15.1,9.2c8.1,1.5,17-2.3,19.2-10.3c3.8,9.5,22.1,3.7,26.4-5.5c0.4,0.6,0.9,1.2,1.4,1.6c0.4,1.3,0.9,2.6,1.4,3.7    c2,4.1,5.5,7,9.5,7.9c4.3,1,8-1,11.4-4.7c0,5.3,4,11.3,6.9,13.8c5.2,4.6,13.3,5.3,18.4-0.2c-1.4,9.2,14.4,12.3,21.5,6.6    c0,8.1,12.8,9.5,17.8,9.2c1.8-0.1,3.9-0.6,5.9-1.5c-0.6,5.9-2,12.2-5.4,15.9c-0.9,1,0.5,2.5,1.5,1.5c2.8-2.7,4.6-6.3,5.8-10.3    c7.7,3.9,15.5,6.1,20.1,14.3c3.4,6,3,13.6,0.1,19.7c-7.1,15-24.4,16-38,10.2c6.2-8.8,7.7-20.5-1.4-29c-0.6-0.6-1.8,0-1.5,0.9    c2.6,6.4,4.8,12.3,2.7,19.3c-1.8,6-6.8,10.7-12,13.9c-6,3.7-14,5.7-21.3,4.8c-3.3-4.2-8.4-7.4-12.5-9.1c4.9-8.3,4.2-18.6-0.9-27.1    c-0.3-0.6-1.2-0.2-1,0.4c1.2,5.5,2.9,10.5,1.9,16.3c-0.6,3.4-1.9,6.4-3.8,9.1c-3.3-0.9-6.7-1.4-9.9-1.4c-6.3,0-11.6,1.9-15.2,5.6    c-0.6,0.6-0.8,1.5-0.7,2.3c0.1,0.8,0.6,1.4,1.3,1.7c2.2,1,4.7,1.5,7.9,1.5c1.4,0,2.9-0.1,4.3-0.2c0.4,0,0.9,0,1.3-0.1    c-5,2.7-10.7,4.4-16.2,5.5c-9.4,1.9-20.9,2.2-29.7-2.3c-1.2-0.6-2.2-1.3-3.2-2.2c1.7-0.6,3.6-0.8,6-0.8c1.4,0,2.9,0.1,4.3,0.2    c1.4,0.1,2.9,0.2,4.3,0.2c3.2,0,5.6-0.5,7.9-1.5c0.7-0.3,1.1-0.9,1.3-1.7c0.2-0.9-0.1-1.7-0.7-2.3c-3.6-3.7-8.8-5.6-15.2-5.6    c-4.2,0-8.8,0.9-13,2.5c-0.1,0-0.2,0.1-0.3,0.1c-2.1-7.6-0.1-16.7,5.7-21.8c0.8-0.7-0.3-1.7-1.1-1.1c-7.3,5.8-10.7,15.9-8.5,24.8    c-4,2.2-8.1,5.6-10.4,9.6c-0.4,0-0.7,0-1.1,0c-7.3-0.1-14.9-1.2-21-5.4c-10.9-7.5-7.2-29.4,4.5-34.3c0.4-0.2,0.2-1-0.2-0.9    c-15,1.9-19.4,24.7-10.9,35.3c0.5,0.6,1.1,1.2,1.6,1.8c-2.6,1.2-5.2,2.5-8.1,3.2c-4.3,1-8.6,1.2-13,0.8    c-8.3-0.8-16.3-4.8-20.6-12.1C68.1,270.8,69.7,261.4,73.5,253.9z" fill="#282727"/><path d="M233.1,306.2c-16.8-11.6-36.6,2.2-41,17.3c-0.5-1.8-1.3-3.6-2.5-5.1c-2.8-5.2-7.3-10-12.3-13.2    c-8.1-5.3-18.4-4.2-26.2,0.8c-13.5,8.6-17.6,23.2-15.1,36.9c2.4,12.7,13.5,24.9,30.1,22.9c15.8-1.9,23.4-15.6,25.8-27.9    c0,0,0,0,0,0c2.3,12,9.5,25.4,24.7,27.8c16.7,2.7,28-9.4,31-22C251,329.8,246.2,315.3,233.1,306.2z M168.7,363    c-15.5,3.8-26.2-7.7-29.2-19.2c-3.1-11.8,0.1-24,9.8-32.8c7-6.4,16.3-8.6,25.7-4.4c7.2,3.3,10.8,9.4,14.8,15.2    c0.3,0.8,0.6,1.6,0.8,2.4c0.2,0.9,0.4,1.8,0.6,2.7c-0.1,1,0,2.1,0,3.2c0,1.4,0,2.8,0.1,4.2C188.6,345.7,182.8,359.5,168.7,363z     M244.8,343c-2.5,12-12.8,22.7-28.4,20.2c-12.5-2-18.8-13.2-22.1-23.3c-0.2-1.7-0.5-3.3-0.6-5c-0.2-2-0.1-4-0.3-6    c0.2-1.5,0.3-2.9,0.6-4.3c0.4-1.7,0.9-3.2,1.6-4.8c3.3-4.8,6.7-9.3,12.4-12.6c8.8-5.1,18.6-2.8,25.8,3    C244.3,318.7,247.2,331.2,244.8,343z" fill="#282727"/><path d="M168.6,306.9c-6.2,0-11.3,5.1-11.3,11.3c0,6.2,5.1,11.3,11.3,11.3c6.2,0,11.3-5.1,11.3-11.3    C179.9,312,174.8,306.9,168.6,306.9z M170.6,320.2c-5.9,0-5.9-9.1,0-9.1C176.5,311.1,176.5,320.2,170.6,320.2z" fill="#282727"/><path d="M214.6,306.9c-6.2,0-11.3,5.1-11.3,11.3c0,6.2,5.1,11.3,11.3,11.3c6.2,0,11.3-5.1,11.3-11.3    C225.9,312,220.8,306.9,214.6,306.9z M216.6,320.2c-5.9,0-5.9-9.1,0-9.1C222.5,311.1,222.5,320.2,216.6,320.2z" fill="#282727"/><path d="M221.2,380.6c-0.6,0.1-0.8,0.9-0.2,1.1c1.3,0.5,2.5,1.3,3.4,2.3c-1.6,1.7-2.9,3.6-4.5,5.3    c-2.3,2.5-5.4,2.9-8.7,3.4c-8.1,1.2-16.1,0.7-24.3,0.6c-0.6,0-1.3,0-2,0c-3.6-2.1-4.5-5.5-6.2-9.7c-1.6-3.8-4-6.5-8.3-7.1    c-9.8-1.4-11.6,7.8-8.7,14.8c-3.3-1.3-6.2-3.3-8.3-6.4c0.1-0.1,0.1-0.1,0.2-0.2c0.5-0.5,1.1-1.1,1.6-1.5c0.8-0.6,0.3-1.8-0.7-1.6    c-1,0.2-1.7,0.3-2.5,1c-0.7,0.6-1.3,1.3-1.8,2.1c-0.9,1.3-1.7,3.5-0.9,5.1c0.2,0.3,0.6,0.3,0.8,0.1c1-0.9,1.4-2.4,2.1-3.6    c0.1-0.2,0.2-0.3,0.3-0.4c5.9,12,21.8,10.5,33.2,10.6c9.4,0,18.3,0.1,27.6-1.2c5.7-0.8,9.4-4.6,12-9.3c0.4,1.4,0.3,3,0.4,4.4    c0,0.8,1.1,1.1,1.5,0.4C230,386.2,226.7,379.9,221.2,380.6z M173.7,393.3c-0.6-0.3-1.2-0.6-1.7-1.1c-1.5-1.3-2.5-3-3-4.9    c-0.1-0.4-0.7-0.3-0.7,0.1c0,2,0.7,4.1,1.9,5.7c-2.2-0.2-4.3-0.6-6.4-1.1c-0.8-3.4-1.7-7.3-0.1-10.4c1.4-2.7,5.4-2.6,7.8-2    c2.3,0.6,3.6,2.8,4.6,4.7c1.5,2.9,2.7,6.7,4.8,9.1C178.6,393.4,176.1,393.4,173.7,393.3z" fill="#282727"/><path d="M202.5,409.2c-8.1-0.1-16.1,0.4-24.2,0.3c-0.6,0-0.6,0.7-0.1,0.9c7.5,3,16.9,2.7,24.5,0.3    C203.5,410.4,203.3,409.2,202.5,409.2z" fill="#282727"/></g></g><g id="top_copy_2"/></svg>