<?xml version="1.0" ?><svg enable-background="new 0 0 160 240" id="Layer_1" version="1.1" viewBox="0 0 160 240" xml:space="preserve" xmlns="http://www.w3.org/2000/svg" xmlns:xlink="http://www.w3.org/1999/xlink"><g><path d="M127.6,220.9c17.2-9.6,4.2-17-11.8-24.6c-17.8-8.5-24.2-10.6-40.5-1.6c-13.9,7.6-1.6,14.9,14.6,22.5   C108.4,225.8,115.5,227.8,127.6,220.9z" opacity="0.2"/><path d="M86.9,192.6c-3.4,2.5-6.8,4-9.8,5.6c-3,1.6-4.5,3.1-4.1,4.5c0.3,1.5,3,3.2,7.6,3s12-4.4,13.4-4.5   c1.4-0.1,1.1,0.8,2.1,0.8c1,0,6.4-1,7-1.7c0.6-0.7-0.1-5.7-0.1-5.7L86.9,192.6z" fill="#262626"/><path d="M103.1,200.3c0.3-0.4,0.3-1.8,0.2-3.1c-1.3,1.2-3.5,1.9-5.7,2c-2.6,0.1-5.7,0.6-9.3,2.9   c-3.6,2.3-16,4.2-14.6-1.4c-0.6,0.7-0.9,1.4-0.7,2.1c0.3,1.5,3,3.2,7.6,3c4.6-0.2,12-4.4,13.4-4.5c1.4-0.1,1.1,0.8,2.1,0.8   C97.1,202,102.5,201,103.1,200.3z" opacity="0.5"/><path d="M89.1,114c-0.9,6.6-1.3,29.8-0.4,40.3c0.8,10.6,0.7,25.9-0.1,31.2c-0.6,3.9-2.5,6-2,7.4   c0.5,1.5,5,4.6,10.2,5.2c5.1,0.6,7.2-0.2,7.9-2.2c0.6-2,2.8-23.5,3.5-37c0.6-12,1.7-45.1,1.7-45.1H89.1z" fill="#656565"/><path d="M89.1,114c-0.9,6.6-1.3,29.8-0.4,40.3c0.8,10.6,0.7,25.9-0.1,31.2c-0.6,3.9-2.5,6-2,7.4   c0.5,1.5,5,4.6,10.2,5.2c5.1,0.6,7.2-0.2,7.9-2.2c0.6-2,2.8-23.5,3.5-37c0.6-12,1.7-45.1,1.7-45.1H89.1z" opacity="0.3"/><path d="M117.9,204.6c-0.8,2.3-4.3,8-5,9.4c-0.8,1.4-2.3,3.3-1.3,4.7c1,1.5,5.7,3.3,10.4,1c4.7-2.2,5.5-7.7,5.5-7.7   h0.8c0,0,1-2.3,1-3.9c0-1.6-0.3-2.6-0.3-2.6L117.9,204.6z" fill="#262626"/><path d="M127.5,212.1h0.8c0,0,1-2.3,1-3.9c0-1.6-0.3-2.6-0.3-2.6l-0.1,0c-0.1,0.2-0.1,0.4-0.1,0.6   c-0.2,1.3-2.5,8.3-3.8,10c-3.4,4.4-12.6,5.4-13.5,0.3c-0.3,0.8-0.4,1.6,0.1,2.2c1,1.5,5.7,3.3,10.4,1   C126.7,217.5,127.5,212.1,127.5,212.1z" opacity="0.5"/><path d="M101,114.7c0.1,4.3,4.5,9.3,5.8,15.4c1.3,6.1,5.3,36.3,6.3,45.2c1.5,12.9,2.8,31.7,3.2,31.9   c0.4,0.1,3.7-1.9,6.9-0.2c3.2,1.7,6.8,1,7.9,0.2c1-0.8,0.6-9.4,0.2-14.6c-0.3-5.1-1.9-43.6-1.8-48.8c0.1-5.2,1.8-19.3,1.4-22.6   c-0.4-3.4-2.3-7.3-2.3-7.3L101,114.7z" fill="#656565"/><path d="M101,114.7c0.1,4.3,4.5,9.3,5.8,15.4c1.3,6.1,5.3,36.3,6.3,45.2c1.5,12.9,2.8,31.7,3.2,31.9   c0.4,0.1,3.7-1.9,6.9-0.2c3.2,1.7,6.8,1,7.9,0.2c1-0.8,0.6-9.4,0.2-14.6c-0.3-5.1-1.9-43.6-1.8-48.8c0.1-5.2,1.8-19.3,1.4-22.6   c-0.4-3.4-2.3-7.3-2.3-7.3L101,114.7z" opacity="0.15"/><path d="M90.8,67.4c-2.5,4-5.1,10.3-6.6,14.5c-1.5,4.2-5.4,11.7-5.7,12.7c-0.2,0.9-0.1,4.6,3.4,5.7s5.2,1.8,5.8,0.9   c0.5-0.8,4.2-5,4.2-5L90.8,67.4z" fill="#656565"/><path d="M90.8,67.4c-2.5,4-5.1,10.3-6.6,14.5c-1.5,4.2-5.4,11.7-5.7,12.7c-0.2,0.9-0.1,4.6,3.4,5.7s5.2,1.8,5.8,0.9   c0.5-0.8,4.2-5,4.2-5L90.8,67.4z" opacity="0.15"/><path d="M103.6,39.7c-2,1.6-10.2,13.3-10.6,27.7s3.2,21.1,3.2,21.1s10.9-29.1,16.9-35.5c6-6.4,5.6-11.5,5.6-11.5   s-3.8-2.6-7.9-2.9S103.6,39.7,103.6,39.7z" fill="#FFFFFF"/><path d="M103.3,49.7l2.3,6.4l6.4-4.3l-6.8,6L103,50l-1-0.2l-3.8,4.3c0,0,0-4.1,0-3.8c0,0.3,0.3,1.9,0.3,1.9l3.5-3.4   L103.3,49.7z" opacity="0.2"/><path d="M100.4,54.3l-0.1-3.8l1.5-1.6l1.5,0.7l1,2.7l-2.3,2.3c0,0-2.1,18.1-2.3,20.4s-3.1,13-3.1,13   s-4.5-12.5-4.3-12.7C92.4,75,100.4,54.3,100.4,54.3z" fill="#28896D"/><path d="M136.6,122.9c-0.3,1-0.2,2-2,3.2c-1.7,1.3-3.1,3.6-3.5,5.2c-0.4,1.6-1.7,3.5-1.9,4.7   c-0.1,1.2,0.8,2,1.8,1.1c1-0.8,2.9-4.5,3.9-4.8c1-0.3,1.3,2.9,1.4,4c0.1,1-1.5,3-2.2,4c-0.8,1-0.1,1.9,1,1.6s5.9-2.9,7.1-7.9   c1.3-5,0.7-12,0.7-12L136.6,122.9z" fill="#FBD7C7"/><path d="M134.4,122.2l-0.1,2c0,0,3.8,0.9,6.9,0.6c3.1-0.3,3.8-1,3.8-1l-0.3-3L134.4,122.2z" fill="#FFFFFF"/><path d="M107.3,38.8c-2.1,0.3-9.2-2-13.2,4.1s-4.7,12.6-4.9,18.3s-1.2,43-1.2,49.5c0,6.6,0.1,9.5,3,10.4   c3.4,1.1,5.9-1.9,6-3.8c0.1-2-0.3-30.7-0.3-30.7s-5.1-12-1.8-25.8s8.5-18.4,8.5-18.4l4.1-3.5L107.3,38.8z" fill="#656565"/><path d="M117.5,40.4c0,0,4,3.3,6.2,5.1c2.2,1.8,11.9,10.5,12.9,11.7c1,1.2,2.2,2.4,2.2,5.7s0.4,8.4,1.7,11.9   c4.1,10.6,4.3,15.2,4.6,19.8s0.9,26.6,0.9,26.6s-1.3,1.2-6.4,1.8c-5.2,0.6-6.4-0.1-6.4-0.1s-1.5-14.2-2.3-19.3   c-1.3-7.8-5-16.1-5-16.1s-0.6,3.5-0.3,5.6c0.3,2.1,4.1,19.3,4.9,22.1c0.8,2.7,1.7,6.1,1.7,6.1s-4.2,6.6-15.6,6.1s-18.2-4-19.6-11   c-1.4-7-1.7-24.5,0.1-34.3s9.7-25.6,14.9-31.4S117.5,40.4,117.5,40.4z" fill="#656565"/><path d="M97.5,86.7c0,0,3.5-8.9,8.9-16.5c3.8-5.2,7.8-8.6,7.8-8.6l-0.3-3.4l4.1-1.5l2.5-13.7l0.5,0.5l-1.7,14.1   l-4.6,1l1,3.5c0,0-5.4,4.7-9,9.2C102.8,76.1,97.5,86.7,97.5,86.7z" opacity="0.2"/><path d="M101.8,18.8c-3.8,2.8-4,10.3-3.9,15.4c0.1,5.1,0.7,9.3,1.5,9.7c0.8,0.4,2.4,0.6,2.4,0.6s-0.1,4.9,1.1,5.1   c1.2,0.3,7.8-2.8,10.9-6c3.1-3.1,3.5-3.8,3.5-3.8s4.3-7.9,3.6-14.1C120,19.5,112.4,11.1,101.8,18.8z" fill="#FBD7C7"/><path d="M98.5,21.9c-0.6,1,1.5,0.8,4.5,5.4c3.1,4.6,6.6,2.6,7.6,2.6c0.3,2.5,2.4,2.1,4.3,4.3c0,0,0.7-2.5,2.1-2.6   c1.4-0.1,0.9,4.2,0.9,4.2s0.2,1.7,1.2,2c1,0.3,4.7-8.8,2.8-14.7C119,13.7,105.4,10.4,98.5,21.9z" fill="#762C07"/><path d="M79.4,95c0.5-0.5,3.6-0.4,5.3,1.3c1.7,1.7,2.2,3.6,1.9,4.1c-0.2,0.4-2.4,0.2-4.9-1.5   C79.3,97.2,78.9,95.7,79.4,95z" fill="#FFFFFF"/><path d="M80,95.4c1.2-0.4,3.1,0.1,4.3,1.3c1.2,1.1,1.7,2.2,1.6,3s-1,2.7-1.2,3.6c-0.2,0.8-2.7,4.2-3.5,5.3   c-0.7,1.2-1.6,1.7-1.8,3.5c-0.2,1.8-0.8,2.7-2.1,2.8c-1.3,0.1-6.1-2.9-5.2-7.2c0.9-4.2,2.6-6.7,3.6-8.1c0.5-0.7,2.6-1.8,3.3-2.3   C79.8,96.7,79.5,95.6,80,95.4z" fill="#FBD7C7"/></g><g><path d="M73.6,231c17.2-9.6,4.2-17-11.8-24.6c-17.8-8.5-24.9-11.7-40.5-1.6c-9.5,6.1-2.4,15.9,13.8,23.5   C53.5,236.9,61.4,237.8,73.6,231z" opacity="0.2"/><path d="M21.6,214.3c0,2.1-0.1,5.9,3.8,5.9s5.9-2.9,6.2-3.8c0.3-1-0.1-3,1.3-3.8c1.3-0.8,6.3-2.5,6.6-7.1   c0.4-4.9-1.8-5-3.5-5c-1.7,0-5.9,0.3-5.9,0.3L21.6,214.3z" fill="#262626"/><path d="M38,200.8c1.2,1.5,1,3.9,0.1,5.7c-1.9,3.6-6.4,3.1-6.8,5.2c-0.4,2.1-2.7,5.6-5.4,6c-2,0.3-3.2-0.3-4.2-1.2   c0.2,1.8,1,3.6,3.8,3.6c4,0,5.9-2.9,6.2-3.8c0.3-1-0.1-3,1.3-3.8c1.3-0.8,6.3-2.5,6.6-7.1C39.8,202.4,39,201.3,38,200.8z" opacity="0.5"/><path d="M21,126.3c-0.3,6,1.4,21.3,1.2,32.8c-0.2,11.5-2.8,43.8-2.5,47.6c0.3,3.8-0.3,8.8,3.8,9.6   c3.2,0.6,7.4-1.8,9-4.3c1.6-2.5,2.6-6.2,2.7-10.5c0.1-4.3,9.4-58.4,9.5-60.6c0.1-2.2-1-13.8-1-13.8L21,126.3z" fill="#06547A"/><path d="M21,126.3c-0.3,6,1.4,21.3,1.2,32.8c-0.2,11.5-2.8,43.8-2.5,47.6c0.3,3.8-0.3,8.8,3.8,9.6   c3.2,0.6,7.4-1.8,9-4.3c1.6-2.5,2.6-6.2,2.7-10.5c0.1-4.3,9.4-58.4,9.5-60.6c0.1-2.2-1-13.8-1-13.8L21,126.3z" opacity="0.3"/><path d="M49.9,28.4c2.5,1,4.3,3.8,4.7,10.3c0.4,6.5,0,11.6-1.5,12.3c-1.5,0.7-2.5,0.4-2.5,0.4l1.1,7.1l-16.8-4.7   c0,0,0.3-3.9-0.6-6.4s-3.5-11.2-0.8-15.2C36.3,28.2,41.9,25.4,49.9,28.4z" fill="#FBD7C7"/><path d="M10.2,114.6c0,0-0.8,7-0.5,8.7c0.3,1.7,3.5,9.6,5.3,10c1.8,0.4,3.6-1,3.4-2.3c-0.2-1.2-2-3.3-2.1-5.4   s-0.1-5.3,0.8-5.7c0.9-0.5,2.9,2,3.8,3.1c0.9,1.1,2.5,0.7,2.5-0.2c0-0.8-1.9-2.6-2.3-4.1c-0.4-1.5-1.2-2.7-2.3-4   c-1.1-1.4-1.5-2.3-1.5-2.3L10.2,114.6z" fill="#FBD7C7"/><path d="M9,112.5c0,0-0.6,3.1,0.5,3.8c0.9,0.5,4.5,1.2,6.8,0.3c2-0.8,3.1-1.5,3.2-2.2c0.1-0.7-0.8-2-0.8-2L9,112.5z   " fill="#FFFFFF"/><path d="M48.7,225c0,2,0,3.3,0,4.1c0,0.8,0.1,2.9,4.3,2.6s6.4-1.2,6.6-1.5c0.2-0.3,0.7-1.1,0.7-1.1   s7.2,0.6,12.4-1.6c5.4-2.3,8.6-7.3,4-9.4c-2.8-1.3-4.4,0.3-8.6-0.2c-4.5-0.5-7.1-2.7-7.1-2.7L48.7,225z" fill="#262626"/><path d="M72.8,227.4c5.4-2.3,8.6-7.3,4-9.4c4.8,4.5-4.5,8.7-8.6,9c-2.7,0.2-8.6,0.5-12.4,1.3   c-3.1,0.6-6.2,0.4-7.1-0.8c0,0.7,0,1.3,0,1.7c0,0.8,0.1,2.9,4.3,2.6c4.3-0.3,6.4-1.2,6.6-1.5c0.2-0.3,0.7-1.1,0.7-1.1   S67.6,229.5,72.8,227.4z" opacity="0.5"/><path d="M38.1,129.4c-0.4,6.2,2.3,19.4,3.4,26.8c1,7.4,2.9,38.7,3.7,46.5c0.6,6.3,2.7,23.4,3.9,24.3   c1.2,0.9,9.6-0.3,13.1-2.6c2.3-1.6,4.9-4.7,4.5-6.8c-0.4-2.1-3.1-4.1-3.5-14.9c-0.3-10.8,0.9-30.2,0.6-44.9   c-0.3-14.8-1-31.5-1-31.5L38.1,129.4z" fill="#06547A"/><path d="M38.1,129.4c-0.4,6.2,2.3,19.4,3.4,26.8c1,7.4,2.9,38.7,3.7,46.5c0.6,6.3,2.7,23.4,3.9,24.3   c1.2,0.9,9.6-0.3,13.1-2.6c2.3-1.6,4.9-4.7,4.5-6.8c-0.4-2.1-3.1-4.1-3.5-14.9c-0.3-10.8,0.9-30.2,0.6-44.9   c-0.3-14.8-1-31.5-1-31.5L38.1,129.4z" opacity="0.15"/><path d="M17.4,56.9c-1.2,1.4-2,5.5-2.3,7.6c-0.3,2.1-5.7,19.3-6.6,22.7c-0.9,3.4-0.8,9.1-0.6,14.4   C8,107,8,113.3,8.1,114.3c0.1,1,4,2,6.9,1.6c2.9-0.4,4.6-1.2,4.9-3.6s1.8-13.9,3.8-18.1c2-4.2,4.9-11.7,4.9-11.7L17.4,56.9z" fill="#06547A"/><path d="M17.4,56.9c-1.2,1.4-2,5.5-2.3,7.6c-0.3,2.1-5.7,19.3-6.6,22.7c-0.9,3.4-0.8,9.1-0.6,14.4   C8,107,8,113.3,8.1,114.3c0.1,1,4,2,6.9,1.6c2.9-0.4,4.6-1.2,4.9-3.6s1.8-13.9,3.8-18.1c2-4.2,4.9-11.7,4.9-11.7L17.4,56.9z" opacity="0.15"/><path d="M70.5,104.3l0.1,8.8c0,0,4.1,1.1,7.1-0.5c3-1.6,5.2-4.7,5.2-5.8c0-1.1-0.3-2.4-1.3-2.4   c-1.1,0-2,1.6-3.2,0.3c-1.3-1.3-0.4-2.2,0.6-2.9c0.9-0.7,1.3-2.5-0.8-2.3c-1,0.1-1.9,0.8-2.5,1.3c-0.9,0.8-1.8,1.8-3,2.8   C71.3,104.7,70.5,104.3,70.5,104.3z" fill="#FBD7C7"/><path d="M35,50.3l-3.6,0.8l0.1,0.9c0,0-5.5-0.7-9.4,1.4c-4,2.1-6.1,4-5.6,7.3c0.6,3.4,3.9,15.1,6.1,21.1   c2.2,6,3.5,9.3,2.9,14.2s-7.1,27.7-6.7,31.2s5.8,6.1,12.5,7.9c6.9,1.8,31.9,3.2,32.4-1.9s0.5-18.9,0.5-18.9s7.1,1.3,8.4-0.4   c1.3-1.7,2.8-4.5,1.2-7.9c-1.5-3.4-2.1-3.5-3.1-3.8c-1-0.3-5.5-1-6.8-2.7c-1.3-1.6-0.3-7.8-0.3-15.7s0.3-13.6-3.2-17.3   c-3.5-3.7-7.5-8.9-10.8-10.1C45.2,55,34.3,55.3,35,50.3z" fill="#06547A"/><path d="M32.3,51c0,0,0.1,5.2,7.4,6.1c6.9,0.9,19,8.5,19,8.5s-13-7.3-18.9-7.8c-8.8-0.7-8.4-6.8-8.4-6.8L32.3,51z" opacity="0.2"/><path d="M48.4,43.8c0.1,0.8,1-1.3,1.7-3.1c0.7-1.9,2-4.3,2.7-7c0.7-2.7,1.3-1.7,1.4-2.9c0.1-1.2-5.7-8.9-16.3-5.2   s-8,16-7.1,19.4c1,3.4,4.1,7.3,7.1,7.3c3-0.1,6.5-2.4,6.8-6.8S48.3,42,48.4,43.8z" fill="#825012"/></g></svg>