<?xml version="1.0" ?><svg height="24" id="svg1630" version="1.1" viewBox="0 0 6.3499999 6.3500002" width="24" xmlns="http://www.w3.org/2000/svg" xmlns:cc="http://creativecommons.org/ns#" xmlns:dc="http://purl.org/dc/elements/1.1/" xmlns:inkscape="http://www.inkscape.org/namespaces/inkscape" xmlns:rdf="http://www.w3.org/1999/02/22-rdf-syntax-ns#" xmlns:sodipodi="http://sodipodi.sourceforge.net/DTD/sodipodi-0.dtd" xmlns:svg="http://www.w3.org/2000/svg"><defs id="defs1624"/><g id="layer1"><path d="m 2.1173181,3.4397394 c -1.22157925,0 -1.58808635,0.7792319 -1.58808635,1.910341 0,0.2827153 0.1942445,0.4707488 0.52936255,0.4707488 h 4.2329421 c 0.332355,0 0.5293619,-0.204039 0.5293619,-0.4707488 0,-1.0545598 -0.7244556,-1.8888759 -1.5880858,-1.9103411 z" id="path1955" style="color:#000000;font-style:normal;font-variant:normal;font-weight:normal;font-stretch:normal;font-size:medium;line-height:normal;font-family:sans-serif;font-variant-ligatures:normal;font-variant-position:normal;font-variant-caps:normal;font-variant-numeric:normal;font-variant-alternates:normal;font-variant-east-asian:normal;font-feature-settings:normal;font-variation-settings:normal;text-indent:0;text-align:start;text-decoration:none;text-decoration-line:none;text-decoration-style:solid;text-decoration-color:#000000;letter-spacing:normal;word-spacing:normal;text-transform:none;writing-mode:lr-tb;direction:ltr;text-orientation:mixed;dominant-baseline:auto;baseline-shift:baseline;text-anchor:start;white-space:normal;shape-padding:0;shape-margin:0;inline-size:0;clip-rule:nonzero;display:inline;overflow:visible;visibility:visible;isolation:auto;mix-blend-mode:normal;color-interpolation:sRGB;color-interpolation-filters:linearRGB;solid-color:#000000;solid-opacity:1;vector-effect:none;fill:#3771c8;fill-opacity:1;fill-rule:nonzero;stroke:none;stroke-width:0.529225;stroke-linecap:round;stroke-linejoin:round;stroke-miterlimit:4;stroke-dasharray:none;stroke-dashoffset:0;stroke-opacity:1;color-rendering:auto;image-rendering:auto;shape-rendering:auto;text-rendering:auto;enable-background:accumulate;stop-color:#000000"/><path d="M 3.1659579,0.52917095 C 2.4784225,0.53418295 1.9183166,1.0985279 1.9183353,1.7860635 c -4e-7,0.6910288 0.5658787,1.2568931 1.2569255,1.2568926 0.6910466,5e-7 1.2569258,-0.5658638 1.2569253,-1.2568926 5e-7,-0.6906772 -0.5653238,-1.25631776 -1.2558919,-1.25689255 -0.00305,-1.114e-5 -0.00625,-1.114e-5 -0.0093,0 a 0.26464234,0.26463543 0 0 0 -0.00103,0 z" id="path1947" style="color:#000000;font-style:normal;font-variant:normal;font-weight:normal;font-stretch:normal;font-size:medium;line-height:normal;font-family:sans-serif;font-variant-ligatures:normal;font-variant-position:normal;font-variant-caps:normal;font-variant-numeric:normal;font-variant-alternates:normal;font-variant-east-asian:normal;font-feature-settings:normal;font-variation-settings:normal;text-indent:0;text-align:start;text-decoration:none;text-decoration-line:none;text-decoration-style:solid;text-decoration-color:#000000;letter-spacing:normal;word-spacing:normal;text-transform:none;writing-mode:lr-tb;direction:ltr;text-orientation:mixed;dominant-baseline:auto;baseline-shift:baseline;text-anchor:start;white-space:normal;shape-padding:0;shape-margin:0;inline-size:0;clip-rule:nonzero;display:inline;overflow:visible;visibility:visible;isolation:auto;mix-blend-mode:normal;color-interpolation:sRGB;color-interpolation-filters:linearRGB;solid-color:#000000;solid-opacity:1;vector-effect:none;fill:#87aade;fill-opacity:1;fill-rule:nonzero;stroke:none;stroke-width:0.529225;stroke-linecap:round;stroke-linejoin:round;stroke-miterlimit:4;stroke-dasharray:none;stroke-dashoffset:0;stroke-opacity:1;color-rendering:auto;image-rendering:auto;shape-rendering:auto;text-rendering:auto;enable-background:accumulate;stop-color:#000000"/><path d="m 3.1759688,0.52917092 c -0.727493,0 -1.324466,0.59490688 -1.324466,1.32239998 -10e-7,0.7274931 0.596973,1.3244672 1.324466,1.324467 0.727493,2e-7 1.321884,-0.5969739 1.321884,-1.324467 0,-0.727493 -0.594391,-1.32239998 -1.321884,-1.32239998 z m 0,0.52968358 c 0.4415099,-2e-7 0.7927171,0.3512063 0.7927171,0.7927164 0,0.44151 -0.3512061,0.7947834 -0.7927171,0.7947834 -0.44151,0 -0.7953,-0.3532734 -0.7953,-0.7947834 0,-0.44151 0.35379,-0.7927164 0.7953,-0.7927164 z m -1.05885,2.3807333 c -1.32343295,0 -1.58801705,0.7937499 -1.58801705,1.8520829 0,0.3464351 0.1710398,0.5291667 0.52916705,0.5291667 h 4.233334 c 0.3307286,0 0.5291659,-0.1860349 0.5291659,-0.5291667 0,-1.058333 -0.2645828,-1.8520829 -1.588533,-1.8520829 z m 0,0.5291666 h 2.1151169 c 0.794783,0 1.0588501,0.5239167 1.0588501,1.3223996 h -4.2323 C 1.0582699,4.4979207 1.3228528,3.9687544 2.1171188,3.9687544 Z" id="path2966" style="color:#000000;font-style:normal;font-variant:normal;font-weight:normal;font-stretch:normal;font-size:medium;line-height:normal;font-family:sans-serif;font-variant-ligatures:normal;font-variant-position:normal;font-variant-caps:normal;font-variant-numeric:normal;font-variant-alternates:normal;font-variant-east-asian:normal;font-feature-settings:normal;font-variation-settings:normal;text-indent:0;text-align:start;text-decoration:none;text-decoration-line:none;text-decoration-style:solid;text-decoration-color:#000000;letter-spacing:normal;word-spacing:normal;text-transform:none;writing-mode:lr-tb;direction:ltr;text-orientation:mixed;dominant-baseline:auto;baseline-shift:baseline;text-anchor:start;white-space:normal;shape-padding:0;shape-margin:0;inline-size:0;clip-rule:nonzero;display:inline;overflow:visible;visibility:visible;isolation:auto;mix-blend-mode:normal;color-interpolation:sRGB;color-interpolation-filters:linearRGB;solid-color:#000000;solid-opacity:1;vector-effect:none;fill:#374548;fill-opacity:1;fill-rule:nonzero;stroke:none;stroke-width:0.529167;stroke-linecap:round;stroke-linejoin:round;stroke-miterlimit:4;stroke-dasharray:none;stroke-dashoffset:0;stroke-opacity:1;color-rendering:auto;image-rendering:auto;shape-rendering:auto;text-rendering:auto;enable-background:accumulate;stop-color:#000000"/></g></svg>