<?xml version="1.0" ?><svg viewBox="0 0 64 64" xmlns="http://www.w3.org/2000/svg"><defs><style>.cls-1{fill:#4c241d;}.cls-2{fill:#d2ddff;}.cls-3{fill:#c1dbdc;}.cls-3,.cls-4,.cls-5,.cls-6,.cls-7,.cls-8,.cls-9{stroke:#4c241d;stroke-linecap:round;stroke-linejoin:round;stroke-width:2px;}.cls-4{fill:#6b4f5b;}.cls-5{fill:#fff;}.cls-6{fill:#b5a19c;}.cls-7{fill:#ffe8dc;}.cls-8{fill:none;}.cls-9{fill:#fc8c29;}</style></defs><g id="e-meet"><circle class="cls-1" cx="17.8333" cy="11.0346" r="1.0691"/><circle class="cls-2" cx="32.5" cy="31.5" r="21.5"/><path class="cls-3" d="M41.163,19H56.837A3.163,3.163,0,0,1,60,22.163V53a0,0,0,0,1,0,0H38a0,0,0,0,1,0,0V22.163A3.163,3.163,0,0,1,41.163,19Z"/><path class="cls-4" d="M38,53H60a0,0,0,0,1,0,0v2.837A3.163,3.163,0,0,1,56.837,59H41.163A3.163,3.163,0,0,1,38,55.837V53A0,0,0,0,1,38,53Z"/><path class="cls-3" d="M9.163,19H24.837A3.163,3.163,0,0,1,28,22.163V53a0,0,0,0,1,0,0H6a0,0,0,0,1,0,0V22.163A3.163,3.163,0,0,1,9.163,19Z"/><path class="cls-5" d="M6,53H28a0,0,0,0,1,0,0v2.837A3.163,3.163,0,0,1,24.837,59H9.163A3.163,3.163,0,0,1,6,55.837V53A0,0,0,0,1,6,53Z"/><circle class="cls-1" cx="17" cy="56" r="1"/><path class="cls-6" d="M22,46h3V38.3333A3.3333,3.3333,0,0,0,21.6667,35H12.3334A3.3334,3.3334,0,0,0,9,38.3333V53H22Z"/><path class="cls-7" d="M17,24h0a4,4,0,0,1,4,4v7a0,0,0,0,1,0,0H17.5184A4.5184,4.5184,0,0,1,13,30.4816V28A4,4,0,0,1,17,24Z"/><line class="cls-8" x1="12" x2="12" y1="41" y2="53"/><polyline class="cls-6" points="22 41.584 22 47 29 47 29 44 25 44 25 39.973"/><path class="cls-7" d="M29,44h2.5A1.5,1.5,0,0,1,33,45.5v0A1.5,1.5,0,0,1,31.5,47H29a0,0,0,0,1,0,0V44A0,0,0,0,1,29,44Z"/><path class="cls-9" d="M44,46H41V38.3333A3.3333,3.3333,0,0,1,44.3333,35h9.3333A3.3334,3.3334,0,0,1,57,38.3333V53H44Z"/><path class="cls-7" d="M49.5184,24H53a0,0,0,0,1,0,0v7a4,4,0,0,1-4,4h0a4,4,0,0,1-4-4V28.5184A4.5184,4.5184,0,0,1,49.5184,24Z" transform="translate(98 59) rotate(180)"/><line class="cls-8" x1="54" x2="54" y1="41" y2="53"/><polyline class="cls-9" points="44 41.584 44 47 37 47 37 44 41 44 41 39.973"/><path class="cls-7" d="M33,44h2.5A1.5,1.5,0,0,1,37,45.5v0A1.5,1.5,0,0,1,35.5,47H33a0,0,0,0,1,0,0V44A0,0,0,0,1,33,44Z" transform="translate(70 91) rotate(-180)"/><line class="cls-8" x1="44.5858" x2="47.4142" y1="11.5858" y2="14.4142"/><line class="cls-8" x1="47.4142" x2="44.5858" y1="11.5858" y2="14.4142"/><circle class="cls-1" cx="49" cy="56" r="1"/><circle class="cls-8" cx="34.5" cy="10.5" r="2.5"/></g></svg>