<?xml version="1.0" ?><svg viewBox="0 0 32 32" xmlns="http://www.w3.org/2000/svg"><defs><style>.cls-1{fill:#04009a;}.cls-2{fill:#77acf1;}</style></defs><g data-name="7. Health Chat" id="_7._Health_Chat"><path class="cls-1" d="M13,32a12.69,12.69,0,0,1-4.08-.67A2,2,0,0,0,8,31.22L1.11,32a1,1,0,0,1-.82-.28A1,1,0,0,1,0,30.89L.78,24a2.06,2.06,0,0,0-.11-.93A13,13,0,0,1,10.94,6.16h0a13,13,0,0,1,5,25.51A13.39,13.39,0,0,1,13,32ZM8.18,29.2a4.15,4.15,0,0,1,1.36.24,11,11,0,1,0,1.7-21.3h0A11,11,0,0,0,2.56,22.46a4,4,0,0,1,.21,1.79l-.63,5.61,5.61-.63A3,3,0,0,1,8.18,29.2Z"/><path class="cls-2" d="M15,26H11a1,1,0,0,1-1-1V22H7a1,1,0,0,1-1-1V17a1,1,0,0,1,1-1h3V13a1,1,0,0,1,1-1h4a1,1,0,0,1,1,1v3h3a1,1,0,0,1,1,1v4a1,1,0,0,1-1,1H16v3A1,1,0,0,1,15,26Zm-3-2h2V21a1,1,0,0,1,1-1h3V18H15a1,1,0,0,1-1-1V14H12v3a1,1,0,0,1-1,1H8v2h3a1,1,0,0,1,1,1Z"/><path class="cls-1" d="M29,20.65a1,1,0,0,1-1-1h0a1,1,0,0,1,.17-.56A10.83,10.83,0,0,0,30,13,11,11,0,0,0,19,2a10.83,10.83,0,0,0-6.08,1.85,1,1,0,0,1-.56.17,1,1,0,0,1-.48-1.88A12.83,12.83,0,0,1,19,0,13,13,0,0,1,32,13a12.81,12.81,0,0,1-2.17,7.16A1,1,0,0,1,29,20.65Z"/></g></svg>