<?xml version="1.0" standalone="no"?>
<!DOCTYPE svg PUBLIC "-//W3C//DTD SVG 20010904//EN"
 "http://www.w3.org/TR/2001/REC-SVG-20010904/DTD/svg10.dtd">
<svg version="1.0" xmlns="http://www.w3.org/2000/svg"
 width="1024.000000pt" height="1024.000000pt" viewBox="0 0 1024.000000 1024.000000"
 preserveAspectRatio="xMidYMid meet">

<g transform="translate(0.000000,1024.000000) scale(0.100000,-0.100000)"
fill="#000000" stroke="none">
<path d="M4255 9906 c-41 -18 -83 -69 -90 -109 -3 -18 -5 -252 -2 -522 4 -547
3 -537 77 -690 75 -151 194 -270 345 -345 100 -49 175 -69 288 -77 l87 -6 0
-398 0 -399 -244 0 -243 0 -7 70 c-33 361 -206 776 -447 1075 -470 583 -1233
871 -1968 745 -182 -32 -511 -136 -511 -162 0 -8 117 -278 124 -285 1 -2 42
13 92 33 107 42 235 77 364 101 141 25 427 23 582 -5 649 -118 1170 -573 1372
-1200 59 -182 79 -317 79 -532 1 -203 -12 -303 -64 -487 -16 -57 -29 -114 -29
-128 0 -13 72 -168 160 -344 l160 -321 -369 0 c-229 0 -380 -4 -397 -10 -15
-6 -61 -38 -103 -72 -413 -334 -957 -466 -1469 -358 -1018 215 -1631 1263
-1317 2252 47 147 157 368 242 487 81 114 218 259 322 343 42 34 75 67 75 74
-1 7 -41 66 -90 133 l-88 120 -38 -28 c-261 -192 -503 -496 -641 -805 -257
-575 -244 -1224 35 -1781 274 -547 755 -934 1352 -1090 593 -154 1261 -20
1754 352 l83 62 484 3 c471 3 484 4 511 24 45 33 67 70 71 121 5 46 -3 64
-197 452 -152 305 -200 411 -197 430 3 14 17 80 31 146 14 66 29 153 32 193
l7 72 242 0 243 0 4 -282 c4 -261 6 -289 27 -353 38 -115 98 -219 173 -300 86
-92 147 -133 350 -235 87 -45 158 -85 156 -90 -2 -5 -88 -182 -193 -393 l-190
-384 -50 -21 c-40 -17 -76 -21 -185 -24 -123 -3 -141 -6 -196 -31 -63 -29
-140 -99 -166 -151 -13 -25 -63 -49 -450 -210 -292 -122 -451 -194 -486 -220
-70 -51 -135 -127 -171 -201 -61 -123 -61 -122 -61 -887 l0 -698 -1440 0
-1440 0 0 1600 0 1600 -160 0 -160 0 2 -2262 3 -2263 28 -61 c36 -77 104 -145
182 -181 l60 -28 1758 -3 c966 -1 1757 -6 1757 -10 0 -4 -16 -76 -37 -159
l-37 -153 -258 0 -258 0 0 -160 0 -160 1600 0 1600 0 0 160 0 160 -258 0 -258
0 -37 153 c-21 83 -37 155 -37 160 0 4 565 7 1255 7 l1255 0 0 160 0 160
-3988 0 c-3088 0 -3991 3 -4000 12 -9 9 -12 129 -12 480 l0 468 4480 0 4480 0
0 -468 c0 -351 -3 -471 -12 -480 -9 -9 -94 -12 -320 -12 l-308 0 0 -160 0
-161 343 3 342 3 60 28 c78 36 146 104 182 181 l28 61 0 2925 0 2925 -28 61
c-36 77 -104 145 -182 181 l-60 28 -342 3 -343 3 0 -161 0 -160 308 0 c226 0
311 -3 320 -12 9 -9 12 -520 12 -2240 l0 -2228 -160 0 -160 0 0 698 c0 765 0
764 -61 888 -38 76 -109 158 -182 208 -32 22 -225 108 -482 215 -382 159 -429
181 -443 207 -26 52 -103 122 -166 150 -54 25 -77 29 -206 35 -228 10 -190
-30 -415 426 -104 211 -191 387 -192 391 -2 4 79 49 180 99 262 133 361 221
447 398 54 111 71 181 77 323 l6 122 142 0 c176 0 238 11 342 61 155 74 274
232 303 401 8 43 10 151 8 300 -4 220 -6 237 -29 299 -36 94 -70 147 -133 212
-63 64 -120 100 -215 135 -56 21 -91 26 -226 32 -88 4 -152 7 -143 8 26 3 79
53 94 89 20 47 19 601 -1 696 -31 147 -143 296 -273 366 -35 18 -230 89 -434
157 l-369 123 -77 79 c-121 125 -241 192 -405 226 -67 14 -206 16 -1109 16
-836 -1 -1039 -3 -1063 -14z m3265 -2544 c0 -870 1 -857 -58 -966 -60 -111
-83 -126 -582 -376 -253 -127 -469 -230 -480 -230 -12 0 -227 104 -478 232
-415 211 -462 237 -512 288 -60 60 -102 136 -119 218 -8 36 -11 300 -11 842
l0 790 1120 0 1120 0 0 -798z m660 454 c49 -26 88 -64 113 -111 21 -38 22 -54
22 -265 0 -211 -1 -227 -22 -265 -25 -47 -64 -85 -113 -111 -29 -15 -63 -19
-187 -22 l-153 -4 0 402 0 402 153 -4 c124 -3 158 -7 187 -22z m-1843 -2346
c93 -20 159 -2 344 90 l159 80 166 -331 165 -332 -23 -32 c-85 -118 -744 -994
-748 -994 -4 0 -663 876 -748 994 l-23 32 165 332 166 331 159 -79 c90 -45
185 -85 218 -91z m-480 -1335 c235 -313 441 -578 456 -590 21 -15 44 -20 87
-20 43 0 66 5 87 20 15 12 221 277 456 590 343 456 433 569 449 567 11 -1 48
-15 82 -31 33 -16 70 -32 81 -35 11 -3 79 -30 150 -60 l130 -55 3 -190 2 -189
-37 -12 c-202 -65 -369 -246 -423 -456 -87 -338 124 -687 466 -774 338 -87
687 124 774 466 39 150 18 313 -57 457 -69 132 -222 261 -365 307 l-38 12 0
119 c0 118 0 120 21 114 63 -20 649 -270 677 -288 40 -27 77 -81 91 -133 7
-26 11 -260 11 -716 l0 -678 -2560 0 -2561 0 3 698 c3 664 4 699 22 736 40 80
66 95 426 245 186 78 341 141 344 141 3 0 6 -123 6 -274 l0 -274 -45 -6 c-25
-4 -82 -26 -127 -48 -102 -51 -189 -135 -240 -234 -59 -113 -68 -166 -68 -431
l0 -233 159 0 160 0 3 233 c3 215 5 235 25 272 25 47 64 85 113 111 30 16 58
19 180 19 122 0 150 -3 180 -19 49 -26 88 -64 113 -111 20 -37 22 -57 25 -272
l3 -233 160 0 159 0 0 233 c0 265 -9 318 -68 431 -51 99 -138 183 -240 234
-45 22 -102 44 -127 48 l-45 6 0 343 0 343 108 45 c59 25 127 53 152 62 25 10
72 30 105 45 74 33 88 39 97 37 4 -1 199 -258 435 -572z m2294 -336 c67 -36
98 -68 137 -143 22 -43 26 -64 26 -136 1 -78 -2 -90 -33 -148 -38 -70 -70
-100 -145 -140 -43 -22 -64 -26 -136 -26 -72 0 -93 4 -136 26 -75 40 -107 70
-145 140 -31 58 -34 70 -33 148 0 72 4 93 26 136 38 73 69 106 129 139 71 38
102 45 182 40 51 -3 81 -11 128 -36z m-2320 -2994 c21 -82 38 -153 39 -157 0
-5 -337 -8 -750 -8 -412 0 -750 3 -750 7 0 5 65 265 76 301 3 10 143 12 675
10 l672 -3 38 -150z"/>
<path d="M5600 7440 l0 -240 160 0 160 0 0 240 0 240 -160 0 -160 0 0 -240z"/>
<path d="M6880 7440 l0 -240 160 0 160 0 0 240 0 240 -160 0 -160 0 0 -240z"/>
<path d="M5920 6650 c0 -172 106 -327 263 -386 44 -16 78 -19 217 -19 187 0
233 11 317 75 102 77 152 173 160 313 l6 87 -482 0 -481 0 0 -70z"/>
<path d="M2015 8306 c-37 -17 -70 -52 -84 -89 -7 -17 -11 -127 -11 -282 l0
-254 -269 -3 c-254 -3 -271 -4 -297 -24 -15 -11 -37 -33 -48 -48 -20 -27 -21
-39 -21 -406 0 -367 1 -379 21 -406 11 -15 33 -37 48 -48 26 -20 43 -21 296
-24 l269 -3 3 -269 c3 -253 4 -270 24 -296 11 -15 33 -37 48 -48 27 -20 39
-21 406 -21 367 0 379 1 406 21 15 11 37 33 48 48 20 26 21 43 24 296 l3 269
269 3 c253 3 270 4 296 24 15 11 37 33 48 48 20 27 21 39 21 406 0 367 -1 379
-21 406 -11 15 -33 37 -48 48 -26 20 -43 21 -296 24 l-269 3 -3 269 c-3 253
-4 270 -24 296 -11 15 -33 37 -48 48 -26 20 -41 21 -394 23 -291 2 -373 0
-397 -11z m547 -575 c3 -254 4 -271 24 -297 11 -15 33 -37 48 -48 26 -20 43
-21 297 -24 l269 -3 0 -159 0 -159 -269 -3 c-254 -3 -271 -4 -297 -24 -15 -11
-37 -33 -48 -48 -20 -26 -21 -43 -24 -297 l-3 -269 -159 0 -159 0 -3 269 c-3
254 -4 271 -24 297 -11 15 -33 37 -48 48 -26 20 -43 21 -297 24 l-269 3 0 159
0 159 269 3 c254 3 271 4 297 24 15 11 37 33 48 48 20 26 21 43 24 297 l3 269
159 0 159 0 3 -269z"/>
<path d="M960 4480 l0 -160 720 0 720 0 0 160 0 160 -720 0 -720 0 0 -160z"/>
<path d="M2720 4480 l0 -160 240 0 240 0 0 160 0 160 -240 0 -240 0 0 -160z"/>
<path d="M960 3840 l0 -160 240 0 240 0 0 160 0 160 -240 0 -240 0 0 -160z"/>
<path d="M1760 3840 l0 -160 720 0 720 0 0 160 0 160 -720 0 -720 0 0 -160z"/>
<path d="M960 3200 l0 -160 720 0 720 0 0 160 0 160 -720 0 -720 0 0 -160z"/>
<path d="M2720 3200 l0 -160 240 0 240 0 0 160 0 160 -240 0 -240 0 0 -160z"/>
<path d="M4640 1760 l0 -160 480 0 480 0 0 160 0 160 -480 0 -480 0 0 -160z"/>
</g>
</svg>
