<?xml version="1.0" encoding="UTF-8"?>
<!DOCTYPE svg PUBLIC "-//W3C//DTD SVG 1.1//EN" "http://www.w3.org/Graphics/SVG/1.1/DTD/svg11.dtd">
<svg xmlns="http://www.w3.org/2000/svg" version="1.1" width="512px" height="512px" style="shape-rendering:geometricPrecision; text-rendering:geometricPrecision; image-rendering:optimizeQuality; fill-rule:evenodd; clip-rule:evenodd" xmlns:xlink="http://www.w3.org/1999/xlink">
<g><path style="opacity:0.021" fill="#43443f" d="M -0.5,-0.5 C 0.166667,-0.5 0.833333,-0.5 1.5,-0.5C 1.16667,0.5 0.5,1.16667 -0.5,1.5C -0.5,0.833333 -0.5,0.166667 -0.5,-0.5 Z"/></g>
<g><path style="opacity:0.022" fill="#43443f" d="M 16.5,-0.5 C 18.1667,-0.5 19.8333,-0.5 21.5,-0.5C 14.5,7.16667 7.16667,14.5 -0.5,21.5C -0.5,19.8333 -0.5,18.1667 -0.5,16.5C 5.5,11.1667 11.1667,5.5 16.5,-0.5 Z"/></g>
<g><path style="opacity:0.022" fill="#43443f" d="M 36.5,-0.5 C 38.1667,-0.5 39.8333,-0.5 41.5,-0.5C 27.8333,13.8333 13.8333,27.8333 -0.5,41.5C -0.5,39.8333 -0.5,38.1667 -0.5,36.5C 12.1667,24.5 24.5,12.1667 36.5,-0.5 Z"/></g>
<g><path style="opacity:0.022" fill="#43443f" d="M 56.5,-0.5 C 58.1667,-0.5 59.8333,-0.5 61.5,-0.5C 41.1667,20.5 20.5,41.1667 -0.5,61.5C -0.5,59.8333 -0.5,58.1667 -0.5,56.5C 18.8333,37.8333 37.8333,18.8333 56.5,-0.5 Z"/></g>
<g><path style="opacity:0.022" fill="#43443f" d="M 76.5,-0.5 C 78.1667,-0.5 79.8333,-0.5 81.5,-0.5C 54.5,27.1667 27.1667,54.5 -0.5,81.5C -0.5,79.8333 -0.5,78.1667 -0.5,76.5C 25.5,51.1667 51.1667,25.5 76.5,-0.5 Z"/></g>
<g><path style="opacity:0.022" fill="#43443f" d="M 96.5,-0.5 C 98.1667,-0.5 99.8333,-0.5 101.5,-0.5C 67.8333,33.8333 33.8333,67.8333 -0.5,101.5C -0.5,99.8333 -0.5,98.1667 -0.5,96.5C 32.1667,64.5 64.5,32.1667 96.5,-0.5 Z"/></g>
<g><path style="opacity:0.022" fill="#43443f" d="M 116.5,-0.5 C 118.167,-0.5 119.833,-0.5 121.5,-0.5C 81.1667,40.5 40.5,81.1667 -0.5,121.5C -0.5,119.833 -0.5,118.167 -0.5,116.5C 38.8333,77.8333 77.8333,38.8333 116.5,-0.5 Z"/></g>
<g><path style="opacity:0.022" fill="#444440" d="M 136.5,-0.5 C 138.167,-0.5 139.833,-0.5 141.5,-0.5C 120.5,20.8333 99.5,42.1667 78.5,63.5C 77.8333,63.5 77.5,63.8333 77.5,64.5C 74.1401,66.1799 70.8068,67.8466 67.5,69.5C 90.5,46.1667 113.5,22.8333 136.5,-0.5 Z"/></g>
<g><path style="opacity:0.022" fill="#43443f" d="M 156.5,-0.5 C 158.167,-0.5 159.833,-0.5 161.5,-0.5C 143.167,18.1667 124.833,36.8333 106.5,55.5C 104.565,56.1495 102.565,56.4828 100.5,56.5C 119.167,37.5 137.833,18.5 156.5,-0.5 Z"/></g>
<g><path style="opacity:0.022" fill="#43443f" d="M 176.5,-0.5 C 178.167,-0.5 179.833,-0.5 181.5,-0.5C 163.167,18.1667 144.833,36.8333 126.5,55.5C 125.167,55.1667 123.833,54.8333 122.5,54.5C 140.5,36.1667 158.5,17.8333 176.5,-0.5 Z"/></g>
<g><path style="opacity:0.022" fill="#434440" d="M 196.5,-0.5 C 198.167,-0.5 199.833,-0.5 201.5,-0.5C 182.5,18.8333 163.5,38.1667 144.5,57.5C 142.585,57.7845 140.919,57.4511 139.5,56.5C 158.833,37.8333 177.833,18.8333 196.5,-0.5 Z"/></g>
<g><path style="opacity:0.022" fill="#444440" d="M 216.5,-0.5 C 218.167,-0.5 219.833,-0.5 221.5,-0.5C 200.833,20.8333 179.833,41.8333 158.5,62.5C 157.209,62.7373 156.209,62.404 155.5,61.5C 175.833,40.8333 196.167,20.1667 216.5,-0.5 Z"/></g>
<g><path style="opacity:0.022" fill="#444440" d="M 236.5,-0.5 C 238.167,-0.5 239.833,-0.5 241.5,-0.5C 233.833,7.5 226.167,15.5 218.5,23.5C 217.5,23.5 216.5,23.5 215.5,23.5C 215.5,24.5 215.5,25.5 215.5,26.5C 200.833,40.8333 186.167,55.1667 171.5,69.5C 169.973,69.573 168.973,68.9063 168.5,67.5C 191.5,45.1667 214.167,22.5 236.5,-0.5 Z"/></g>
<g><path style="opacity:0.022" fill="#43443f" d="M 256.5,-0.5 C 258.167,-0.5 259.833,-0.5 261.5,-0.5C 253.833,7.5 246.167,15.5 238.5,23.5C 236.833,23.5 235.167,23.5 233.5,23.5C 241.167,15.5 248.833,7.5 256.5,-0.5 Z"/></g>
<g><path style="opacity:0.022" fill="#43443f" d="M 276.5,-0.5 C 278.167,-0.5 279.833,-0.5 281.5,-0.5C 273.833,7.5 266.167,15.5 258.5,23.5C 256.833,23.5 255.167,23.5 253.5,23.5C 261.167,15.5 268.833,7.5 276.5,-0.5 Z"/></g>
<g><path style="opacity:0.022" fill="#43443f" d="M 296.5,-0.5 C 298.167,-0.5 299.833,-0.5 301.5,-0.5C 293.833,7.5 286.167,15.5 278.5,23.5C 276.833,23.5 275.167,23.5 273.5,23.5C 281.167,15.5 288.833,7.5 296.5,-0.5 Z"/></g>
<g><path style="opacity:0.022" fill="#43443f" d="M 316.5,-0.5 C 318.167,-0.5 319.833,-0.5 321.5,-0.5C 313.833,7.5 306.167,15.5 298.5,23.5C 296.833,23.5 295.167,23.5 293.5,23.5C 301.167,15.5 308.833,7.5 316.5,-0.5 Z"/></g>
<g><path style="opacity:0.022" fill="#43443f" d="M 336.5,-0.5 C 338.167,-0.5 339.833,-0.5 341.5,-0.5C 333.833,7.5 326.167,15.5 318.5,23.5C 316.833,23.5 315.167,23.5 313.5,23.5C 321.167,15.5 328.833,7.5 336.5,-0.5 Z"/></g>
<g><path style="opacity:0.022" fill="#43443f" d="M 356.5,-0.5 C 358.167,-0.5 359.833,-0.5 361.5,-0.5C 351.833,9.5 342.167,19.5 332.5,29.5C 331.5,28.8333 330.5,28.1667 329.5,27.5C 338.5,18.1667 347.5,8.83333 356.5,-0.5 Z"/></g>
<g><path style="opacity:0.022" fill="#43443f" d="M 376.5,-0.5 C 378.167,-0.5 379.833,-0.5 381.5,-0.5C 368.5,12.8333 355.5,26.1667 342.5,39.5C 341.833,39.5 341.167,39.5 340.5,39.5C 339.89,38.609 339.557,37.609 339.5,36.5C 352.167,24.5 364.5,12.1667 376.5,-0.5 Z"/></g>
<g><path style="opacity:0.022" fill="#43443f" d="M 396.5,-0.5 C 398.167,-0.5 399.833,-0.5 401.5,-0.5C 387.167,14.1667 372.833,28.8333 358.5,43.5C 357.041,43.5674 355.708,43.2341 354.5,42.5C 368.5,28.1667 382.5,13.8333 396.5,-0.5 Z"/></g>
<g><path style="opacity:0.022" fill="#43443f" d="M 416.5,-0.5 C 418.167,-0.5 419.833,-0.5 421.5,-0.5C 405.5,15.8333 389.5,32.1667 373.5,48.5C 372.041,48.5674 370.708,48.2341 369.5,47.5C 385.167,31.5 400.833,15.5 416.5,-0.5 Z"/></g>
<g><path style="opacity:0.022" fill="#43443f" d="M 436.5,-0.5 C 438.167,-0.5 439.833,-0.5 441.5,-0.5C 423.167,18.1667 404.833,36.8333 386.5,55.5C 385.167,54.8333 384.167,53.8333 383.5,52.5C 401.5,35.1667 419.167,17.5 436.5,-0.5 Z"/></g>
<g><path style="opacity:0.022" fill="#43443f" d="M 456.5,-0.5 C 458.167,-0.5 459.833,-0.5 461.5,-0.5C 438.5,23.1667 415.167,46.5 391.5,69.5C 391.5,67.8333 391.5,66.1667 391.5,64.5C 413.5,43.1667 435.167,21.5 456.5,-0.5 Z"/></g>
<g><path style="opacity:0.022" fill="#43443f" d="M 476.5,-0.5 C 478.167,-0.5 479.833,-0.5 481.5,-0.5C 451.833,29.8333 421.833,59.8333 391.5,89.5C 391.5,87.8333 391.5,86.1667 391.5,84.5C 420.167,56.5 448.5,28.1667 476.5,-0.5 Z"/></g>
<g><path style="opacity:0.022" fill="#43443f" d="M 496.5,-0.5 C 498.167,-0.5 499.833,-0.5 501.5,-0.5C 464.5,36.8333 427.5,74.1667 390.5,111.5C 388.833,111.5 387.167,111.5 385.5,111.5C 422.5,74.1667 459.5,36.8333 496.5,-0.5 Z"/></g>
<g><path style="opacity:0.022" fill="#43443f" d="M 511.5,5.5 C 511.5,7.16667 511.5,8.83333 511.5,10.5C 476.5,44.8333 441.833,79.5 407.5,114.5C 406.29,114.068 405.29,113.401 404.5,112.5C 439.833,76.5 475.5,40.8333 511.5,5.5 Z"/></g>
<g><path style="opacity:1" fill="#f85c3e" d="M 218.5,23.5 C 223.5,23.5 228.5,23.5 233.5,23.5C 235.167,23.5 236.833,23.5 238.5,23.5C 243.5,23.5 248.5,23.5 253.5,23.5C 255.167,23.5 256.833,23.5 258.5,23.5C 263.5,23.5 268.5,23.5 273.5,23.5C 275.167,23.5 276.833,23.5 278.5,23.5C 283.5,23.5 288.5,23.5 293.5,23.5C 295.167,23.5 296.833,23.5 298.5,23.5C 303.5,23.5 308.5,23.5 313.5,23.5C 315.167,23.5 316.833,23.5 318.5,23.5C 322.466,24.0439 326.133,25.3772 329.5,27.5C 330.5,28.1667 331.5,28.8333 332.5,29.5C 335.194,31.5272 337.527,33.8605 339.5,36.5C 339.557,37.609 339.89,38.609 340.5,39.5C 341.32,41.8123 342.153,44.1457 343,46.5C 343.5,62.8299 343.667,79.1633 343.5,95.5C 314.167,95.5 284.833,95.5 255.5,95.5C 252.167,95.5 248.833,95.5 245.5,95.5C 243.833,95.5 242.167,95.5 240.5,95.5C 236.534,94.9561 232.867,93.6228 229.5,91.5C 228.5,90.8333 227.5,90.1667 226.5,89.5C 223.806,87.4728 221.473,85.1395 219.5,82.5C 219.34,80.847 218.674,79.5137 217.5,78.5C 215.998,74.6575 215.332,70.6575 215.5,66.5C 215.5,64.8333 215.5,63.1667 215.5,61.5C 215.5,56.5 215.5,51.5 215.5,46.5C 215.5,44.8333 215.5,43.1667 215.5,41.5C 215.5,36.5 215.5,31.5 215.5,26.5C 215.5,25.5 215.5,24.5 215.5,23.5C 216.5,23.5 217.5,23.5 218.5,23.5 Z"/></g>
<g><path style="opacity:0.022" fill="#444440" d="M 511.5,25.5 C 511.5,27.1667 511.5,28.8333 511.5,30.5C 479.5,62.1667 447.5,93.8333 415.5,125.5C 414.596,124.791 414.263,123.791 414.5,122.5C 446.5,89.8333 478.833,57.5 511.5,25.5 Z"/></g>
<g><path style="opacity:0.022" fill="#43443f" d="M 215.5,41.5 C 215.5,43.1667 215.5,44.8333 215.5,46.5C 204.5,56.8333 193.833,67.5 183.5,78.5C 182.167,77.8333 181.167,76.8333 180.5,75.5C 192.167,64.1667 203.833,52.8333 215.5,41.5 Z"/></g>
<g><path style="opacity:0.022" fill="#43443f" d="M 511.5,45.5 C 511.5,47.1667 511.5,48.8333 511.5,50.5C 479.5,82.1667 447.5,113.833 415.5,145.5C 415.5,143.833 415.5,142.167 415.5,140.5C 447.5,108.833 479.5,77.1667 511.5,45.5 Z"/></g>
<g><path style="opacity:0.997" fill="#d53924" d="M 340.5,39.5 C 341.167,39.5 341.833,39.5 342.5,39.5C 346.603,40.0901 350.603,41.0901 354.5,42.5C 355.708,43.2341 357.041,43.5674 358.5,43.5C 361.939,45.2043 365.605,46.5376 369.5,47.5C 370.708,48.2341 372.041,48.5674 373.5,48.5C 376.678,50.0086 380.011,51.342 383.5,52.5C 384.167,53.8333 385.167,54.8333 386.5,55.5C 388.601,58.2652 390.267,61.2652 391.5,64.5C 391.5,66.1667 391.5,67.8333 391.5,69.5C 391.5,74.5 391.5,79.5 391.5,84.5C 391.5,86.1667 391.5,87.8333 391.5,89.5C 390.167,92.1667 388.167,94.1667 385.5,95.5C 371.5,95.5 357.5,95.5 343.5,95.5C 343.667,79.1633 343.5,62.8299 343,46.5C 342.153,44.1457 341.32,41.8123 340.5,39.5 Z"/></g>
<g><path style="opacity:0.998" fill="#78d7e9" d="M 122.5,54.5 C 123.833,54.8333 125.167,55.1667 126.5,55.5C 130.857,55.5865 135.19,55.9198 139.5,56.5C 140.919,57.4511 142.585,57.7845 144.5,57.5C 147.939,59.2043 151.605,60.5376 155.5,61.5C 156.209,62.404 157.209,62.7373 158.5,62.5C 161.515,64.6744 164.849,66.3411 168.5,67.5C 168.973,68.9063 169.973,69.573 171.5,69.5C 174.32,71.7451 177.32,73.7451 180.5,75.5C 181.167,76.8333 182.167,77.8333 183.5,78.5C 185.5,81.1667 187.833,83.5 190.5,85.5C 191.167,86.8333 192.167,87.8333 193.5,88.5C 195.147,91.4735 197.147,94.1401 199.5,96.5C 199.427,98.0269 200.094,99.0269 201.5,99.5C 203.153,102.807 204.82,106.14 206.5,109.5C 206.932,110.71 207.599,111.71 208.5,112.5C 209.462,116.395 210.796,120.061 212.5,123.5C 212.232,125.099 212.566,126.432 213.5,127.5C 214.059,131.853 214.725,136.186 215.5,140.5C 215.5,142.167 215.5,143.833 215.5,145.5C 215.833,147.5 216.167,149.5 216.5,151.5C 215.483,161.563 213.483,171.563 210.5,181.5C 217.372,195.411 224.372,209.244 231.5,223C 215.167,223.333 198.833,223.667 182.5,224C 148.741,250.703 112.408,254.703 73.5,236C 44.1678,219.156 27.5012,193.989 23.5,160.5C 23.5,159.833 23.5,159.167 23.5,158.5C 23.5674,157.041 23.2341,155.708 22.5,154.5C 22.8333,149.167 23.1667,143.833 23.5,138.5C 24.1495,136.565 24.4828,134.565 24.5,132.5C 26.4265,125.053 28.7598,117.72 31.5,110.5C 32.1667,110.5 32.5,110.167 32.5,109.5C 34.1799,106.14 35.8466,102.807 37.5,99.5C 45.8333,87.8333 55.8333,77.8333 67.5,69.5C 70.8068,67.8466 74.1401,66.1799 77.5,64.5C 78.1667,64.5 78.5,64.1667 78.5,63.5C 85.6995,60.7669 93.0328,58.4336 100.5,56.5C 102.565,56.4828 104.565,56.1495 106.5,55.5C 111.833,55.1667 117.167,54.8333 122.5,54.5 Z"/></g>
<g><path style="opacity:0.022" fill="#43443f" d="M 215.5,61.5 C 215.5,63.1667 215.5,64.8333 215.5,66.5C 207.833,73.5 200.5,80.8333 193.5,88.5C 192.167,87.8333 191.167,86.8333 190.5,85.5C 198.833,77.5 207.167,69.5 215.5,61.5 Z"/></g>
<g><path style="opacity:0.022" fill="#43443f" d="M 511.5,65.5 C 511.5,67.1667 511.5,68.8333 511.5,70.5C 484.167,97.1667 457.167,124.167 430.5,151.5C 428.833,151.5 427.167,151.5 425.5,151.5C 453.833,122.5 482.5,93.8333 511.5,65.5 Z"/></g>
<g><path style="opacity:0.022" fill="#444440" d="M 217.5,78.5 C 218.674,79.5137 219.34,80.847 219.5,82.5C 213.5,88.1667 207.5,93.8333 201.5,99.5C 200.094,99.0269 199.427,98.0269 199.5,96.5C 205.833,90.8333 211.833,84.8333 217.5,78.5 Z"/></g>
<g><path style="opacity:0.022" fill="#43443f" d="M 511.5,85.5 C 511.5,87.1667 511.5,88.8333 511.5,90.5C 490.833,110.5 470.5,130.833 450.5,151.5C 448.833,151.5 447.167,151.5 445.5,151.5C 467.167,129.167 489.167,107.167 511.5,85.5 Z"/></g>
<g><path style="opacity:0.022" fill="#43443f" d="M 226.5,89.5 C 227.5,90.1667 228.5,90.8333 229.5,91.5C 222.833,98.8333 215.833,105.833 208.5,112.5C 207.599,111.71 206.932,110.71 206.5,109.5C 213.5,103.167 220.167,96.5 226.5,89.5 Z"/></g>
<g><path style="opacity:0.022" fill="#43443f" d="M 240.5,95.5 C 242.167,95.5 243.833,95.5 245.5,95.5C 235.167,106.5 224.5,117.167 213.5,127.5C 212.566,126.432 212.232,125.099 212.5,123.5C 222.167,114.5 231.5,105.167 240.5,95.5 Z"/></g>
<g><path style="opacity:1" fill="#fdd3ce" d="M 255.5,95.5 C 284.833,95.5 314.167,95.5 343.5,95.5C 357.5,95.5 371.5,95.5 385.5,95.5C 383.935,98.1904 383.269,101.19 383.5,104.5C 383.529,107.269 384.195,109.603 385.5,111.5C 387.167,111.5 388.833,111.5 390.5,111.5C 395.23,111.283 399.897,111.617 404.5,112.5C 405.29,113.401 406.29,114.068 407.5,114.5C 410.295,116.751 412.628,119.418 414.5,122.5C 414.263,123.791 414.596,124.791 415.5,125.5C 415.5,130.5 415.5,135.5 415.5,140.5C 415.5,142.167 415.5,143.833 415.5,145.5C 415.5,147.5 415.5,149.5 415.5,151.5C 413.347,159.818 408.014,164.985 399.5,167C 394.177,167.499 388.844,167.666 383.5,167.5C 384.824,178.444 382.99,188.777 378,198.5C 375.131,201.704 371.965,204.537 368.5,207C 360.452,210.687 352.785,214.853 345.5,219.5C 336.845,223.16 328.178,226.827 319.5,230.5C 310.822,226.827 302.155,223.16 293.5,219.5C 284.857,213.841 275.857,208.674 266.5,204C 260.803,199.108 257.303,192.941 256,185.5C 255.5,174.172 255.333,162.838 255.5,151.5C 255.5,149.833 255.5,148.167 255.5,146.5C 255.5,144.833 255.5,143.167 255.5,141.5C 255.5,136.5 255.5,131.5 255.5,126.5C 255.5,124.833 255.5,123.167 255.5,121.5C 255.5,116.5 255.5,111.5 255.5,106.5C 255.5,104.833 255.5,103.167 255.5,101.5C 255.5,99.5 255.5,97.5 255.5,95.5 Z"/></g>
<g><path style="opacity:0.022" fill="#444440" d="M 37.5,99.5 C 35.8466,102.807 34.1799,106.14 32.5,109.5C 31.8333,109.5 31.5,109.833 31.5,110.5C 20.8333,120.833 10.1667,131.167 -0.5,141.5C -0.5,139.833 -0.5,138.167 -0.5,136.5C 12.1667,124.167 24.8333,111.833 37.5,99.5 Z"/></g>
<g><path style="opacity:0.022" fill="#43443f" d="M 255.5,101.5 C 255.5,103.167 255.5,104.833 255.5,106.5C 242.167,119.5 228.833,132.5 215.5,145.5C 215.5,143.833 215.5,142.167 215.5,140.5C 228.833,127.5 242.167,114.5 255.5,101.5 Z"/></g>
<g><path style="opacity:0.022" fill="#43443f" d="M 511.5,105.5 C 511.5,107.167 511.5,108.833 511.5,110.5C 497.5,123.833 483.833,137.5 470.5,151.5C 468.833,151.5 467.167,151.5 465.5,151.5C 480.5,135.833 495.833,120.5 511.5,105.5 Z"/></g>
<g><path style="opacity:0.022" fill="#43443f" d="M 255.5,121.5 C 255.5,123.167 255.5,124.833 255.5,126.5C 246.833,134.5 238.5,142.833 230.5,151.5C 228.833,151.5 227.167,151.5 225.5,151.5C 235.167,141.167 245.167,131.167 255.5,121.5 Z"/></g>
<g><path style="opacity:0.022" fill="#444440" d="M 511.5,125.5 C 511.5,127.167 511.5,128.833 511.5,130.5C 502.833,138.5 494.5,146.833 486.5,155.5C 485.167,154.833 484.167,153.833 483.5,152.5C 492.833,143.5 502.167,134.5 511.5,125.5 Z"/></g>
<g><path style="opacity:1" fill="#ad6f68" d="M 279.5,127.5 C 284.833,127.5 290.167,127.5 295.5,127.5C 295.5,135.5 295.5,143.5 295.5,151.5C 290.167,151.5 284.833,151.5 279.5,151.5C 279.5,143.5 279.5,135.5 279.5,127.5 Z"/></g>
<g><path style="opacity:1" fill="#ad6f68" d="M 343.5,127.5 C 348.833,127.5 354.167,127.5 359.5,127.5C 359.5,135.5 359.5,143.5 359.5,151.5C 354.167,151.5 348.833,151.5 343.5,151.5C 343.5,143.5 343.5,135.5 343.5,127.5 Z"/></g>
<g><path style="opacity:0.022" fill="#43443f" d="M 24.5,132.5 C 24.4828,134.565 24.1495,136.565 23.5,138.5C 15.5,146.167 7.5,153.833 -0.5,161.5C -0.5,159.833 -0.5,158.167 -0.5,156.5C 7.83333,148.5 16.1667,140.5 24.5,132.5 Z"/></g>
<g><path style="opacity:1" fill="#f6fcfd" d="M 103.5,103.5 C 114.167,103.5 124.833,103.5 135.5,103.5C 135.5,114.167 135.5,124.833 135.5,135.5C 146.167,135.5 156.833,135.5 167.5,135.5C 167.5,146.167 167.5,156.833 167.5,167.5C 156.833,167.5 146.167,167.5 135.5,167.5C 135.5,178.167 135.5,188.833 135.5,199.5C 124.833,199.5 114.167,199.5 103.5,199.5C 103.5,188.833 103.5,178.167 103.5,167.5C 92.8333,167.5 82.1667,167.5 71.5,167.5C 71.5,156.833 71.5,146.167 71.5,135.5C 82.1667,135.5 92.8333,135.5 103.5,135.5C 103.5,124.833 103.5,114.167 103.5,103.5 Z"/></g>
<g><path style="opacity:0.022" fill="#43443f" d="M 255.5,141.5 C 255.5,143.167 255.5,144.833 255.5,146.5C 253.5,147.833 251.833,149.5 250.5,151.5C 248.833,151.5 247.167,151.5 245.5,151.5C 248.5,147.833 251.833,144.5 255.5,141.5 Z"/></g>
<g><path style="opacity:0.022" fill="#43443f" d="M 511.5,145.5 C 511.5,147.167 511.5,148.833 511.5,150.5C 503.5,158.167 495.5,165.833 487.5,173.5C 487.5,171.833 487.5,170.167 487.5,168.5C 495.5,160.833 503.5,153.167 511.5,145.5 Z"/></g>
<g><path style="opacity:1" fill="#f2f2f2" d="M 216.5,151.5 C 219.5,151.5 222.5,151.5 225.5,151.5C 227.167,151.5 228.833,151.5 230.5,151.5C 235.5,151.5 240.5,151.5 245.5,151.5C 247.167,151.5 248.833,151.5 250.5,151.5C 252.167,151.5 253.833,151.5 255.5,151.5C 255.333,162.838 255.5,174.172 256,185.5C 257.303,192.941 260.803,199.108 266.5,204C 275.857,208.674 284.857,213.841 293.5,219.5C 291.5,223.5 289.5,227.5 287.5,231.5C 282.199,242.101 276.866,252.768 271.5,263.5C 263.5,267.167 255.5,270.833 247.5,274.5C 247.5,273.5 247.5,272.5 247.5,271.5C 242.167,271.5 236.833,271.5 231.5,271.5C 231.5,275.167 231.5,278.833 231.5,282.5C 218.285,287.773 205.285,293.606 192.5,300C 189.628,302.537 187.128,305.37 185,308.5C 183.526,336.103 183.026,363.769 183.5,391.5C 130.167,391.5 76.8333,391.5 23.5,391.5C 23.5,387.167 23.5,382.833 23.5,378.5C 23.5,376.833 23.5,375.167 23.5,373.5C 23.5,368.5 23.5,363.5 23.5,358.5C 23.5,356.833 23.5,355.167 23.5,353.5C 23.5,348.5 23.5,343.5 23.5,338.5C 23.5,336.833 23.5,335.167 23.5,333.5C 23.5,328.5 23.5,323.5 23.5,318.5C 23.5,316.833 23.5,315.167 23.5,313.5C 23.5,308.5 23.5,303.5 23.5,298.5C 23.5,296.833 23.5,295.167 23.5,293.5C 23.5,288.5 23.5,283.5 23.5,278.5C 23.5,276.833 23.5,275.167 23.5,273.5C 23.5,268.5 23.5,263.5 23.5,258.5C 23.5,256.833 23.5,255.167 23.5,253.5C 23.5,248.5 23.5,243.5 23.5,238.5C 23.5,236.833 23.5,235.167 23.5,233.5C 23.5,228.5 23.5,223.5 23.5,218.5C 23.5,216.833 23.5,215.167 23.5,213.5C 23.5,208.5 23.5,203.5 23.5,198.5C 23.5,196.833 23.5,195.167 23.5,193.5C 23.5,188.5 23.5,183.5 23.5,178.5C 23.5,176.833 23.5,175.167 23.5,173.5C 23.5,169.167 23.5,164.833 23.5,160.5C 27.5012,193.989 44.1678,219.156 73.5,236C 112.408,254.703 148.741,250.703 182.5,224C 198.833,223.667 215.167,223.333 231.5,223C 224.372,209.244 217.372,195.411 210.5,181.5C 213.483,171.563 215.483,161.563 216.5,151.5 Z"/></g>
<g><path style="opacity:1" fill="#f1f1f1" d="M 415.5,151.5 C 418.833,151.5 422.167,151.5 425.5,151.5C 427.167,151.5 428.833,151.5 430.5,151.5C 435.5,151.5 440.5,151.5 445.5,151.5C 447.167,151.5 448.833,151.5 450.5,151.5C 455.5,151.5 460.5,151.5 465.5,151.5C 467.167,151.5 468.833,151.5 470.5,151.5C 474.931,151.231 479.265,151.564 483.5,152.5C 484.167,153.833 485.167,154.833 486.5,155.5C 487.436,159.735 487.769,164.069 487.5,168.5C 487.5,170.167 487.5,171.833 487.5,173.5C 487.5,178.5 487.5,183.5 487.5,188.5C 487.5,190.167 487.5,191.833 487.5,193.5C 487.5,198.5 487.5,203.5 487.5,208.5C 487.5,210.167 487.5,211.833 487.5,213.5C 487.5,218.5 487.5,223.5 487.5,228.5C 487.5,230.167 487.5,231.833 487.5,233.5C 487.5,238.5 487.5,243.5 487.5,248.5C 487.5,250.167 487.5,251.833 487.5,253.5C 487.5,258.5 487.5,263.5 487.5,268.5C 487.5,270.167 487.5,271.833 487.5,273.5C 487.5,278.5 487.5,283.5 487.5,288.5C 487.5,290.167 487.5,291.833 487.5,293.5C 487.5,298.5 487.5,303.5 487.5,308.5C 487.5,310.167 487.5,311.833 487.5,313.5C 487.5,318.5 487.5,323.5 487.5,328.5C 487.5,330.167 487.5,331.833 487.5,333.5C 487.5,338.5 487.5,343.5 487.5,348.5C 487.5,350.167 487.5,351.833 487.5,353.5C 487.5,358.5 487.5,363.5 487.5,368.5C 487.5,370.167 487.5,371.833 487.5,373.5C 487.5,378.5 487.5,383.5 487.5,388.5C 487.5,389.5 487.5,390.5 487.5,391.5C 476.833,391.5 466.167,391.5 455.5,391.5C 455.974,363.769 455.474,336.103 454,308.5C 451.872,305.37 449.372,302.537 446.5,300C 433.715,293.606 420.715,287.773 407.5,282.5C 407.5,278.833 407.5,275.167 407.5,271.5C 402.167,271.5 396.833,271.5 391.5,271.5C 391.5,272.5 391.5,273.5 391.5,274.5C 383.5,270.833 375.5,267.167 367.5,263.5C 362.134,252.768 356.801,242.101 351.5,231.5C 349.5,227.5 347.5,223.5 345.5,219.5C 352.785,214.853 360.452,210.687 368.5,207C 371.965,204.537 375.131,201.704 378,198.5C 382.99,188.777 384.824,178.444 383.5,167.5C 388.844,167.666 394.177,167.499 399.5,167C 408.014,164.985 413.347,159.818 415.5,151.5 Z"/></g>
<g><path style="opacity:0.022" fill="#434440" d="M 22.5,154.5 C 23.2341,155.708 23.5674,157.041 23.5,158.5C 15.5,166.167 7.5,173.833 -0.5,181.5C -0.5,179.833 -0.5,178.167 -0.5,176.5C 7.16667,169.167 14.8333,161.833 22.5,154.5 Z"/></g>
<g><path style="opacity:0.022" fill="#43443f" d="M 511.5,165.5 C 511.5,167.167 511.5,168.833 511.5,170.5C 503.5,178.167 495.5,185.833 487.5,193.5C 487.5,191.833 487.5,190.167 487.5,188.5C 495.5,180.833 503.5,173.167 511.5,165.5 Z"/></g>
<g><path style="opacity:0.022" fill="#43443f" d="M 23.5,173.5 C 23.5,175.167 23.5,176.833 23.5,178.5C 15.5,186.167 7.5,193.833 -0.5,201.5C -0.5,199.833 -0.5,198.167 -0.5,196.5C 7.5,188.833 15.5,181.167 23.5,173.5 Z"/></g>
<g><path style="opacity:1" fill="#ad7069" d="M 295.5,175.5 C 311.5,175.5 327.5,175.5 343.5,175.5C 343.837,191.829 335.837,199.829 319.5,199.5C 303.163,199.829 295.163,191.829 295.5,175.5 Z"/></g>
<g><path style="opacity:0.022" fill="#43443f" d="M 511.5,185.5 C 511.5,187.167 511.5,188.833 511.5,190.5C 503.5,198.167 495.5,205.833 487.5,213.5C 487.5,211.833 487.5,210.167 487.5,208.5C 495.5,200.833 503.5,193.167 511.5,185.5 Z"/></g>
<g><path style="opacity:0.022" fill="#43443f" d="M 23.5,193.5 C 23.5,195.167 23.5,196.833 23.5,198.5C 15.5,206.167 7.5,213.833 -0.5,221.5C -0.5,219.833 -0.5,218.167 -0.5,216.5C 7.5,208.833 15.5,201.167 23.5,193.5 Z"/></g>
<g><path style="opacity:0.022" fill="#43443f" d="M 511.5,205.5 C 511.5,207.167 511.5,208.833 511.5,210.5C 503.5,218.167 495.5,225.833 487.5,233.5C 487.5,231.833 487.5,230.167 487.5,228.5C 495.5,220.833 503.5,213.167 511.5,205.5 Z"/></g>
<g><path style="opacity:0.022" fill="#43443f" d="M 23.5,213.5 C 23.5,215.167 23.5,216.833 23.5,218.5C 15.5,226.167 7.5,233.833 -0.5,241.5C -0.5,239.833 -0.5,238.167 -0.5,236.5C 7.5,228.833 15.5,221.167 23.5,213.5 Z"/></g>
<g><path style="opacity:0.022" fill="#43443f" d="M 511.5,225.5 C 511.5,227.167 511.5,228.833 511.5,230.5C 503.5,238.167 495.5,245.833 487.5,253.5C 487.5,251.833 487.5,250.167 487.5,248.5C 495.5,240.833 503.5,233.167 511.5,225.5 Z"/></g>
<g><path style="opacity:1" fill="#f9b7af" d="M 293.5,219.5 C 302.155,223.16 310.822,226.827 319.5,230.5C 328.178,226.827 336.845,223.16 345.5,219.5C 347.5,223.5 349.5,227.5 351.5,231.5C 351.586,232.496 351.252,233.329 350.5,234C 340.796,239.856 330.463,244.023 319.5,246.5C 316.468,246.194 313.468,245.694 310.5,245C 302.104,241.371 294.437,236.871 287.5,231.5C 289.5,227.5 291.5,223.5 293.5,219.5 Z"/></g>
<g><path style="opacity:0.022" fill="#43443f" d="M 23.5,233.5 C 23.5,235.167 23.5,236.833 23.5,238.5C 15.5,246.167 7.5,253.833 -0.5,261.5C -0.5,259.833 -0.5,258.167 -0.5,256.5C 7.5,248.833 15.5,241.167 23.5,233.5 Z"/></g>
<g><path style="opacity:1" fill="#fdd3ce" d="M 287.5,231.5 C 294.437,236.871 302.104,241.371 310.5,245C 313.468,245.694 316.468,246.194 319.5,246.5C 330.463,244.023 340.796,239.856 350.5,234C 351.252,233.329 351.586,232.496 351.5,231.5C 356.801,242.101 362.134,252.768 367.5,263.5C 351.74,284.688 335.74,305.688 319.5,326.5C 303.26,305.688 287.26,284.688 271.5,263.5C 276.866,252.768 282.199,242.101 287.5,231.5 Z"/></g>
<g><path style="opacity:0.022" fill="#43443f" d="M 511.5,245.5 C 511.5,247.167 511.5,248.833 511.5,250.5C 503.5,258.167 495.5,265.833 487.5,273.5C 487.5,271.833 487.5,270.167 487.5,268.5C 495.5,260.833 503.5,253.167 511.5,245.5 Z"/></g>
<g><path style="opacity:0.022" fill="#43443f" d="M 23.5,253.5 C 23.5,255.167 23.5,256.833 23.5,258.5C 15.5,266.167 7.5,273.833 -0.5,281.5C -0.5,279.833 -0.5,278.167 -0.5,276.5C 7.5,268.833 15.5,261.167 23.5,253.5 Z"/></g>
<g><path style="opacity:0.022" fill="#43443f" d="M 511.5,265.5 C 511.5,267.167 511.5,268.833 511.5,270.5C 503.5,278.167 495.5,285.833 487.5,293.5C 487.5,291.833 487.5,290.167 487.5,288.5C 495.5,280.833 503.5,273.167 511.5,265.5 Z"/></g>
<g><path style="opacity:0.022" fill="#43443f" d="M 23.5,273.5 C 23.5,275.167 23.5,276.833 23.5,278.5C 15.5,286.167 7.5,293.833 -0.5,301.5C -0.5,299.833 -0.5,298.167 -0.5,296.5C 7.5,288.833 15.5,281.167 23.5,273.5 Z"/></g>
<g><path style="opacity:1" fill="#f8c750" d="M 407.5,282.5 C 407.5,289.833 407.5,297.167 407.5,304.5C 402.114,303.339 396.78,303.339 391.5,304.5C 391.5,294.5 391.5,284.5 391.5,274.5C 391.5,273.5 391.5,272.5 391.5,271.5C 396.833,271.5 402.167,271.5 407.5,271.5C 407.5,275.167 407.5,278.833 407.5,282.5 Z"/></g>
<g><path style="opacity:0.022" fill="#43443f" d="M 511.5,285.5 C 511.5,287.167 511.5,288.833 511.5,290.5C 503.5,298.167 495.5,305.833 487.5,313.5C 487.5,311.833 487.5,310.167 487.5,308.5C 495.5,300.833 503.5,293.167 511.5,285.5 Z"/></g>
<g><path style="opacity:0.022" fill="#43443f" d="M 23.5,293.5 C 23.5,295.167 23.5,296.833 23.5,298.5C 15.5,306.167 7.5,313.833 -0.5,321.5C -0.5,319.833 -0.5,318.167 -0.5,316.5C 7.5,308.833 15.5,301.167 23.5,293.5 Z"/></g>
<g><path style="opacity:1" fill="#f8c750" d="M 247.5,274.5 C 247.5,289.833 247.5,305.167 247.5,320.5C 259.874,322.372 267.708,329.372 271,341.5C 271.5,350.16 271.666,358.827 271.5,367.5C 266.167,367.5 260.833,367.5 255.5,367.5C 255.941,358.724 255.441,350.058 254,341.5C 250.229,336.573 245.229,334.573 239,335.5C 232.027,334.486 227.027,337.153 224,343.5C 223.5,351.493 223.334,359.493 223.5,367.5C 218.167,367.5 212.833,367.5 207.5,367.5C 207.334,358.827 207.5,350.16 208,341.5C 211.333,329.327 219.167,322.327 231.5,320.5C 231.5,307.833 231.5,295.167 231.5,282.5C 231.5,278.833 231.5,275.167 231.5,271.5C 236.833,271.5 242.167,271.5 247.5,271.5C 247.5,272.5 247.5,273.5 247.5,274.5 Z"/></g>
<g><path style="opacity:0.022" fill="#43443f" d="M 511.5,305.5 C 511.5,307.167 511.5,308.833 511.5,310.5C 503.5,318.167 495.5,325.833 487.5,333.5C 487.5,331.833 487.5,330.167 487.5,328.5C 495.5,320.833 503.5,313.167 511.5,305.5 Z"/></g>
<g><path style="opacity:0.022" fill="#43443f" d="M 23.5,313.5 C 23.5,315.167 23.5,316.833 23.5,318.5C 15.5,326.167 7.5,333.833 -0.5,341.5C -0.5,339.833 -0.5,338.167 -0.5,336.5C 7.5,328.833 15.5,321.167 23.5,313.5 Z"/></g>
<g><path style="opacity:0.022" fill="#43443f" d="M 511.5,325.5 C 511.5,327.167 511.5,328.833 511.5,330.5C 503.5,338.167 495.5,345.833 487.5,353.5C 487.5,351.833 487.5,350.167 487.5,348.5C 495.5,340.833 503.5,333.167 511.5,325.5 Z"/></g>
<g><path style="opacity:0.022" fill="#43443f" d="M 23.5,333.5 C 23.5,335.167 23.5,336.833 23.5,338.5C 15.5,346.167 7.5,353.833 -0.5,361.5C -0.5,359.833 -0.5,358.167 -0.5,356.5C 7.5,348.833 15.5,341.167 23.5,333.5 Z"/></g>
<g><path style="opacity:1" fill="#78d7e9" d="M 271.5,263.5 C 287.26,284.688 303.26,305.688 319.5,326.5C 335.74,305.688 351.74,284.688 367.5,263.5C 375.5,267.167 383.5,270.833 391.5,274.5C 391.5,284.5 391.5,294.5 391.5,304.5C 371.056,312.055 363.889,326.388 370,347.5C 378.966,364.73 392.799,370.563 411.5,365C 426.49,357.527 432.99,345.361 431,328.5C 427.68,316.014 419.847,308.014 407.5,304.5C 407.5,297.167 407.5,289.833 407.5,282.5C 420.715,287.773 433.715,293.606 446.5,300C 449.372,302.537 451.872,305.37 454,308.5C 455.474,336.103 455.974,363.769 455.5,391.5C 364.833,391.5 274.167,391.5 183.5,391.5C 183.026,363.769 183.526,336.103 185,308.5C 187.128,305.37 189.628,302.537 192.5,300C 205.285,293.606 218.285,287.773 231.5,282.5C 231.5,295.167 231.5,307.833 231.5,320.5C 219.167,322.327 211.333,329.327 208,341.5C 207.5,350.16 207.334,358.827 207.5,367.5C 212.833,367.5 218.167,367.5 223.5,367.5C 223.334,359.493 223.5,351.493 224,343.5C 227.027,337.153 232.027,334.486 239,335.5C 245.229,334.573 250.229,336.573 254,341.5C 255.441,350.058 255.941,358.724 255.5,367.5C 260.833,367.5 266.167,367.5 271.5,367.5C 271.666,358.827 271.5,350.16 271,341.5C 267.708,329.372 259.874,322.372 247.5,320.5C 247.5,305.167 247.5,289.833 247.5,274.5C 255.5,270.833 263.5,267.167 271.5,263.5 Z"/></g>
<g><path style="opacity:1" fill="#f6f7f7" d="M 407.5,304.5 C 419.847,308.014 427.68,316.014 431,328.5C 432.99,345.361 426.49,357.527 411.5,365C 392.799,370.563 378.966,364.73 370,347.5C 363.889,326.388 371.056,312.055 391.5,304.5C 396.78,303.339 402.114,303.339 407.5,304.5 Z"/></g>
<g><path style="opacity:1" fill="#f8c74f" d="M 391.5,327.5 C 396.833,327.5 402.167,327.5 407.5,327.5C 407.5,332.833 407.5,338.167 407.5,343.5C 402.167,343.5 396.833,343.5 391.5,343.5C 391.5,338.167 391.5,332.833 391.5,327.5 Z"/></g>
<g><path style="opacity:0.022" fill="#43443f" d="M 511.5,345.5 C 511.5,347.167 511.5,348.833 511.5,350.5C 503.5,358.167 495.5,365.833 487.5,373.5C 487.5,371.833 487.5,370.167 487.5,368.5C 495.5,360.833 503.5,353.167 511.5,345.5 Z"/></g>
<g><path style="opacity:0.022" fill="#43443f" d="M 23.5,353.5 C 23.5,355.167 23.5,356.833 23.5,358.5C 15.5,366.167 7.5,373.833 -0.5,381.5C -0.5,379.833 -0.5,378.167 -0.5,376.5C 7.5,368.833 15.5,361.167 23.5,353.5 Z"/></g>
<g><path style="opacity:0.022" fill="#43443f" d="M 511.5,365.5 C 511.5,367.167 511.5,368.833 511.5,370.5C 503.5,378.167 495.5,385.833 487.5,393.5C 487.5,392.833 487.5,392.167 487.5,391.5C 487.5,390.5 487.5,389.5 487.5,388.5C 495.5,380.833 503.5,373.167 511.5,365.5 Z"/></g>
<g><path style="opacity:0.022" fill="#43443f" d="M 23.5,373.5 C 23.5,375.167 23.5,376.833 23.5,378.5C 15.5,386.167 7.5,393.833 -0.5,401.5C -0.5,399.833 -0.5,398.167 -0.5,396.5C 7.5,388.833 15.5,381.167 23.5,373.5 Z"/></g>
<g><path style="opacity:0.022" fill="#43443f" d="M 511.5,385.5 C 511.5,387.167 511.5,388.833 511.5,390.5C 503.5,398.167 495.5,405.833 487.5,413.5C 487.5,411.833 487.5,410.167 487.5,408.5C 495.5,400.833 503.5,393.167 511.5,385.5 Z"/></g>
<g><path style="opacity:1" fill="#f8c74f" d="M 23.5,391.5 C 76.8333,391.5 130.167,391.5 183.5,391.5C 274.167,391.5 364.833,391.5 455.5,391.5C 466.167,391.5 476.833,391.5 487.5,391.5C 487.5,392.167 487.5,392.833 487.5,393.5C 487.5,398.5 487.5,403.5 487.5,408.5C 487.5,410.167 487.5,411.833 487.5,413.5C 487.5,418.5 487.5,423.5 487.5,428.5C 487.5,430.167 487.5,431.833 487.5,433.5C 487.5,438.5 487.5,443.5 487.5,448.5C 486.167,451.833 483.833,454.167 480.5,455.5C 475.5,455.5 470.5,455.5 465.5,455.5C 463.833,455.5 462.167,455.5 460.5,455.5C 455.5,455.5 450.5,455.5 445.5,455.5C 443.833,455.5 442.167,455.5 440.5,455.5C 435.5,455.5 430.5,455.5 425.5,455.5C 423.833,455.5 422.167,455.5 420.5,455.5C 415.5,455.5 410.5,455.5 405.5,455.5C 403.833,455.5 402.167,455.5 400.5,455.5C 395.5,455.5 390.5,455.5 385.5,455.5C 383.833,455.5 382.167,455.5 380.5,455.5C 375.5,455.5 370.5,455.5 365.5,455.5C 363.833,455.5 362.167,455.5 360.5,455.5C 355.5,455.5 350.5,455.5 345.5,455.5C 343.833,455.5 342.167,455.5 340.5,455.5C 335.5,455.5 330.5,455.5 325.5,455.5C 323.833,455.5 322.167,455.5 320.5,455.5C 315.5,455.5 310.5,455.5 305.5,455.5C 303.833,455.5 302.167,455.5 300.5,455.5C 299.167,455.5 297.833,455.5 296.5,455.5C 269.167,455.5 241.833,455.5 214.5,455.5C 211.5,455.5 208.5,455.5 205.5,455.5C 203.833,455.5 202.167,455.5 200.5,455.5C 195.5,455.5 190.5,455.5 185.5,455.5C 183.833,455.5 182.167,455.5 180.5,455.5C 175.5,455.5 170.5,455.5 165.5,455.5C 163.833,455.5 162.167,455.5 160.5,455.5C 155.5,455.5 150.5,455.5 145.5,455.5C 143.833,455.5 142.167,455.5 140.5,455.5C 135.5,455.5 130.5,455.5 125.5,455.5C 123.833,455.5 122.167,455.5 120.5,455.5C 115.5,455.5 110.5,455.5 105.5,455.5C 103.833,455.5 102.167,455.5 100.5,455.5C 95.5,455.5 90.5,455.5 85.5,455.5C 83.8333,455.5 82.1667,455.5 80.5,455.5C 75.5,455.5 70.5,455.5 65.5,455.5C 63.8333,455.5 62.1667,455.5 60.5,455.5C 55.5,455.5 50.5,455.5 45.5,455.5C 43.8333,455.5 42.1667,455.5 40.5,455.5C 36.0685,455.769 31.7352,455.436 27.5,454.5C 26.8333,453.167 25.8333,452.167 24.5,451.5C 23.564,447.265 23.2307,442.931 23.5,438.5C 23.5,436.833 23.5,435.167 23.5,433.5C 23.5,428.5 23.5,423.5 23.5,418.5C 23.5,416.833 23.5,415.167 23.5,413.5C 23.5,408.5 23.5,403.5 23.5,398.5C 23.5,396.833 23.5,395.167 23.5,393.5C 23.5,392.833 23.5,392.167 23.5,391.5 Z"/></g>
<g><path style="opacity:0.022" fill="#43443f" d="M 23.5,393.5 C 23.5,395.167 23.5,396.833 23.5,398.5C 15.5,406.167 7.5,413.833 -0.5,421.5C -0.5,419.833 -0.5,418.167 -0.5,416.5C 7.5,408.833 15.5,401.167 23.5,393.5 Z"/></g>
<g><path style="opacity:0.022" fill="#43443f" d="M 511.5,405.5 C 511.5,407.167 511.5,408.833 511.5,410.5C 503.5,418.167 495.5,425.833 487.5,433.5C 487.5,431.833 487.5,430.167 487.5,428.5C 495.5,420.833 503.5,413.167 511.5,405.5 Z"/></g>
<g><path style="opacity:0.022" fill="#43443f" d="M 23.5,413.5 C 23.5,415.167 23.5,416.833 23.5,418.5C 15.5,426.167 7.5,433.833 -0.5,441.5C -0.5,439.833 -0.5,438.167 -0.5,436.5C 7.5,428.833 15.5,421.167 23.5,413.5 Z"/></g>
<g><path style="opacity:1" fill="#f7f7f7" d="M 231.5,415.5 C 247.5,415.5 263.5,415.5 279.5,415.5C 279.5,420.833 279.5,426.167 279.5,431.5C 263.5,431.5 247.5,431.5 231.5,431.5C 231.5,426.167 231.5,420.833 231.5,415.5 Z"/></g>
<g><path style="opacity:0.022" fill="#444440" d="M 511.5,425.5 C 511.5,427.167 511.5,428.833 511.5,430.5C 484.167,457.167 457.167,484.167 430.5,511.5C 428.833,511.5 427.167,511.5 425.5,511.5C 443.833,492.833 462.167,474.167 480.5,455.5C 483.833,454.167 486.167,451.833 487.5,448.5C 495.5,440.833 503.5,433.167 511.5,425.5 Z"/></g>
<g><path style="opacity:0.022" fill="#43443f" d="M 23.5,433.5 C 23.5,435.167 23.5,436.833 23.5,438.5C 15.5,446.167 7.5,453.833 -0.5,461.5C -0.5,459.833 -0.5,458.167 -0.5,456.5C 7.5,448.833 15.5,441.167 23.5,433.5 Z"/></g>
<g><path style="opacity:0.022" fill="#43443f" d="M 511.5,445.5 C 511.5,447.167 511.5,448.833 511.5,450.5C 490.833,470.5 470.5,490.833 450.5,511.5C 448.833,511.5 447.167,511.5 445.5,511.5C 467.167,489.167 489.167,467.167 511.5,445.5 Z"/></g>
<g><path style="opacity:0.022" fill="#444440" d="M 24.5,451.5 C 25.8333,452.167 26.8333,453.167 27.5,454.5C 18.1667,463.5 8.83333,472.5 -0.5,481.5C -0.5,479.833 -0.5,478.167 -0.5,476.5C 8.16667,468.5 16.5,460.167 24.5,451.5 Z"/></g>
<g><path style="opacity:0.022" fill="#43443f" d="M 40.5,455.5 C 42.1667,455.5 43.8333,455.5 45.5,455.5C 30.5,471.167 15.1667,486.5 -0.5,501.5C -0.5,499.833 -0.5,498.167 -0.5,496.5C 13.5,483.167 27.1667,469.5 40.5,455.5 Z"/></g>
<g><path style="opacity:0.022" fill="#43443f" d="M 60.5,455.5 C 62.1667,455.5 63.8333,455.5 65.5,455.5C 47.1667,474.167 28.8333,492.833 10.5,511.5C 8.83333,511.5 7.16667,511.5 5.5,511.5C 23.8333,492.833 42.1667,474.167 60.5,455.5 Z"/></g>
<g><path style="opacity:0.022" fill="#43443f" d="M 80.5,455.5 C 82.1667,455.5 83.8333,455.5 85.5,455.5C 67.1667,474.167 48.8333,492.833 30.5,511.5C 28.8333,511.5 27.1667,511.5 25.5,511.5C 43.8333,492.833 62.1667,474.167 80.5,455.5 Z"/></g>
<g><path style="opacity:0.022" fill="#43443f" d="M 100.5,455.5 C 102.167,455.5 103.833,455.5 105.5,455.5C 87.1667,474.167 68.8333,492.833 50.5,511.5C 48.8333,511.5 47.1667,511.5 45.5,511.5C 63.8333,492.833 82.1667,474.167 100.5,455.5 Z"/></g>
<g><path style="opacity:0.022" fill="#43443f" d="M 120.5,455.5 C 122.167,455.5 123.833,455.5 125.5,455.5C 107.167,474.167 88.8333,492.833 70.5,511.5C 68.8333,511.5 67.1667,511.5 65.5,511.5C 83.8333,492.833 102.167,474.167 120.5,455.5 Z"/></g>
<g><path style="opacity:0.022" fill="#43443f" d="M 140.5,455.5 C 142.167,455.5 143.833,455.5 145.5,455.5C 127.167,474.167 108.833,492.833 90.5,511.5C 88.8333,511.5 87.1667,511.5 85.5,511.5C 103.833,492.833 122.167,474.167 140.5,455.5 Z"/></g>
<g><path style="opacity:0.022" fill="#43443f" d="M 160.5,455.5 C 162.167,455.5 163.833,455.5 165.5,455.5C 147.167,474.167 128.833,492.833 110.5,511.5C 108.833,511.5 107.167,511.5 105.5,511.5C 123.833,492.833 142.167,474.167 160.5,455.5 Z"/></g>
<g><path style="opacity:0.022" fill="#43443f" d="M 180.5,455.5 C 182.167,455.5 183.833,455.5 185.5,455.5C 167.167,474.167 148.833,492.833 130.5,511.5C 128.833,511.5 127.167,511.5 125.5,511.5C 143.833,492.833 162.167,474.167 180.5,455.5 Z"/></g>
<g><path style="opacity:0.022" fill="#43443f" d="M 200.5,455.5 C 202.167,455.5 203.833,455.5 205.5,455.5C 197.833,463.5 190.167,471.5 182.5,479.5C 180.833,479.5 179.167,479.5 177.5,479.5C 185.167,471.5 192.833,463.5 200.5,455.5 Z"/></g>
<g><path style="opacity:0.022" fill="#43443f" d="M 300.5,455.5 C 302.167,455.5 303.833,455.5 305.5,455.5C 303.167,458.167 300.833,460.833 298.5,463.5C 297.566,462.432 297.232,461.099 297.5,459.5C 298.5,458.167 299.5,456.833 300.5,455.5 Z"/></g>
<g><path style="opacity:0.022" fill="#43443f" d="M 320.5,455.5 C 322.167,455.5 323.833,455.5 325.5,455.5C 317.833,463.5 310.167,471.5 302.5,479.5C 301.566,478.432 301.232,477.099 301.5,475.5C 307.833,468.833 314.167,462.167 320.5,455.5 Z"/></g>
<g><path style="opacity:0.022" fill="#43443f" d="M 340.5,455.5 C 342.167,455.5 343.833,455.5 345.5,455.5C 337.833,463.5 330.167,471.5 322.5,479.5C 320.833,479.5 319.167,479.5 317.5,479.5C 325.167,471.5 332.833,463.5 340.5,455.5 Z"/></g>
<g><path style="opacity:0.022" fill="#43443f" d="M 360.5,455.5 C 362.167,455.5 363.833,455.5 365.5,455.5C 355.833,465.833 345.833,475.833 335.5,485.5C 335.5,483.833 335.5,482.167 335.5,480.5C 344.167,472.5 352.5,464.167 360.5,455.5 Z"/></g>
<g><path style="opacity:0.022" fill="#43443f" d="M 380.5,455.5 C 382.167,455.5 383.833,455.5 385.5,455.5C 367.167,474.167 348.833,492.833 330.5,511.5C 328.833,511.5 327.167,511.5 325.5,511.5C 343.833,492.833 362.167,474.167 380.5,455.5 Z"/></g>
<g><path style="opacity:0.022" fill="#43443f" d="M 400.5,455.5 C 402.167,455.5 403.833,455.5 405.5,455.5C 387.167,474.167 368.833,492.833 350.5,511.5C 348.833,511.5 347.167,511.5 345.5,511.5C 363.833,492.833 382.167,474.167 400.5,455.5 Z"/></g>
<g><path style="opacity:0.022" fill="#43443f" d="M 420.5,455.5 C 422.167,455.5 423.833,455.5 425.5,455.5C 407.167,474.167 388.833,492.833 370.5,511.5C 368.833,511.5 367.167,511.5 365.5,511.5C 383.833,492.833 402.167,474.167 420.5,455.5 Z"/></g>
<g><path style="opacity:0.022" fill="#43443f" d="M 440.5,455.5 C 442.167,455.5 443.833,455.5 445.5,455.5C 427.167,474.167 408.833,492.833 390.5,511.5C 388.833,511.5 387.167,511.5 385.5,511.5C 403.833,492.833 422.167,474.167 440.5,455.5 Z"/></g>
<g><path style="opacity:0.022" fill="#43443f" d="M 460.5,455.5 C 462.167,455.5 463.833,455.5 465.5,455.5C 447.167,474.167 428.833,492.833 410.5,511.5C 408.833,511.5 407.167,511.5 405.5,511.5C 423.833,492.833 442.167,474.167 460.5,455.5 Z"/></g>
<g><path style="opacity:0.022" fill="#43443f" d="M 212.5,464.5 C 212.167,466.5 211.833,468.5 211.5,470.5C 210.833,470.5 210.5,470.833 210.5,471.5C 207.5,473.833 204.833,476.5 202.5,479.5C 200.833,479.5 199.167,479.5 197.5,479.5C 202.167,474.167 207.167,469.167 212.5,464.5 Z"/></g>
<g><path style="opacity:0.022" fill="#43443f" d="M 511.5,465.5 C 511.5,467.167 511.5,468.833 511.5,470.5C 497.5,483.833 483.833,497.5 470.5,511.5C 468.833,511.5 467.167,511.5 465.5,511.5C 480.5,495.833 495.833,480.5 511.5,465.5 Z"/></g>
<g><path style="opacity:1" fill="#f87c28" d="M 214.5,455.5 C 241.833,455.5 269.167,455.5 296.5,455.5C 296.232,457.099 296.566,458.432 297.5,459.5C 297.232,461.099 297.566,462.432 298.5,463.5C 298.898,467.761 299.898,471.761 301.5,475.5C 301.232,477.099 301.566,478.432 302.5,479.5C 307.5,479.5 312.5,479.5 317.5,479.5C 319.167,479.5 320.833,479.5 322.5,479.5C 327.032,479.182 331.366,479.515 335.5,480.5C 335.5,482.167 335.5,483.833 335.5,485.5C 335.5,488.833 335.5,492.167 335.5,495.5C 332.167,495.5 328.833,495.5 325.5,495.5C 323.833,495.5 322.167,495.5 320.5,495.5C 315.5,495.5 310.5,495.5 305.5,495.5C 303.833,495.5 302.167,495.5 300.5,495.5C 295.5,495.5 290.5,495.5 285.5,495.5C 283.833,495.5 282.167,495.5 280.5,495.5C 275.5,495.5 270.5,495.5 265.5,495.5C 263.833,495.5 262.167,495.5 260.5,495.5C 255.5,495.5 250.5,495.5 245.5,495.5C 243.833,495.5 242.167,495.5 240.5,495.5C 235.5,495.5 230.5,495.5 225.5,495.5C 223.833,495.5 222.167,495.5 220.5,495.5C 215.5,495.5 210.5,495.5 205.5,495.5C 203.833,495.5 202.167,495.5 200.5,495.5C 195.5,495.5 190.5,495.5 185.5,495.5C 183.833,495.5 182.167,495.5 180.5,495.5C 178.833,495.5 177.167,495.5 175.5,495.5C 175.5,492.5 175.5,489.5 175.5,486.5C 175.5,484.833 175.5,483.167 175.5,481.5C 175.5,480.167 176.167,479.5 177.5,479.5C 179.167,479.5 180.833,479.5 182.5,479.5C 187.5,479.5 192.5,479.5 197.5,479.5C 199.167,479.5 200.833,479.5 202.5,479.5C 204.833,479.5 207.167,479.5 209.5,479.5C 209.833,476.833 210.167,474.167 210.5,471.5C 211.167,471.5 211.5,471.167 211.5,470.5C 211.833,468.5 212.167,466.5 212.5,464.5C 213.634,461.63 214.3,458.63 214.5,455.5 Z"/></g>
<g><path style="opacity:0.022" fill="#43443f" d="M 175.5,481.5 C 175.5,483.167 175.5,484.833 175.5,486.5C 166.833,494.5 158.5,502.833 150.5,511.5C 148.833,511.5 147.167,511.5 145.5,511.5C 155.167,501.167 165.167,491.167 175.5,481.5 Z"/></g>
<g><path style="opacity:0.022" fill="#43443f" d="M 511.5,485.5 C 511.5,487.167 511.5,488.833 511.5,490.5C 504.167,497.167 497.167,504.167 490.5,511.5C 488.833,511.5 487.167,511.5 485.5,511.5C 493.833,502.5 502.5,493.833 511.5,485.5 Z"/></g>
<g><path style="opacity:0.022" fill="#43443f" d="M 180.5,495.5 C 182.167,495.5 183.833,495.5 185.5,495.5C 180.5,500.833 175.5,506.167 170.5,511.5C 168.833,511.5 167.167,511.5 165.5,511.5C 170.5,506.167 175.5,500.833 180.5,495.5 Z"/></g>
<g><path style="opacity:0.022" fill="#43443f" d="M 200.5,495.5 C 202.167,495.5 203.833,495.5 205.5,495.5C 200.5,500.833 195.5,506.167 190.5,511.5C 188.833,511.5 187.167,511.5 185.5,511.5C 190.5,506.167 195.5,500.833 200.5,495.5 Z"/></g>
<g><path style="opacity:0.022" fill="#43443f" d="M 220.5,495.5 C 222.167,495.5 223.833,495.5 225.5,495.5C 220.5,500.833 215.5,506.167 210.5,511.5C 208.833,511.5 207.167,511.5 205.5,511.5C 210.5,506.167 215.5,500.833 220.5,495.5 Z"/></g>
<g><path style="opacity:0.022" fill="#43443f" d="M 240.5,495.5 C 242.167,495.5 243.833,495.5 245.5,495.5C 240.5,500.833 235.5,506.167 230.5,511.5C 228.833,511.5 227.167,511.5 225.5,511.5C 230.5,506.167 235.5,500.833 240.5,495.5 Z"/></g>
<g><path style="opacity:0.022" fill="#43443f" d="M 260.5,495.5 C 262.167,495.5 263.833,495.5 265.5,495.5C 260.5,500.833 255.5,506.167 250.5,511.5C 248.833,511.5 247.167,511.5 245.5,511.5C 250.5,506.167 255.5,500.833 260.5,495.5 Z"/></g>
<g><path style="opacity:0.022" fill="#43443f" d="M 280.5,495.5 C 282.167,495.5 283.833,495.5 285.5,495.5C 280.5,500.833 275.5,506.167 270.5,511.5C 268.833,511.5 267.167,511.5 265.5,511.5C 270.5,506.167 275.5,500.833 280.5,495.5 Z"/></g>
<g><path style="opacity:0.022" fill="#43443f" d="M 300.5,495.5 C 302.167,495.5 303.833,495.5 305.5,495.5C 300.5,500.833 295.5,506.167 290.5,511.5C 288.833,511.5 287.167,511.5 285.5,511.5C 290.5,506.167 295.5,500.833 300.5,495.5 Z"/></g>
<g><path style="opacity:0.022" fill="#43443f" d="M 320.5,495.5 C 322.167,495.5 323.833,495.5 325.5,495.5C 320.5,500.833 315.5,506.167 310.5,511.5C 308.833,511.5 307.167,511.5 305.5,511.5C 310.5,506.167 315.5,500.833 320.5,495.5 Z"/></g>
<g><path style="opacity:0.022" fill="#43443f" d="M 511.5,505.5 C 511.5,507.167 511.5,508.833 511.5,510.5C 510.833,510.5 510.5,510.833 510.5,511.5C 508.833,511.5 507.167,511.5 505.5,511.5C 507.167,509.167 509.167,507.167 511.5,505.5 Z"/></g>
</svg>
