<?xml version="1.0" ?><svg viewBox="0 0 32 32" xmlns="http://www.w3.org/2000/svg"><defs><style>.cls-1{fill:#04009a;}.cls-2{fill:#77acf1;}</style></defs><g data-name="1. Online Health" id="_1._Online_Health"><path class="cls-1" d="M18.21,32H7.79A4.8,4.8,0,0,1,3,27.21V4.79A4.8,4.8,0,0,1,7.79,0H18.21A4.8,4.8,0,0,1,23,4.79V5a1,1,0,0,1-2,0V4.79A2.79,2.79,0,0,0,18.21,2H7.79A2.79,2.79,0,0,0,5,4.79V27.21A2.79,2.79,0,0,0,7.79,30H18.21A2.79,2.79,0,0,0,21,27.21V27a1,1,0,0,1,2,0v.21A4.8,4.8,0,0,1,18.21,32Z"/><path class="cls-2" d="M13,28a2,2,0,1,1,2-2A2,2,0,0,1,13,28Zm0-2Z"/><path class="cls-1" d="M16,6H10a1,1,0,0,1,0-2h6a1,1,0,0,1,0,2Z"/><path class="cls-1" d="M22,24a8,8,0,0,1-5.29-2H14a1,1,0,0,1-.89-1.45l1.19-2.39A7.93,7.93,0,0,1,14,16a8,8,0,1,1,8,8Zm-6.38-4h1.49a.94.94,0,0,1,.69.29A6,6,0,1,0,16,16a6.1,6.1,0,0,0,.32,1.93,1,1,0,0,1-.05.77Z"/><path class="cls-2" d="M24,15H23V14a1,1,0,0,0-2,0v1H20a1,1,0,0,0,0,2h1v1a1,1,0,0,0,2,0V17h1a1,1,0,0,0,0-2Z"/></g></svg>